M48
;GenerationSoftware,Autodesk,EAGLE,9.6.2*%
;CreationDate,2022-04-25T00:36:58Z*%
FMAT,2
ICI,OFF
METRIC,TZ,000.000
T2C0.350
T1C1.016
%
G90
M71
T1
X8890Y13970
X34290Y40640
X34290Y38100
X34290Y35560
X34290Y33020
X34290Y30480
X21590Y12700
X21590Y15240
X21590Y17780
X21590Y20320
X21590Y22860
X52070Y8890
X19050Y10160
X19050Y12700
X19050Y15240
X19050Y17780
X19050Y20320
X8890Y26670
X8890Y24130
X8890Y21590
X8890Y19050
X8890Y16510
X19050Y22860
X8890Y11430
X8890Y8890
X8890Y6350
X8890Y3810
X6350Y3810
X6350Y6350
X6350Y8890
X6350Y11430
X6350Y13970
X6350Y16510
X6350Y19050
X6350Y21590
X6350Y24130
X6350Y26670
X52070Y26670
X52070Y24130
X52070Y21590
X52070Y19050
X52070Y16510
X52070Y13970
X52070Y11430
X21590Y10160
X52070Y6350
X52070Y3810
X49530Y3810
X49530Y6350
X49530Y8890
X49530Y11430
X49530Y13970
X49530Y16510
X49530Y19050
X49530Y21590
X49530Y24130
X49530Y26670
X36830Y19050
X36830Y16510
X36830Y13970
X39370Y19050
X39370Y16510
X39370Y13970
X27940Y6350
X30480Y6350
X24130Y43180
X24130Y40640
X24130Y38100
X24130Y35560
X24130Y33020
X34290Y45720
X34290Y43180
T2
X21869Y8001
X25425Y59741
X9068Y67386
X51740Y55296
X41605Y54407
X33071Y53340
X17602Y53873
X19736Y59919
X30404Y58496
X30404Y59741
X48539Y59741
X49251Y58496
X17602Y57785
X17602Y61341
X22758Y58141
X17602Y65430
X22758Y27026
M30