G04 EAGLE Gerber RS-274X export*
G75*
%MOMM*%
%FSLAX34Y34*%
%LPD*%
%INBottom layer*%
%IPPOS*%
%AMOC8*
5,1,8,0,0,1.08239X$1,22.5*%
G01*
%ADD10C,0.000000*%
%ADD11P,1.649562X8X112.500000*%
%ADD12C,1.524000*%
%ADD13P,1.649562X8X292.500000*%
%ADD14C,1.524000*%
%ADD15C,0.203200*%
%ADD16C,0.756400*%

G36*
X573298Y10164D02*
X573298Y10164D01*
X573317Y10162D01*
X573419Y10184D01*
X573521Y10200D01*
X573538Y10210D01*
X573558Y10214D01*
X573647Y10267D01*
X573738Y10316D01*
X573752Y10330D01*
X573769Y10340D01*
X573836Y10419D01*
X573908Y10494D01*
X573916Y10512D01*
X573929Y10527D01*
X573968Y10623D01*
X574011Y10717D01*
X574013Y10737D01*
X574021Y10755D01*
X574039Y10922D01*
X574039Y751078D01*
X574036Y751098D01*
X574038Y751117D01*
X574016Y751219D01*
X574000Y751321D01*
X573990Y751338D01*
X573986Y751358D01*
X573933Y751447D01*
X573884Y751538D01*
X573870Y751552D01*
X573860Y751569D01*
X573781Y751636D01*
X573706Y751708D01*
X573688Y751716D01*
X573673Y751729D01*
X573577Y751768D01*
X573483Y751811D01*
X573463Y751813D01*
X573445Y751821D01*
X573278Y751839D01*
X10922Y751839D01*
X10902Y751836D01*
X10883Y751838D01*
X10781Y751816D01*
X10679Y751800D01*
X10662Y751790D01*
X10642Y751786D01*
X10553Y751733D01*
X10462Y751684D01*
X10448Y751670D01*
X10431Y751660D01*
X10364Y751581D01*
X10292Y751506D01*
X10284Y751488D01*
X10271Y751473D01*
X10232Y751377D01*
X10189Y751283D01*
X10187Y751263D01*
X10179Y751245D01*
X10161Y751078D01*
X10161Y10922D01*
X10164Y10902D01*
X10162Y10883D01*
X10184Y10781D01*
X10200Y10679D01*
X10210Y10662D01*
X10214Y10642D01*
X10267Y10553D01*
X10316Y10462D01*
X10330Y10448D01*
X10340Y10431D01*
X10419Y10364D01*
X10494Y10292D01*
X10512Y10284D01*
X10527Y10271D01*
X10623Y10232D01*
X10717Y10189D01*
X10737Y10187D01*
X10755Y10179D01*
X10922Y10161D01*
X573278Y10161D01*
X573298Y10164D01*
G37*
%LPC*%
G36*
X75402Y22351D02*
X75402Y22351D01*
X73690Y24063D01*
X68581Y29172D01*
X68565Y29183D01*
X68552Y29199D01*
X68465Y29255D01*
X68381Y29315D01*
X68362Y29321D01*
X68345Y29332D01*
X68245Y29357D01*
X68146Y29388D01*
X68126Y29387D01*
X68107Y29392D01*
X68004Y29384D01*
X67900Y29381D01*
X67882Y29375D01*
X67862Y29373D01*
X67767Y29333D01*
X67669Y29297D01*
X67654Y29284D01*
X67635Y29277D01*
X67504Y29172D01*
X67288Y28955D01*
X59712Y28955D01*
X54355Y34312D01*
X54355Y41888D01*
X59712Y47245D01*
X67288Y47245D01*
X72645Y41888D01*
X72645Y34312D01*
X72174Y33842D01*
X72163Y33825D01*
X72147Y33813D01*
X72091Y33726D01*
X72031Y33642D01*
X72025Y33623D01*
X72014Y33606D01*
X71989Y33505D01*
X71958Y33407D01*
X71959Y33387D01*
X71954Y33367D01*
X71962Y33265D01*
X71965Y33161D01*
X71971Y33142D01*
X71973Y33122D01*
X72013Y33028D01*
X72049Y32930D01*
X72062Y32914D01*
X72069Y32896D01*
X72174Y32765D01*
X77283Y27656D01*
X77357Y27603D01*
X77427Y27543D01*
X77457Y27531D01*
X77483Y27512D01*
X77570Y27485D01*
X77655Y27451D01*
X77696Y27447D01*
X77718Y27440D01*
X77750Y27441D01*
X77822Y27433D01*
X162208Y27433D01*
X162298Y27447D01*
X162389Y27455D01*
X162419Y27467D01*
X162451Y27472D01*
X162532Y27515D01*
X162616Y27551D01*
X162648Y27577D01*
X162668Y27588D01*
X162691Y27611D01*
X162747Y27656D01*
X213164Y78073D01*
X213217Y78147D01*
X213277Y78217D01*
X213289Y78247D01*
X213308Y78273D01*
X213335Y78360D01*
X213369Y78445D01*
X213373Y78486D01*
X213380Y78508D01*
X213379Y78540D01*
X213387Y78612D01*
X213387Y82208D01*
X214461Y83282D01*
X214503Y83340D01*
X214552Y83392D01*
X214574Y83439D01*
X214604Y83481D01*
X214626Y83550D01*
X214656Y83615D01*
X214661Y83667D01*
X214677Y83717D01*
X214675Y83788D01*
X214683Y83859D01*
X214672Y83910D01*
X214670Y83962D01*
X214646Y84030D01*
X214631Y84100D01*
X214604Y84145D01*
X214586Y84193D01*
X214541Y84249D01*
X214504Y84311D01*
X214465Y84345D01*
X214432Y84385D01*
X214372Y84424D01*
X214317Y84471D01*
X214269Y84490D01*
X214225Y84518D01*
X214156Y84536D01*
X214089Y84563D01*
X214018Y84571D01*
X213987Y84579D01*
X213964Y84577D01*
X213923Y84581D01*
X183860Y84581D01*
X182148Y86293D01*
X143189Y125252D01*
X143115Y125305D01*
X143045Y125365D01*
X143015Y125377D01*
X142989Y125396D01*
X142902Y125423D01*
X142817Y125457D01*
X142776Y125461D01*
X142754Y125468D01*
X142722Y125467D01*
X142650Y125475D01*
X73624Y125475D01*
X71912Y127187D01*
X68454Y130645D01*
X68438Y130656D01*
X68425Y130672D01*
X68338Y130728D01*
X68254Y130788D01*
X68235Y130794D01*
X68218Y130805D01*
X68118Y130830D01*
X68019Y130861D01*
X67999Y130860D01*
X67980Y130865D01*
X67877Y130857D01*
X67773Y130854D01*
X67755Y130848D01*
X67735Y130846D01*
X67640Y130806D01*
X67542Y130770D01*
X67527Y130757D01*
X67508Y130750D01*
X67377Y130645D01*
X67288Y130555D01*
X59712Y130555D01*
X54355Y135912D01*
X54355Y143488D01*
X59712Y148845D01*
X67288Y148845D01*
X72645Y143488D01*
X72645Y135912D01*
X72047Y135315D01*
X72036Y135298D01*
X72020Y135286D01*
X71964Y135199D01*
X71904Y135115D01*
X71898Y135096D01*
X71887Y135079D01*
X71862Y134978D01*
X71831Y134880D01*
X71832Y134860D01*
X71827Y134840D01*
X71835Y134738D01*
X71838Y134634D01*
X71844Y134615D01*
X71846Y134595D01*
X71886Y134500D01*
X71922Y134403D01*
X71935Y134387D01*
X71942Y134369D01*
X72047Y134238D01*
X75505Y130780D01*
X75579Y130727D01*
X75649Y130667D01*
X75679Y130655D01*
X75705Y130636D01*
X75792Y130609D01*
X75877Y130575D01*
X75918Y130571D01*
X75940Y130564D01*
X75972Y130565D01*
X76044Y130557D01*
X83273Y130557D01*
X83344Y130568D01*
X83415Y130570D01*
X83464Y130588D01*
X83516Y130596D01*
X83579Y130630D01*
X83646Y130655D01*
X83687Y130687D01*
X83733Y130712D01*
X83782Y130764D01*
X83838Y130808D01*
X83867Y130852D01*
X83902Y130890D01*
X83933Y130955D01*
X83971Y131015D01*
X83984Y131066D01*
X84006Y131113D01*
X84014Y131184D01*
X84031Y131254D01*
X84027Y131306D01*
X84033Y131357D01*
X84018Y131428D01*
X84012Y131499D01*
X83992Y131547D01*
X83981Y131598D01*
X83944Y131659D01*
X83916Y131725D01*
X83871Y131781D01*
X83855Y131809D01*
X83837Y131824D01*
X83811Y131856D01*
X79755Y135912D01*
X79755Y143488D01*
X85112Y148845D01*
X92688Y148845D01*
X98045Y143488D01*
X98045Y135912D01*
X93989Y131856D01*
X93947Y131798D01*
X93898Y131746D01*
X93876Y131699D01*
X93845Y131657D01*
X93824Y131588D01*
X93794Y131523D01*
X93788Y131471D01*
X93773Y131421D01*
X93775Y131350D01*
X93767Y131279D01*
X93778Y131228D01*
X93779Y131176D01*
X93804Y131108D01*
X93819Y131038D01*
X93846Y130993D01*
X93864Y130945D01*
X93909Y130889D01*
X93945Y130827D01*
X93985Y130793D01*
X94017Y130753D01*
X94078Y130714D01*
X94132Y130667D01*
X94181Y130648D01*
X94224Y130620D01*
X94294Y130602D01*
X94360Y130575D01*
X94432Y130567D01*
X94463Y130559D01*
X94486Y130561D01*
X94527Y130557D01*
X140716Y130557D01*
X140736Y130560D01*
X140755Y130558D01*
X140857Y130580D01*
X140959Y130596D01*
X140976Y130606D01*
X140996Y130610D01*
X141085Y130663D01*
X141176Y130712D01*
X141190Y130726D01*
X141207Y130736D01*
X141274Y130815D01*
X141346Y130890D01*
X141354Y130908D01*
X141367Y130923D01*
X141406Y131019D01*
X141449Y131113D01*
X141451Y131133D01*
X141459Y131151D01*
X141477Y131318D01*
X141477Y345984D01*
X178592Y383099D01*
X178645Y383173D01*
X178705Y383243D01*
X178717Y383273D01*
X178736Y383299D01*
X178763Y383386D01*
X178797Y383471D01*
X178801Y383512D01*
X178808Y383534D01*
X178807Y383566D01*
X178815Y383638D01*
X178815Y532032D01*
X178801Y532122D01*
X178793Y532213D01*
X178781Y532243D01*
X178776Y532275D01*
X178733Y532356D01*
X178697Y532440D01*
X178671Y532472D01*
X178660Y532492D01*
X178637Y532515D01*
X178592Y532571D01*
X177959Y533204D01*
X177885Y533257D01*
X177815Y533317D01*
X177785Y533329D01*
X177759Y533348D01*
X177672Y533375D01*
X177587Y533409D01*
X177546Y533413D01*
X177524Y533420D01*
X177492Y533419D01*
X177420Y533427D01*
X173824Y533427D01*
X170715Y536536D01*
X170715Y540932D01*
X173824Y544041D01*
X178220Y544041D01*
X181329Y540932D01*
X181329Y537336D01*
X181343Y537246D01*
X181351Y537155D01*
X181363Y537125D01*
X181368Y537093D01*
X181411Y537012D01*
X181447Y536928D01*
X181473Y536896D01*
X181484Y536876D01*
X181507Y536853D01*
X181552Y536797D01*
X182185Y536164D01*
X182259Y536111D01*
X182329Y536051D01*
X182359Y536039D01*
X182385Y536020D01*
X182472Y535993D01*
X182557Y535959D01*
X182598Y535955D01*
X182620Y535948D01*
X182652Y535949D01*
X182724Y535941D01*
X325429Y535941D01*
X325519Y535955D01*
X325610Y535963D01*
X325639Y535975D01*
X325671Y535980D01*
X325752Y536023D01*
X325836Y536059D01*
X325868Y536085D01*
X325889Y536096D01*
X325911Y536119D01*
X325967Y536164D01*
X328510Y538707D01*
X332906Y538707D01*
X336015Y535598D01*
X336015Y531202D01*
X332906Y528093D01*
X328510Y528093D01*
X325967Y530636D01*
X325893Y530689D01*
X325823Y530749D01*
X325793Y530761D01*
X325767Y530780D01*
X325680Y530807D01*
X325595Y530841D01*
X325554Y530845D01*
X325532Y530852D01*
X325500Y530851D01*
X325429Y530859D01*
X184658Y530859D01*
X184638Y530856D01*
X184619Y530858D01*
X184517Y530836D01*
X184415Y530820D01*
X184398Y530810D01*
X184378Y530806D01*
X184289Y530753D01*
X184198Y530704D01*
X184184Y530690D01*
X184167Y530680D01*
X184100Y530601D01*
X184028Y530526D01*
X184020Y530508D01*
X184007Y530493D01*
X183968Y530397D01*
X183925Y530303D01*
X183923Y530283D01*
X183915Y530265D01*
X183897Y530098D01*
X183897Y384908D01*
X183908Y384837D01*
X183910Y384765D01*
X183928Y384716D01*
X183936Y384665D01*
X183970Y384602D01*
X183995Y384534D01*
X184027Y384493D01*
X184052Y384448D01*
X184103Y384398D01*
X184148Y384342D01*
X184192Y384314D01*
X184230Y384278D01*
X184295Y384248D01*
X184355Y384209D01*
X184406Y384196D01*
X184453Y384175D01*
X184524Y384167D01*
X184594Y384149D01*
X184646Y384153D01*
X184697Y384147D01*
X184768Y384163D01*
X184839Y384168D01*
X184887Y384189D01*
X184938Y384200D01*
X184999Y384237D01*
X185065Y384265D01*
X185121Y384309D01*
X185149Y384326D01*
X185164Y384344D01*
X185196Y384369D01*
X226149Y425322D01*
X226160Y425338D01*
X226176Y425351D01*
X226232Y425438D01*
X226292Y425522D01*
X226298Y425541D01*
X226309Y425558D01*
X226334Y425658D01*
X226365Y425757D01*
X226364Y425777D01*
X226369Y425796D01*
X226361Y425899D01*
X226358Y426003D01*
X226352Y426021D01*
X226350Y426041D01*
X226310Y426136D01*
X226274Y426234D01*
X226261Y426249D01*
X226254Y426268D01*
X226149Y426399D01*
X225927Y426620D01*
X224535Y429981D01*
X224535Y433619D01*
X225927Y436980D01*
X228500Y439553D01*
X231861Y440945D01*
X250739Y440945D01*
X254100Y439553D01*
X256673Y436980D01*
X258065Y433619D01*
X258065Y429981D01*
X256673Y426620D01*
X254100Y424047D01*
X250739Y422655D01*
X231861Y422655D01*
X231488Y422810D01*
X231374Y422837D01*
X231261Y422865D01*
X231254Y422865D01*
X231248Y422866D01*
X231132Y422855D01*
X231015Y422846D01*
X231010Y422844D01*
X231003Y422843D01*
X230896Y422795D01*
X230789Y422750D01*
X230783Y422745D01*
X230779Y422743D01*
X230765Y422730D01*
X230658Y422645D01*
X175230Y367217D01*
X175177Y367143D01*
X175117Y367073D01*
X175105Y367043D01*
X175086Y367017D01*
X175059Y366930D01*
X175025Y366845D01*
X175021Y366804D01*
X175014Y366782D01*
X175015Y366750D01*
X175007Y366678D01*
X175007Y264004D01*
X175018Y263933D01*
X175020Y263861D01*
X175038Y263812D01*
X175046Y263761D01*
X175080Y263698D01*
X175105Y263630D01*
X175137Y263589D01*
X175162Y263544D01*
X175213Y263494D01*
X175258Y263438D01*
X175302Y263410D01*
X175340Y263374D01*
X175405Y263344D01*
X175465Y263305D01*
X175516Y263292D01*
X175563Y263271D01*
X175634Y263263D01*
X175704Y263245D01*
X175756Y263249D01*
X175807Y263243D01*
X175878Y263259D01*
X175949Y263264D01*
X175997Y263285D01*
X176048Y263296D01*
X176109Y263333D01*
X176175Y263361D01*
X176231Y263405D01*
X176259Y263422D01*
X176274Y263440D01*
X176306Y263465D01*
X232597Y319756D01*
X232638Y319814D01*
X232688Y319866D01*
X232710Y319913D01*
X232740Y319955D01*
X232761Y320024D01*
X232791Y320089D01*
X232797Y320141D01*
X232813Y320191D01*
X232811Y320262D01*
X232819Y320333D01*
X232807Y320384D01*
X232806Y320436D01*
X232782Y320504D01*
X232766Y320574D01*
X232740Y320618D01*
X232722Y320667D01*
X232677Y320723D01*
X232640Y320785D01*
X232601Y320819D01*
X232568Y320859D01*
X232508Y320898D01*
X232453Y320945D01*
X232405Y320964D01*
X232361Y320992D01*
X232292Y321010D01*
X232225Y321037D01*
X232154Y321045D01*
X232123Y321053D01*
X232099Y321051D01*
X232058Y321055D01*
X231861Y321055D01*
X228500Y322447D01*
X225927Y325020D01*
X224535Y328381D01*
X224535Y332019D01*
X225927Y335380D01*
X228500Y337953D01*
X231861Y339345D01*
X250739Y339345D01*
X254100Y337953D01*
X256673Y335380D01*
X258065Y332019D01*
X258065Y328381D01*
X256673Y325020D01*
X254100Y322447D01*
X250739Y321055D01*
X241398Y321055D01*
X241308Y321041D01*
X241217Y321033D01*
X241187Y321021D01*
X241155Y321016D01*
X241074Y320973D01*
X240990Y320937D01*
X240958Y320911D01*
X240938Y320900D01*
X240915Y320877D01*
X240859Y320832D01*
X178786Y258759D01*
X178733Y258685D01*
X178673Y258615D01*
X178661Y258585D01*
X178642Y258559D01*
X178615Y258472D01*
X178581Y258387D01*
X178577Y258346D01*
X178570Y258324D01*
X178571Y258292D01*
X178563Y258220D01*
X178563Y193392D01*
X178577Y193302D01*
X178585Y193211D01*
X178597Y193181D01*
X178602Y193149D01*
X178645Y193068D01*
X178681Y192984D01*
X178707Y192952D01*
X178718Y192932D01*
X178741Y192909D01*
X178786Y192853D01*
X185165Y186474D01*
X185181Y186463D01*
X185194Y186447D01*
X185281Y186391D01*
X185365Y186331D01*
X185384Y186325D01*
X185401Y186314D01*
X185501Y186289D01*
X185600Y186258D01*
X185620Y186259D01*
X185639Y186254D01*
X185742Y186262D01*
X185846Y186265D01*
X185864Y186271D01*
X185884Y186273D01*
X185979Y186313D01*
X186077Y186349D01*
X186092Y186362D01*
X186111Y186369D01*
X186242Y186474D01*
X186712Y186945D01*
X194288Y186945D01*
X199645Y181588D01*
X199645Y174012D01*
X196605Y170972D01*
X196563Y170914D01*
X196514Y170862D01*
X196492Y170815D01*
X196461Y170773D01*
X196440Y170704D01*
X196410Y170639D01*
X196404Y170587D01*
X196389Y170537D01*
X196391Y170466D01*
X196383Y170395D01*
X196394Y170344D01*
X196395Y170292D01*
X196420Y170224D01*
X196435Y170154D01*
X196462Y170109D01*
X196480Y170061D01*
X196525Y170005D01*
X196561Y169943D01*
X196601Y169909D01*
X196633Y169869D01*
X196694Y169830D01*
X196748Y169783D01*
X196797Y169764D01*
X196840Y169736D01*
X196910Y169718D01*
X196976Y169691D01*
X197048Y169683D01*
X197079Y169675D01*
X197102Y169677D01*
X197143Y169673D01*
X201966Y169673D01*
X210565Y161074D01*
X210581Y161063D01*
X210594Y161047D01*
X210681Y160991D01*
X210765Y160931D01*
X210784Y160925D01*
X210801Y160914D01*
X210901Y160889D01*
X211000Y160858D01*
X211020Y160859D01*
X211039Y160854D01*
X211142Y160862D01*
X211246Y160865D01*
X211265Y160871D01*
X211284Y160873D01*
X211379Y160913D01*
X211477Y160949D01*
X211492Y160962D01*
X211511Y160969D01*
X211642Y161074D01*
X212112Y161545D01*
X219688Y161545D01*
X225045Y156188D01*
X225045Y148612D01*
X219688Y143255D01*
X212112Y143255D01*
X206755Y148612D01*
X206755Y156188D01*
X206972Y156404D01*
X206984Y156421D01*
X206999Y156433D01*
X207055Y156520D01*
X207115Y156604D01*
X207121Y156623D01*
X207132Y156640D01*
X207157Y156740D01*
X207188Y156839D01*
X207187Y156859D01*
X207192Y156878D01*
X207184Y156981D01*
X207181Y157085D01*
X207175Y157104D01*
X207173Y157124D01*
X207133Y157219D01*
X207097Y157316D01*
X207084Y157332D01*
X207077Y157350D01*
X206972Y157481D01*
X200085Y164368D01*
X200011Y164421D01*
X199941Y164481D01*
X199911Y164493D01*
X199885Y164512D01*
X199798Y164539D01*
X199713Y164573D01*
X199672Y164577D01*
X199650Y164584D01*
X199618Y164583D01*
X199546Y164591D01*
X186280Y164591D01*
X186190Y164577D01*
X186099Y164569D01*
X186069Y164557D01*
X186037Y164552D01*
X185956Y164509D01*
X185872Y164473D01*
X185840Y164447D01*
X185820Y164436D01*
X185797Y164413D01*
X185741Y164368D01*
X184186Y162813D01*
X182082Y162813D01*
X169925Y174970D01*
X169925Y365408D01*
X169914Y365479D01*
X169912Y365551D01*
X169894Y365600D01*
X169886Y365651D01*
X169852Y365714D01*
X169827Y365782D01*
X169795Y365822D01*
X169770Y365868D01*
X169718Y365918D01*
X169674Y365974D01*
X169630Y366002D01*
X169592Y366038D01*
X169527Y366068D01*
X169467Y366107D01*
X169416Y366120D01*
X169369Y366141D01*
X169298Y366149D01*
X169228Y366167D01*
X169176Y366163D01*
X169125Y366169D01*
X169054Y366153D01*
X168983Y366148D01*
X168935Y366127D01*
X168884Y366116D01*
X168823Y366079D01*
X168757Y366051D01*
X168701Y366007D01*
X168673Y365990D01*
X168658Y365972D01*
X168626Y365947D01*
X146782Y344103D01*
X146736Y344039D01*
X146714Y344016D01*
X146710Y344007D01*
X146669Y343959D01*
X146657Y343929D01*
X146638Y343903D01*
X146611Y343816D01*
X146577Y343731D01*
X146573Y343690D01*
X146566Y343668D01*
X146567Y343636D01*
X146559Y343564D01*
X146559Y129384D01*
X146573Y129294D01*
X146581Y129203D01*
X146593Y129173D01*
X146598Y129141D01*
X146641Y129060D01*
X146677Y128976D01*
X146703Y128944D01*
X146714Y128924D01*
X146737Y128901D01*
X146782Y128845D01*
X185741Y89886D01*
X185815Y89833D01*
X185885Y89773D01*
X185915Y89761D01*
X185941Y89742D01*
X186028Y89715D01*
X186113Y89681D01*
X186154Y89677D01*
X186176Y89670D01*
X186208Y89671D01*
X186280Y89663D01*
X313338Y89663D01*
X313428Y89677D01*
X313519Y89685D01*
X313549Y89697D01*
X313581Y89702D01*
X313662Y89745D01*
X313746Y89781D01*
X313778Y89807D01*
X313798Y89818D01*
X313821Y89841D01*
X313877Y89886D01*
X358991Y135000D01*
X359002Y135016D01*
X359018Y135029D01*
X359074Y135116D01*
X359134Y135200D01*
X359140Y135219D01*
X359151Y135236D01*
X359176Y135336D01*
X359207Y135435D01*
X359206Y135455D01*
X359211Y135474D01*
X359203Y135577D01*
X359200Y135681D01*
X359194Y135699D01*
X359192Y135719D01*
X359155Y135806D01*
X359155Y143488D01*
X364512Y148845D01*
X372088Y148845D01*
X377445Y143488D01*
X377445Y135912D01*
X372088Y130555D01*
X364512Y130555D01*
X363661Y131407D01*
X363644Y131418D01*
X363632Y131434D01*
X363545Y131490D01*
X363461Y131550D01*
X363442Y131556D01*
X363425Y131567D01*
X363324Y131592D01*
X363226Y131623D01*
X363206Y131622D01*
X363186Y131627D01*
X363084Y131619D01*
X362980Y131616D01*
X362961Y131610D01*
X362941Y131608D01*
X362847Y131568D01*
X362749Y131532D01*
X362733Y131519D01*
X362715Y131512D01*
X362584Y131407D01*
X315758Y84581D01*
X223465Y84581D01*
X223395Y84570D01*
X223323Y84568D01*
X223274Y84550D01*
X223223Y84542D01*
X223159Y84508D01*
X223092Y84483D01*
X223051Y84451D01*
X223005Y84426D01*
X222956Y84374D01*
X222900Y84330D01*
X222872Y84286D01*
X222836Y84248D01*
X222806Y84183D01*
X222767Y84123D01*
X222754Y84072D01*
X222732Y84025D01*
X222724Y83954D01*
X222707Y83884D01*
X222711Y83832D01*
X222705Y83781D01*
X222720Y83710D01*
X222726Y83639D01*
X222746Y83591D01*
X222757Y83540D01*
X222794Y83479D01*
X222822Y83413D01*
X222867Y83357D01*
X222884Y83329D01*
X222901Y83314D01*
X222927Y83282D01*
X224001Y82208D01*
X224001Y77812D01*
X220892Y74703D01*
X217296Y74703D01*
X217206Y74689D01*
X217115Y74681D01*
X217085Y74669D01*
X217053Y74664D01*
X216972Y74621D01*
X216888Y74585D01*
X216856Y74559D01*
X216836Y74548D01*
X216813Y74525D01*
X216757Y74480D01*
X164628Y22351D01*
X75402Y22351D01*
G37*
%LPD*%
%LPC*%
G36*
X178526Y571753D02*
X178526Y571753D01*
X177959Y572320D01*
X177885Y572373D01*
X177815Y572433D01*
X177785Y572445D01*
X177759Y572464D01*
X177672Y572491D01*
X177587Y572525D01*
X177546Y572529D01*
X177524Y572536D01*
X177492Y572535D01*
X177420Y572543D01*
X173824Y572543D01*
X170715Y575652D01*
X170715Y580048D01*
X173824Y583157D01*
X178220Y583157D01*
X181329Y580048D01*
X181329Y577596D01*
X181332Y577576D01*
X181330Y577557D01*
X181352Y577455D01*
X181368Y577353D01*
X181378Y577336D01*
X181382Y577316D01*
X181435Y577227D01*
X181484Y577136D01*
X181498Y577122D01*
X181508Y577105D01*
X181587Y577038D01*
X181662Y576966D01*
X181680Y576958D01*
X181695Y576945D01*
X181791Y576906D01*
X181885Y576863D01*
X181905Y576861D01*
X181923Y576853D01*
X182090Y576835D01*
X222813Y576835D01*
X222883Y576846D01*
X222955Y576848D01*
X223004Y576866D01*
X223055Y576874D01*
X223119Y576908D01*
X223186Y576933D01*
X223227Y576965D01*
X223273Y576990D01*
X223322Y577042D01*
X223378Y577086D01*
X223406Y577130D01*
X223442Y577168D01*
X223472Y577233D01*
X223511Y577293D01*
X223524Y577344D01*
X223546Y577391D01*
X223554Y577462D01*
X223571Y577532D01*
X223567Y577584D01*
X223573Y577635D01*
X223558Y577706D01*
X223552Y577777D01*
X223532Y577825D01*
X223521Y577876D01*
X223484Y577937D01*
X223456Y578003D01*
X223411Y578059D01*
X223394Y578087D01*
X223377Y578102D01*
X223351Y578134D01*
X222843Y578642D01*
X222769Y578696D01*
X222699Y578755D01*
X222669Y578767D01*
X222643Y578786D01*
X222556Y578813D01*
X222471Y578847D01*
X222430Y578851D01*
X222408Y578858D01*
X222376Y578857D01*
X222305Y578865D01*
X203418Y578865D01*
X174403Y607880D01*
X174329Y607933D01*
X174259Y607993D01*
X174229Y608005D01*
X174203Y608024D01*
X174116Y608051D01*
X174031Y608085D01*
X173990Y608089D01*
X173968Y608096D01*
X173936Y608095D01*
X173864Y608103D01*
X173824Y608103D01*
X170715Y611212D01*
X170715Y615608D01*
X173824Y618717D01*
X178220Y618717D01*
X181329Y615608D01*
X181329Y611212D01*
X180331Y610214D01*
X180320Y610198D01*
X180304Y610186D01*
X180248Y610099D01*
X180188Y610015D01*
X180182Y609996D01*
X180171Y609979D01*
X180146Y609878D01*
X180115Y609780D01*
X180116Y609760D01*
X180111Y609740D01*
X180119Y609637D01*
X180122Y609534D01*
X180129Y609515D01*
X180130Y609495D01*
X180171Y609400D01*
X180206Y609303D01*
X180219Y609287D01*
X180226Y609269D01*
X180331Y609138D01*
X190752Y598717D01*
X190810Y598676D01*
X190862Y598626D01*
X190909Y598604D01*
X190951Y598574D01*
X191020Y598553D01*
X191085Y598523D01*
X191137Y598517D01*
X191187Y598501D01*
X191258Y598503D01*
X191329Y598495D01*
X191380Y598507D01*
X191432Y598508D01*
X191500Y598532D01*
X191570Y598548D01*
X191614Y598574D01*
X191663Y598592D01*
X191719Y598637D01*
X191781Y598674D01*
X191815Y598713D01*
X191855Y598746D01*
X191894Y598806D01*
X191941Y598861D01*
X191960Y598909D01*
X191988Y598953D01*
X192006Y599022D01*
X192033Y599089D01*
X192041Y599160D01*
X192049Y599191D01*
X192047Y599215D01*
X192051Y599256D01*
X192051Y601384D01*
X195160Y604493D01*
X199556Y604493D01*
X202099Y601950D01*
X202173Y601897D01*
X202243Y601837D01*
X202273Y601825D01*
X202299Y601806D01*
X202386Y601779D01*
X202471Y601745D01*
X202512Y601741D01*
X202534Y601734D01*
X202566Y601735D01*
X202637Y601727D01*
X242860Y601727D01*
X256861Y587726D01*
X256935Y587673D01*
X257005Y587613D01*
X257035Y587601D01*
X257061Y587582D01*
X257148Y587555D01*
X257233Y587521D01*
X257274Y587517D01*
X257296Y587510D01*
X257328Y587511D01*
X257400Y587503D01*
X298759Y587503D01*
X298849Y587517D01*
X298940Y587525D01*
X298969Y587537D01*
X299001Y587542D01*
X299082Y587585D01*
X299166Y587621D01*
X299198Y587647D01*
X299219Y587658D01*
X299241Y587681D01*
X299297Y587726D01*
X301840Y590269D01*
X306236Y590269D01*
X309345Y587160D01*
X309345Y585032D01*
X309356Y584961D01*
X309358Y584889D01*
X309376Y584840D01*
X309384Y584789D01*
X309418Y584726D01*
X309443Y584658D01*
X309475Y584618D01*
X309500Y584572D01*
X309552Y584522D01*
X309596Y584466D01*
X309640Y584438D01*
X309678Y584402D01*
X309743Y584372D01*
X309803Y584333D01*
X309854Y584320D01*
X309901Y584299D01*
X309972Y584291D01*
X310042Y584273D01*
X310094Y584277D01*
X310145Y584271D01*
X310216Y584287D01*
X310287Y584292D01*
X310335Y584313D01*
X310386Y584324D01*
X310447Y584361D01*
X310513Y584389D01*
X310569Y584433D01*
X310597Y584450D01*
X310612Y584468D01*
X310644Y584493D01*
X313654Y587503D01*
X487227Y587503D01*
X487317Y587517D01*
X487408Y587525D01*
X487437Y587537D01*
X487469Y587542D01*
X487550Y587585D01*
X487634Y587621D01*
X487666Y587647D01*
X487687Y587658D01*
X487709Y587681D01*
X487765Y587726D01*
X490308Y590269D01*
X494704Y590269D01*
X497813Y587160D01*
X497813Y582764D01*
X494704Y579655D01*
X490308Y579655D01*
X487765Y582198D01*
X487691Y582251D01*
X487621Y582311D01*
X487591Y582323D01*
X487565Y582342D01*
X487478Y582369D01*
X487393Y582403D01*
X487352Y582407D01*
X487330Y582414D01*
X487298Y582413D01*
X487227Y582421D01*
X316074Y582421D01*
X315984Y582407D01*
X315893Y582399D01*
X315863Y582387D01*
X315831Y582382D01*
X315750Y582339D01*
X315666Y582303D01*
X315634Y582277D01*
X315614Y582266D01*
X315591Y582243D01*
X315535Y582198D01*
X305090Y571753D01*
X178526Y571753D01*
G37*
%LPD*%
%LPC*%
G36*
X212112Y117855D02*
X212112Y117855D01*
X206755Y123212D01*
X206755Y130788D01*
X212112Y136145D01*
X219688Y136145D01*
X220031Y135801D01*
X220048Y135790D01*
X220060Y135774D01*
X220147Y135718D01*
X220231Y135658D01*
X220250Y135652D01*
X220267Y135641D01*
X220368Y135616D01*
X220466Y135585D01*
X220486Y135586D01*
X220506Y135581D01*
X220608Y135589D01*
X220712Y135592D01*
X220731Y135598D01*
X220751Y135600D01*
X220845Y135640D01*
X220943Y135676D01*
X220959Y135689D01*
X220977Y135696D01*
X221108Y135801D01*
X290606Y205299D01*
X292318Y207011D01*
X489419Y207011D01*
X489490Y207022D01*
X489561Y207024D01*
X489610Y207042D01*
X489662Y207050D01*
X489725Y207084D01*
X489792Y207109D01*
X489833Y207141D01*
X489879Y207166D01*
X489928Y207218D01*
X489984Y207262D01*
X490013Y207306D01*
X490048Y207344D01*
X490079Y207409D01*
X490117Y207469D01*
X490130Y207520D01*
X490152Y207567D01*
X490160Y207638D01*
X490177Y207708D01*
X490173Y207760D01*
X490179Y207811D01*
X490164Y207882D01*
X490158Y207953D01*
X490138Y208001D01*
X490127Y208052D01*
X490090Y208113D01*
X490062Y208179D01*
X490017Y208235D01*
X490001Y208263D01*
X489983Y208278D01*
X489957Y208310D01*
X486155Y212112D01*
X486155Y219688D01*
X491512Y225045D01*
X499088Y225045D01*
X504445Y219688D01*
X504445Y212112D01*
X500643Y208310D01*
X500601Y208252D01*
X500552Y208200D01*
X500530Y208153D01*
X500499Y208111D01*
X500478Y208042D01*
X500448Y207977D01*
X500442Y207925D01*
X500427Y207875D01*
X500429Y207804D01*
X500421Y207733D01*
X500432Y207682D01*
X500433Y207630D01*
X500458Y207562D01*
X500473Y207492D01*
X500500Y207447D01*
X500518Y207399D01*
X500563Y207343D01*
X500599Y207281D01*
X500639Y207247D01*
X500671Y207207D01*
X500732Y207168D01*
X500786Y207121D01*
X500835Y207102D01*
X500878Y207074D01*
X500948Y207056D01*
X501014Y207029D01*
X501086Y207021D01*
X501117Y207013D01*
X501140Y207015D01*
X501181Y207011D01*
X507782Y207011D01*
X515492Y199301D01*
X515508Y199290D01*
X515521Y199274D01*
X515608Y199218D01*
X515692Y199158D01*
X515711Y199152D01*
X515728Y199141D01*
X515828Y199116D01*
X515927Y199085D01*
X515947Y199086D01*
X515966Y199081D01*
X516069Y199089D01*
X516173Y199092D01*
X516191Y199098D01*
X516211Y199100D01*
X516306Y199140D01*
X516404Y199176D01*
X516419Y199189D01*
X516438Y199196D01*
X516569Y199301D01*
X516912Y199645D01*
X524488Y199645D01*
X529845Y194288D01*
X529845Y186712D01*
X524488Y181355D01*
X516912Y181355D01*
X511555Y186712D01*
X511555Y194288D01*
X511899Y194631D01*
X511910Y194648D01*
X511926Y194660D01*
X511957Y194708D01*
X511965Y194716D01*
X511972Y194731D01*
X511982Y194747D01*
X512042Y194831D01*
X512048Y194850D01*
X512059Y194867D01*
X512084Y194968D01*
X512115Y195066D01*
X512114Y195086D01*
X512119Y195106D01*
X512111Y195208D01*
X512108Y195312D01*
X512102Y195331D01*
X512100Y195351D01*
X512060Y195445D01*
X512024Y195543D01*
X512011Y195559D01*
X512004Y195577D01*
X511899Y195708D01*
X505901Y201706D01*
X505827Y201759D01*
X505757Y201819D01*
X505727Y201831D01*
X505701Y201850D01*
X505614Y201877D01*
X505529Y201911D01*
X505488Y201915D01*
X505466Y201922D01*
X505434Y201921D01*
X505362Y201929D01*
X370763Y201929D01*
X370700Y201919D01*
X370636Y201919D01*
X370579Y201899D01*
X370520Y201890D01*
X370464Y201860D01*
X370403Y201839D01*
X370356Y201802D01*
X370303Y201774D01*
X370259Y201728D01*
X370208Y201689D01*
X370175Y201639D01*
X370133Y201596D01*
X370106Y201538D01*
X370071Y201485D01*
X370055Y201427D01*
X370030Y201373D01*
X370023Y201309D01*
X370006Y201248D01*
X370009Y201188D01*
X370003Y201129D01*
X370016Y201066D01*
X370020Y201002D01*
X370042Y200947D01*
X370055Y200888D01*
X370088Y200833D01*
X370112Y200774D01*
X370150Y200728D01*
X370181Y200677D01*
X370230Y200636D01*
X370271Y200587D01*
X370323Y200556D01*
X370368Y200517D01*
X370427Y200493D01*
X370482Y200460D01*
X370566Y200438D01*
X370596Y200425D01*
X370621Y200423D01*
X370644Y200416D01*
X370679Y200411D01*
X372200Y199916D01*
X373625Y199190D01*
X374919Y198250D01*
X376050Y197119D01*
X376990Y195825D01*
X377716Y194400D01*
X378211Y192879D01*
X378346Y192023D01*
X369062Y192023D01*
X369042Y192020D01*
X369023Y192022D01*
X368921Y192000D01*
X368819Y191983D01*
X368802Y191974D01*
X368782Y191970D01*
X368693Y191917D01*
X368602Y191868D01*
X368588Y191854D01*
X368571Y191844D01*
X368504Y191765D01*
X368433Y191690D01*
X368424Y191672D01*
X368411Y191657D01*
X368373Y191561D01*
X368329Y191467D01*
X368327Y191447D01*
X368319Y191429D01*
X368301Y191262D01*
X368301Y190499D01*
X368299Y190499D01*
X368299Y191262D01*
X368296Y191282D01*
X368298Y191301D01*
X368276Y191403D01*
X368259Y191505D01*
X368250Y191522D01*
X368246Y191542D01*
X368193Y191631D01*
X368144Y191722D01*
X368130Y191736D01*
X368120Y191753D01*
X368041Y191820D01*
X367966Y191891D01*
X367948Y191900D01*
X367933Y191913D01*
X367837Y191952D01*
X367743Y191995D01*
X367723Y191997D01*
X367705Y192005D01*
X367538Y192023D01*
X358254Y192023D01*
X358389Y192879D01*
X358884Y194400D01*
X359610Y195825D01*
X360550Y197119D01*
X361681Y198250D01*
X362975Y199190D01*
X364400Y199916D01*
X365921Y200411D01*
X365956Y200416D01*
X366017Y200436D01*
X366080Y200447D01*
X366133Y200474D01*
X366190Y200493D01*
X366241Y200532D01*
X366297Y200562D01*
X366338Y200605D01*
X366386Y200641D01*
X366423Y200694D01*
X366467Y200740D01*
X366492Y200794D01*
X366526Y200844D01*
X366543Y200905D01*
X366570Y200963D01*
X366577Y201022D01*
X366593Y201080D01*
X366590Y201144D01*
X366597Y201207D01*
X366585Y201266D01*
X366582Y201326D01*
X366559Y201385D01*
X366545Y201448D01*
X366514Y201499D01*
X366493Y201555D01*
X366452Y201604D01*
X366419Y201659D01*
X366373Y201698D01*
X366335Y201744D01*
X366281Y201777D01*
X366232Y201819D01*
X366176Y201841D01*
X366125Y201873D01*
X366063Y201887D01*
X366004Y201911D01*
X365918Y201920D01*
X365886Y201928D01*
X365861Y201927D01*
X365837Y201929D01*
X294738Y201929D01*
X294648Y201915D01*
X294557Y201907D01*
X294527Y201895D01*
X294495Y201890D01*
X294414Y201847D01*
X294330Y201811D01*
X294298Y201785D01*
X294278Y201774D01*
X294255Y201751D01*
X294199Y201706D01*
X224701Y132208D01*
X224690Y132192D01*
X224674Y132179D01*
X224618Y132092D01*
X224558Y132008D01*
X224552Y131989D01*
X224541Y131972D01*
X224516Y131872D01*
X224485Y131773D01*
X224486Y131753D01*
X224481Y131734D01*
X224489Y131631D01*
X224492Y131527D01*
X224498Y131509D01*
X224500Y131489D01*
X224540Y131394D01*
X224576Y131296D01*
X224589Y131281D01*
X224596Y131262D01*
X224701Y131131D01*
X225045Y130788D01*
X225045Y123212D01*
X219688Y117855D01*
X212112Y117855D01*
G37*
%LPD*%
%LPC*%
G36*
X212112Y219455D02*
X212112Y219455D01*
X206755Y224812D01*
X206755Y232388D01*
X212234Y237867D01*
X212296Y237900D01*
X212310Y237914D01*
X212327Y237924D01*
X212394Y238003D01*
X212466Y238078D01*
X212474Y238096D01*
X212487Y238111D01*
X212526Y238207D01*
X212569Y238301D01*
X212571Y238321D01*
X212579Y238339D01*
X212597Y238506D01*
X212597Y278420D01*
X319054Y384877D01*
X319107Y384951D01*
X319167Y385021D01*
X319179Y385051D01*
X319198Y385077D01*
X319225Y385164D01*
X319259Y385249D01*
X319263Y385290D01*
X319270Y385312D01*
X319269Y385344D01*
X319277Y385416D01*
X319277Y417104D01*
X327622Y425449D01*
X327633Y425465D01*
X327649Y425478D01*
X327705Y425565D01*
X327765Y425649D01*
X327771Y425668D01*
X327782Y425685D01*
X327807Y425785D01*
X327838Y425884D01*
X327837Y425904D01*
X327842Y425923D01*
X327834Y426026D01*
X327831Y426130D01*
X327825Y426148D01*
X327823Y426168D01*
X327783Y426263D01*
X327747Y426361D01*
X327734Y426376D01*
X327727Y426395D01*
X327622Y426526D01*
X327527Y426620D01*
X326135Y429981D01*
X326135Y433619D01*
X327527Y436980D01*
X330100Y439553D01*
X333461Y440945D01*
X352339Y440945D01*
X355700Y439553D01*
X358273Y436980D01*
X359665Y433619D01*
X359665Y429981D01*
X358273Y426620D01*
X355700Y424047D01*
X352339Y422655D01*
X333461Y422655D01*
X332908Y422884D01*
X332794Y422911D01*
X332681Y422940D01*
X332675Y422939D01*
X332669Y422940D01*
X332552Y422930D01*
X332436Y422920D01*
X332430Y422918D01*
X332424Y422917D01*
X332317Y422870D01*
X332209Y422824D01*
X332204Y422819D01*
X332199Y422817D01*
X332185Y422805D01*
X332078Y422719D01*
X324582Y415223D01*
X324529Y415149D01*
X324469Y415079D01*
X324457Y415049D01*
X324438Y415023D01*
X324411Y414936D01*
X324377Y414851D01*
X324373Y414810D01*
X324366Y414788D01*
X324367Y414756D01*
X324359Y414684D01*
X324359Y382996D01*
X217902Y276539D01*
X217849Y276465D01*
X217789Y276395D01*
X217777Y276365D01*
X217758Y276339D01*
X217731Y276252D01*
X217697Y276167D01*
X217693Y276126D01*
X217686Y276104D01*
X217687Y276072D01*
X217679Y276000D01*
X217679Y238506D01*
X217680Y238498D01*
X217680Y238496D01*
X217682Y238486D01*
X217680Y238467D01*
X217702Y238365D01*
X217718Y238263D01*
X217728Y238246D01*
X217732Y238226D01*
X217785Y238137D01*
X217834Y238046D01*
X217848Y238032D01*
X217858Y238015D01*
X217937Y237948D01*
X218012Y237876D01*
X218030Y237868D01*
X218045Y237855D01*
X218141Y237816D01*
X218235Y237773D01*
X218255Y237771D01*
X218273Y237763D01*
X218440Y237745D01*
X219688Y237745D01*
X225045Y232388D01*
X225045Y224812D01*
X219688Y219455D01*
X212112Y219455D01*
G37*
%LPD*%
%LPC*%
G36*
X301840Y592101D02*
X301840Y592101D01*
X299297Y594644D01*
X299223Y594697D01*
X299153Y594757D01*
X299123Y594769D01*
X299097Y594788D01*
X299010Y594815D01*
X298925Y594849D01*
X298884Y594853D01*
X298862Y594860D01*
X298830Y594859D01*
X298759Y594867D01*
X263870Y594867D01*
X207197Y651540D01*
X207123Y651593D01*
X207053Y651653D01*
X207023Y651665D01*
X206997Y651684D01*
X206910Y651711D01*
X206825Y651745D01*
X206784Y651749D01*
X206762Y651756D01*
X206730Y651755D01*
X206658Y651763D01*
X181301Y651763D01*
X181211Y651749D01*
X181120Y651741D01*
X181091Y651729D01*
X181059Y651724D01*
X180978Y651681D01*
X180894Y651645D01*
X180862Y651619D01*
X180841Y651608D01*
X180819Y651585D01*
X180763Y651540D01*
X178220Y648997D01*
X173824Y648997D01*
X170715Y652106D01*
X170715Y656502D01*
X173824Y659611D01*
X178220Y659611D01*
X180763Y657068D01*
X180837Y657015D01*
X180907Y656955D01*
X180937Y656943D01*
X180963Y656924D01*
X181050Y656897D01*
X181135Y656863D01*
X181176Y656859D01*
X181198Y656852D01*
X181230Y656853D01*
X181301Y656845D01*
X209078Y656845D01*
X265751Y600172D01*
X265825Y600119D01*
X265895Y600059D01*
X265925Y600047D01*
X265951Y600028D01*
X266038Y600001D01*
X266123Y599967D01*
X266164Y599963D01*
X266186Y599956D01*
X266218Y599957D01*
X266290Y599949D01*
X298759Y599949D01*
X298849Y599963D01*
X298940Y599971D01*
X298969Y599983D01*
X299001Y599988D01*
X299082Y600031D01*
X299166Y600067D01*
X299198Y600093D01*
X299219Y600104D01*
X299241Y600127D01*
X299297Y600172D01*
X301840Y602715D01*
X306236Y602715D01*
X308779Y600172D01*
X308853Y600119D01*
X308923Y600059D01*
X308953Y600047D01*
X308979Y600028D01*
X309066Y600001D01*
X309151Y599967D01*
X309192Y599963D01*
X309214Y599956D01*
X309246Y599957D01*
X309317Y599949D01*
X480115Y599949D01*
X480205Y599963D01*
X480296Y599971D01*
X480325Y599983D01*
X480357Y599988D01*
X480438Y600031D01*
X480522Y600067D01*
X480554Y600093D01*
X480575Y600104D01*
X480597Y600127D01*
X480653Y600172D01*
X483196Y602715D01*
X487592Y602715D01*
X490701Y599606D01*
X490701Y595210D01*
X487592Y592101D01*
X483196Y592101D01*
X480653Y594644D01*
X480579Y594697D01*
X480509Y594757D01*
X480479Y594769D01*
X480453Y594788D01*
X480366Y594815D01*
X480281Y594849D01*
X480240Y594853D01*
X480218Y594860D01*
X480186Y594859D01*
X480115Y594867D01*
X309317Y594867D01*
X309227Y594853D01*
X309136Y594845D01*
X309107Y594833D01*
X309075Y594828D01*
X308994Y594785D01*
X308910Y594749D01*
X308878Y594723D01*
X308857Y594712D01*
X308835Y594689D01*
X308779Y594644D01*
X306236Y592101D01*
X301840Y592101D01*
G37*
%LPD*%
%LPC*%
G36*
X225386Y264949D02*
X225386Y264949D01*
X222277Y268058D01*
X222277Y272454D01*
X225386Y275563D01*
X228982Y275563D01*
X229072Y275577D01*
X229163Y275585D01*
X229193Y275597D01*
X229225Y275602D01*
X229306Y275645D01*
X229390Y275681D01*
X229422Y275707D01*
X229442Y275718D01*
X229465Y275741D01*
X229521Y275786D01*
X328003Y374268D01*
X328015Y374284D01*
X328030Y374297D01*
X328059Y374341D01*
X328087Y374371D01*
X328106Y374411D01*
X328146Y374468D01*
X328152Y374487D01*
X328163Y374504D01*
X328180Y374571D01*
X328191Y374594D01*
X328194Y374622D01*
X328219Y374703D01*
X328218Y374723D01*
X328223Y374742D01*
X328217Y374826D01*
X328218Y374839D01*
X328215Y374853D01*
X328212Y374949D01*
X328206Y374967D01*
X328204Y374987D01*
X328167Y375075D01*
X328166Y375079D01*
X328163Y375084D01*
X328128Y375180D01*
X328115Y375195D01*
X328108Y375214D01*
X328003Y375345D01*
X327527Y375820D01*
X326135Y379181D01*
X326135Y382819D01*
X327527Y386180D01*
X330100Y388753D01*
X333461Y390145D01*
X352339Y390145D01*
X355700Y388753D01*
X358273Y386180D01*
X359665Y382819D01*
X359665Y379181D01*
X358273Y375820D01*
X355700Y373247D01*
X352339Y371855D01*
X333461Y371855D01*
X333447Y371861D01*
X333334Y371888D01*
X333220Y371916D01*
X333214Y371916D01*
X333207Y371917D01*
X333091Y371906D01*
X332975Y371897D01*
X332969Y371895D01*
X332963Y371894D01*
X332855Y371846D01*
X332748Y371801D01*
X332742Y371796D01*
X332738Y371794D01*
X332724Y371782D01*
X332617Y371696D01*
X233114Y272193D01*
X233061Y272119D01*
X233001Y272049D01*
X232989Y272019D01*
X232970Y271993D01*
X232943Y271906D01*
X232909Y271821D01*
X232905Y271780D01*
X232898Y271758D01*
X232899Y271726D01*
X232891Y271654D01*
X232891Y268058D01*
X229782Y264949D01*
X225386Y264949D01*
G37*
%LPD*%
%LPC*%
G36*
X333461Y448055D02*
X333461Y448055D01*
X330100Y449447D01*
X327527Y452020D01*
X326135Y455381D01*
X326135Y459019D01*
X327527Y462380D01*
X330100Y464953D01*
X333461Y466345D01*
X352339Y466345D01*
X355700Y464953D01*
X358273Y462380D01*
X359665Y459019D01*
X359665Y455381D01*
X358273Y452020D01*
X355700Y449447D01*
X352339Y448055D01*
X333461Y448055D01*
G37*
%LPD*%
%LPC*%
G36*
X231861Y397255D02*
X231861Y397255D01*
X228500Y398647D01*
X225927Y401220D01*
X224535Y404581D01*
X224535Y408219D01*
X225927Y411580D01*
X228500Y414153D01*
X231861Y415545D01*
X250739Y415545D01*
X254100Y414153D01*
X256673Y411580D01*
X258065Y408219D01*
X258065Y404581D01*
X256673Y401220D01*
X254100Y398647D01*
X250739Y397255D01*
X231861Y397255D01*
G37*
%LPD*%
%LPC*%
G36*
X333461Y397255D02*
X333461Y397255D01*
X330100Y398647D01*
X327527Y401220D01*
X326135Y404581D01*
X326135Y408219D01*
X327527Y411580D01*
X330100Y414153D01*
X333461Y415545D01*
X352339Y415545D01*
X355700Y414153D01*
X358273Y411580D01*
X359665Y408219D01*
X359665Y404581D01*
X358273Y401220D01*
X355700Y398647D01*
X352339Y397255D01*
X333461Y397255D01*
G37*
%LPD*%
%LPC*%
G36*
X231861Y371855D02*
X231861Y371855D01*
X228500Y373247D01*
X225927Y375820D01*
X224535Y379181D01*
X224535Y382819D01*
X225927Y386180D01*
X228500Y388753D01*
X231861Y390145D01*
X250739Y390145D01*
X254100Y388753D01*
X256673Y386180D01*
X258065Y382819D01*
X258065Y379181D01*
X256673Y375820D01*
X254100Y373247D01*
X250739Y371855D01*
X231861Y371855D01*
G37*
%LPD*%
%LPC*%
G36*
X277581Y46735D02*
X277581Y46735D01*
X274220Y48127D01*
X271647Y50700D01*
X270255Y54061D01*
X270255Y72939D01*
X271647Y76300D01*
X274220Y78873D01*
X277581Y80265D01*
X281219Y80265D01*
X284580Y78873D01*
X287153Y76300D01*
X288545Y72939D01*
X288545Y54061D01*
X287153Y50700D01*
X284580Y48127D01*
X281219Y46735D01*
X277581Y46735D01*
G37*
%LPD*%
%LPC*%
G36*
X333461Y321055D02*
X333461Y321055D01*
X330100Y322447D01*
X327527Y325020D01*
X326135Y328381D01*
X326135Y332019D01*
X327527Y335380D01*
X330100Y337953D01*
X333461Y339345D01*
X352339Y339345D01*
X355700Y337953D01*
X358273Y335380D01*
X359665Y332019D01*
X359665Y328381D01*
X358273Y325020D01*
X355700Y322447D01*
X352339Y321055D01*
X333461Y321055D01*
G37*
%LPD*%
%LPC*%
G36*
X231861Y346455D02*
X231861Y346455D01*
X228500Y347847D01*
X225927Y350420D01*
X224535Y353781D01*
X224535Y357419D01*
X225927Y360780D01*
X228500Y363353D01*
X231861Y364745D01*
X250739Y364745D01*
X254100Y363353D01*
X256673Y360780D01*
X258065Y357419D01*
X258065Y353781D01*
X256673Y350420D01*
X254100Y347847D01*
X250739Y346455D01*
X231861Y346455D01*
G37*
%LPD*%
%LPC*%
G36*
X333461Y295655D02*
X333461Y295655D01*
X330100Y297047D01*
X327527Y299620D01*
X326135Y302981D01*
X326135Y306619D01*
X327527Y309980D01*
X330100Y312553D01*
X333461Y313945D01*
X352339Y313945D01*
X355700Y312553D01*
X358273Y309980D01*
X359665Y306619D01*
X359665Y302981D01*
X358273Y299620D01*
X355700Y297047D01*
X352339Y295655D01*
X333461Y295655D01*
G37*
%LPD*%
%LPC*%
G36*
X516912Y130555D02*
X516912Y130555D01*
X511555Y135912D01*
X511555Y143488D01*
X516912Y148845D01*
X524488Y148845D01*
X529845Y143488D01*
X529845Y135912D01*
X524488Y130555D01*
X516912Y130555D01*
G37*
%LPD*%
%LPC*%
G36*
X85112Y257555D02*
X85112Y257555D01*
X79755Y262912D01*
X79755Y270488D01*
X85112Y275845D01*
X92688Y275845D01*
X98045Y270488D01*
X98045Y262912D01*
X92688Y257555D01*
X85112Y257555D01*
G37*
%LPD*%
%LPC*%
G36*
X186712Y117855D02*
X186712Y117855D01*
X181355Y123212D01*
X181355Y130788D01*
X186712Y136145D01*
X194288Y136145D01*
X199645Y130788D01*
X199645Y123212D01*
X194288Y117855D01*
X186712Y117855D01*
G37*
%LPD*%
%LPC*%
G36*
X516912Y105155D02*
X516912Y105155D01*
X511555Y110512D01*
X511555Y118088D01*
X516912Y123445D01*
X524488Y123445D01*
X529845Y118088D01*
X529845Y110512D01*
X524488Y105155D01*
X516912Y105155D01*
G37*
%LPD*%
%LPC*%
G36*
X491512Y105155D02*
X491512Y105155D01*
X486155Y110512D01*
X486155Y118088D01*
X491512Y123445D01*
X499088Y123445D01*
X504445Y118088D01*
X504445Y110512D01*
X499088Y105155D01*
X491512Y105155D01*
G37*
%LPD*%
%LPC*%
G36*
X85112Y105155D02*
X85112Y105155D01*
X79755Y110512D01*
X79755Y118088D01*
X85112Y123445D01*
X92688Y123445D01*
X98045Y118088D01*
X98045Y110512D01*
X92688Y105155D01*
X85112Y105155D01*
G37*
%LPD*%
%LPC*%
G36*
X59712Y105155D02*
X59712Y105155D01*
X54355Y110512D01*
X54355Y118088D01*
X59712Y123445D01*
X67288Y123445D01*
X72645Y118088D01*
X72645Y110512D01*
X67288Y105155D01*
X59712Y105155D01*
G37*
%LPD*%
%LPC*%
G36*
X491512Y257555D02*
X491512Y257555D01*
X486155Y262912D01*
X486155Y270488D01*
X491512Y275845D01*
X499088Y275845D01*
X504445Y270488D01*
X504445Y262912D01*
X499088Y257555D01*
X491512Y257555D01*
G37*
%LPD*%
%LPC*%
G36*
X59712Y257555D02*
X59712Y257555D01*
X54355Y262912D01*
X54355Y270488D01*
X59712Y275845D01*
X67288Y275845D01*
X72645Y270488D01*
X72645Y262912D01*
X67288Y257555D01*
X59712Y257555D01*
G37*
%LPD*%
%LPC*%
G36*
X186712Y92455D02*
X186712Y92455D01*
X181355Y97812D01*
X181355Y105388D01*
X186712Y110745D01*
X194288Y110745D01*
X199645Y105388D01*
X199645Y97812D01*
X194288Y92455D01*
X186712Y92455D01*
G37*
%LPD*%
%LPC*%
G36*
X212112Y92455D02*
X212112Y92455D01*
X206755Y97812D01*
X206755Y105388D01*
X212112Y110745D01*
X219688Y110745D01*
X225045Y105388D01*
X225045Y97812D01*
X219688Y92455D01*
X212112Y92455D01*
G37*
%LPD*%
%LPC*%
G36*
X516912Y79755D02*
X516912Y79755D01*
X511555Y85112D01*
X511555Y92688D01*
X516912Y98045D01*
X524488Y98045D01*
X529845Y92688D01*
X529845Y85112D01*
X524488Y79755D01*
X516912Y79755D01*
G37*
%LPD*%
%LPC*%
G36*
X59712Y79755D02*
X59712Y79755D01*
X54355Y85112D01*
X54355Y92688D01*
X59712Y98045D01*
X67288Y98045D01*
X72645Y92688D01*
X72645Y85112D01*
X67288Y79755D01*
X59712Y79755D01*
G37*
%LPD*%
%LPC*%
G36*
X85112Y79755D02*
X85112Y79755D01*
X79755Y85112D01*
X79755Y92688D01*
X85112Y98045D01*
X92688Y98045D01*
X98045Y92688D01*
X98045Y85112D01*
X92688Y79755D01*
X85112Y79755D01*
G37*
%LPD*%
%LPC*%
G36*
X491512Y79755D02*
X491512Y79755D01*
X486155Y85112D01*
X486155Y92688D01*
X491512Y98045D01*
X499088Y98045D01*
X504445Y92688D01*
X504445Y85112D01*
X499088Y79755D01*
X491512Y79755D01*
G37*
%LPD*%
%LPC*%
G36*
X491512Y232155D02*
X491512Y232155D01*
X486155Y237512D01*
X486155Y245088D01*
X491512Y250445D01*
X499088Y250445D01*
X504445Y245088D01*
X504445Y237512D01*
X499088Y232155D01*
X491512Y232155D01*
G37*
%LPD*%
%LPC*%
G36*
X516912Y232155D02*
X516912Y232155D01*
X511555Y237512D01*
X511555Y245088D01*
X516912Y250445D01*
X524488Y250445D01*
X529845Y245088D01*
X529845Y237512D01*
X524488Y232155D01*
X516912Y232155D01*
G37*
%LPD*%
%LPC*%
G36*
X59712Y232155D02*
X59712Y232155D01*
X54355Y237512D01*
X54355Y245088D01*
X59712Y250445D01*
X67288Y250445D01*
X72645Y245088D01*
X72645Y237512D01*
X67288Y232155D01*
X59712Y232155D01*
G37*
%LPD*%
%LPC*%
G36*
X491512Y28955D02*
X491512Y28955D01*
X486155Y34312D01*
X486155Y41888D01*
X491512Y47245D01*
X499088Y47245D01*
X504445Y41888D01*
X504445Y34312D01*
X499088Y28955D01*
X491512Y28955D01*
G37*
%LPD*%
%LPC*%
G36*
X516912Y54355D02*
X516912Y54355D01*
X511555Y59712D01*
X511555Y67288D01*
X516912Y72645D01*
X524488Y72645D01*
X529845Y67288D01*
X529845Y59712D01*
X524488Y54355D01*
X516912Y54355D01*
G37*
%LPD*%
%LPC*%
G36*
X491512Y54355D02*
X491512Y54355D01*
X486155Y59712D01*
X486155Y67288D01*
X491512Y72645D01*
X499088Y72645D01*
X504445Y67288D01*
X504445Y59712D01*
X499088Y54355D01*
X491512Y54355D01*
G37*
%LPD*%
%LPC*%
G36*
X186712Y219455D02*
X186712Y219455D01*
X181355Y224812D01*
X181355Y232388D01*
X186712Y237745D01*
X194288Y237745D01*
X199645Y232388D01*
X199645Y224812D01*
X194288Y219455D01*
X186712Y219455D01*
G37*
%LPD*%
%LPC*%
G36*
X516912Y206755D02*
X516912Y206755D01*
X511555Y212112D01*
X511555Y219688D01*
X516912Y225045D01*
X524488Y225045D01*
X529845Y219688D01*
X529845Y212112D01*
X524488Y206755D01*
X516912Y206755D01*
G37*
%LPD*%
%LPC*%
G36*
X85112Y206755D02*
X85112Y206755D01*
X79755Y212112D01*
X79755Y219688D01*
X85112Y225045D01*
X92688Y225045D01*
X98045Y219688D01*
X98045Y212112D01*
X92688Y206755D01*
X85112Y206755D01*
G37*
%LPD*%
%LPC*%
G36*
X59712Y206755D02*
X59712Y206755D01*
X54355Y212112D01*
X54355Y219688D01*
X59712Y225045D01*
X67288Y225045D01*
X72645Y219688D01*
X72645Y212112D01*
X67288Y206755D01*
X59712Y206755D01*
G37*
%LPD*%
%LPC*%
G36*
X85112Y54355D02*
X85112Y54355D01*
X79755Y59712D01*
X79755Y67288D01*
X85112Y72645D01*
X92688Y72645D01*
X98045Y67288D01*
X98045Y59712D01*
X92688Y54355D01*
X85112Y54355D01*
G37*
%LPD*%
%LPC*%
G36*
X59712Y54355D02*
X59712Y54355D01*
X54355Y59712D01*
X54355Y67288D01*
X59712Y72645D01*
X67288Y72645D01*
X72645Y67288D01*
X72645Y59712D01*
X67288Y54355D01*
X59712Y54355D01*
G37*
%LPD*%
%LPC*%
G36*
X186712Y194055D02*
X186712Y194055D01*
X181355Y199412D01*
X181355Y206988D01*
X186712Y212345D01*
X194288Y212345D01*
X199645Y206988D01*
X199645Y199412D01*
X194288Y194055D01*
X186712Y194055D01*
G37*
%LPD*%
%LPC*%
G36*
X85112Y28955D02*
X85112Y28955D01*
X79755Y34312D01*
X79755Y41888D01*
X85112Y47245D01*
X92688Y47245D01*
X98045Y41888D01*
X98045Y34312D01*
X92688Y28955D01*
X85112Y28955D01*
G37*
%LPD*%
%LPC*%
G36*
X516912Y28955D02*
X516912Y28955D01*
X511555Y34312D01*
X511555Y41888D01*
X516912Y47245D01*
X524488Y47245D01*
X529845Y41888D01*
X529845Y34312D01*
X524488Y28955D01*
X516912Y28955D01*
G37*
%LPD*%
%LPC*%
G36*
X59712Y181355D02*
X59712Y181355D01*
X54355Y186712D01*
X54355Y194288D01*
X59712Y199645D01*
X67288Y199645D01*
X72645Y194288D01*
X72645Y186712D01*
X67288Y181355D01*
X59712Y181355D01*
G37*
%LPD*%
%LPC*%
G36*
X85112Y181355D02*
X85112Y181355D01*
X79755Y186712D01*
X79755Y194288D01*
X85112Y199645D01*
X92688Y199645D01*
X98045Y194288D01*
X98045Y186712D01*
X92688Y181355D01*
X85112Y181355D01*
G37*
%LPD*%
%LPC*%
G36*
X389912Y181355D02*
X389912Y181355D01*
X384555Y186712D01*
X384555Y194288D01*
X389912Y199645D01*
X397488Y199645D01*
X402845Y194288D01*
X402845Y186712D01*
X397488Y181355D01*
X389912Y181355D01*
G37*
%LPD*%
%LPC*%
G36*
X491512Y181355D02*
X491512Y181355D01*
X486155Y186712D01*
X486155Y194288D01*
X491512Y199645D01*
X499088Y199645D01*
X504445Y194288D01*
X504445Y186712D01*
X499088Y181355D01*
X491512Y181355D01*
G37*
%LPD*%
%LPC*%
G36*
X212112Y168655D02*
X212112Y168655D01*
X206755Y174012D01*
X206755Y181588D01*
X212112Y186945D01*
X219688Y186945D01*
X225045Y181588D01*
X225045Y174012D01*
X219688Y168655D01*
X212112Y168655D01*
G37*
%LPD*%
%LPC*%
G36*
X59712Y155955D02*
X59712Y155955D01*
X54355Y161312D01*
X54355Y168888D01*
X59712Y174245D01*
X67288Y174245D01*
X72645Y168888D01*
X72645Y161312D01*
X67288Y155955D01*
X59712Y155955D01*
G37*
%LPD*%
%LPC*%
G36*
X516912Y155955D02*
X516912Y155955D01*
X511555Y161312D01*
X511555Y168888D01*
X516912Y174245D01*
X524488Y174245D01*
X529845Y168888D01*
X529845Y161312D01*
X524488Y155955D01*
X516912Y155955D01*
G37*
%LPD*%
%LPC*%
G36*
X85112Y155955D02*
X85112Y155955D01*
X79755Y161312D01*
X79755Y168888D01*
X85112Y174245D01*
X92688Y174245D01*
X98045Y168888D01*
X98045Y161312D01*
X92688Y155955D01*
X85112Y155955D01*
G37*
%LPD*%
%LPC*%
G36*
X491512Y155955D02*
X491512Y155955D01*
X486155Y161312D01*
X486155Y168888D01*
X491512Y174245D01*
X499088Y174245D01*
X504445Y168888D01*
X504445Y161312D01*
X499088Y155955D01*
X491512Y155955D01*
G37*
%LPD*%
%LPC*%
G36*
X389912Y155955D02*
X389912Y155955D01*
X384555Y161312D01*
X384555Y168888D01*
X389912Y174245D01*
X397488Y174245D01*
X402845Y168888D01*
X402845Y161312D01*
X397488Y155955D01*
X389912Y155955D01*
G37*
%LPD*%
%LPC*%
G36*
X389912Y130555D02*
X389912Y130555D01*
X384555Y135912D01*
X384555Y143488D01*
X389912Y148845D01*
X397488Y148845D01*
X402845Y143488D01*
X402845Y135912D01*
X397488Y130555D01*
X389912Y130555D01*
G37*
%LPD*%
%LPC*%
G36*
X491512Y130555D02*
X491512Y130555D01*
X486155Y135912D01*
X486155Y143488D01*
X491512Y148845D01*
X499088Y148845D01*
X504445Y143488D01*
X504445Y135912D01*
X499088Y130555D01*
X491512Y130555D01*
G37*
%LPD*%
%LPC*%
G36*
X306323Y65023D02*
X306323Y65023D01*
X306323Y81166D01*
X307179Y81031D01*
X308700Y80536D01*
X310125Y79810D01*
X311419Y78870D01*
X312550Y77739D01*
X313490Y76445D01*
X314216Y75020D01*
X314711Y73499D01*
X314961Y71920D01*
X314961Y65023D01*
X306323Y65023D01*
G37*
%LPD*%
%LPC*%
G36*
X344423Y357123D02*
X344423Y357123D01*
X344423Y365761D01*
X351320Y365761D01*
X352899Y365511D01*
X354420Y365016D01*
X355845Y364290D01*
X357139Y363350D01*
X358270Y362219D01*
X359210Y360925D01*
X359936Y359500D01*
X360431Y357979D01*
X360566Y357123D01*
X344423Y357123D01*
G37*
%LPD*%
%LPC*%
G36*
X325234Y357123D02*
X325234Y357123D01*
X325369Y357979D01*
X325864Y359500D01*
X326590Y360925D01*
X327530Y362219D01*
X328661Y363350D01*
X329955Y364290D01*
X331380Y365016D01*
X332901Y365511D01*
X334480Y365761D01*
X341377Y365761D01*
X341377Y357123D01*
X325234Y357123D01*
G37*
%LPD*%
%LPC*%
G36*
X306323Y61977D02*
X306323Y61977D01*
X314961Y61977D01*
X314961Y55080D01*
X314711Y53501D01*
X314216Y51980D01*
X313490Y50555D01*
X312550Y49261D01*
X311419Y48130D01*
X310125Y47190D01*
X308700Y46464D01*
X307179Y45969D01*
X306323Y45834D01*
X306323Y61977D01*
G37*
%LPD*%
%LPC*%
G36*
X294639Y65023D02*
X294639Y65023D01*
X294639Y71920D01*
X294889Y73499D01*
X295384Y75020D01*
X296110Y76445D01*
X297050Y77739D01*
X298181Y78870D01*
X299475Y79810D01*
X300900Y80536D01*
X302421Y81031D01*
X303277Y81166D01*
X303277Y65023D01*
X294639Y65023D01*
G37*
%LPD*%
%LPC*%
G36*
X344423Y345439D02*
X344423Y345439D01*
X344423Y354077D01*
X360566Y354077D01*
X360431Y353221D01*
X359936Y351700D01*
X359210Y350275D01*
X358270Y348981D01*
X357139Y347850D01*
X355845Y346910D01*
X354420Y346184D01*
X352899Y345689D01*
X351320Y345439D01*
X344423Y345439D01*
G37*
%LPD*%
%LPC*%
G36*
X334480Y345439D02*
X334480Y345439D01*
X332901Y345689D01*
X331380Y346184D01*
X329955Y346910D01*
X328661Y347850D01*
X327530Y348981D01*
X326590Y350275D01*
X325864Y351700D01*
X325369Y353221D01*
X325234Y354077D01*
X341377Y354077D01*
X341377Y345439D01*
X334480Y345439D01*
G37*
%LPD*%
%LPC*%
G36*
X302421Y45969D02*
X302421Y45969D01*
X300900Y46464D01*
X299475Y47190D01*
X298181Y48130D01*
X297050Y49261D01*
X296110Y50555D01*
X295384Y51980D01*
X294889Y53501D01*
X294639Y55080D01*
X294639Y61977D01*
X303277Y61977D01*
X303277Y45834D01*
X302421Y45969D01*
G37*
%LPD*%
%LPC*%
G36*
X522223Y268223D02*
X522223Y268223D01*
X522223Y276861D01*
X524909Y276861D01*
X530861Y270909D01*
X530861Y268223D01*
X522223Y268223D01*
G37*
%LPD*%
%LPC*%
G36*
X90423Y242823D02*
X90423Y242823D01*
X90423Y251461D01*
X93109Y251461D01*
X99061Y245509D01*
X99061Y242823D01*
X90423Y242823D01*
G37*
%LPD*%
%LPC*%
G36*
X217423Y204723D02*
X217423Y204723D01*
X217423Y213361D01*
X220109Y213361D01*
X226061Y207409D01*
X226061Y204723D01*
X217423Y204723D01*
G37*
%LPD*%
%LPC*%
G36*
X369823Y166623D02*
X369823Y166623D01*
X369823Y175261D01*
X372509Y175261D01*
X378461Y169309D01*
X378461Y166623D01*
X369823Y166623D01*
G37*
%LPD*%
%LPC*%
G36*
X192023Y153923D02*
X192023Y153923D01*
X192023Y162561D01*
X194709Y162561D01*
X200661Y156609D01*
X200661Y153923D01*
X192023Y153923D01*
G37*
%LPD*%
%LPC*%
G36*
X522223Y265177D02*
X522223Y265177D01*
X530861Y265177D01*
X530861Y262491D01*
X524909Y256539D01*
X522223Y256539D01*
X522223Y265177D01*
G37*
%LPD*%
%LPC*%
G36*
X90423Y239777D02*
X90423Y239777D01*
X99061Y239777D01*
X99061Y237091D01*
X93109Y231139D01*
X90423Y231139D01*
X90423Y239777D01*
G37*
%LPD*%
%LPC*%
G36*
X192023Y150877D02*
X192023Y150877D01*
X200661Y150877D01*
X200661Y148191D01*
X194709Y142239D01*
X192023Y142239D01*
X192023Y150877D01*
G37*
%LPD*%
%LPC*%
G36*
X217423Y201677D02*
X217423Y201677D01*
X226061Y201677D01*
X226061Y198991D01*
X220109Y193039D01*
X217423Y193039D01*
X217423Y201677D01*
G37*
%LPD*%
%LPC*%
G36*
X369823Y163577D02*
X369823Y163577D01*
X378461Y163577D01*
X378461Y160891D01*
X372509Y154939D01*
X369823Y154939D01*
X369823Y163577D01*
G37*
%LPD*%
%LPC*%
G36*
X510539Y268223D02*
X510539Y268223D01*
X510539Y270909D01*
X516491Y276861D01*
X519177Y276861D01*
X519177Y268223D01*
X510539Y268223D01*
G37*
%LPD*%
%LPC*%
G36*
X78739Y242823D02*
X78739Y242823D01*
X78739Y245509D01*
X84691Y251461D01*
X87377Y251461D01*
X87377Y242823D01*
X78739Y242823D01*
G37*
%LPD*%
%LPC*%
G36*
X358139Y166623D02*
X358139Y166623D01*
X358139Y169309D01*
X364091Y175261D01*
X366777Y175261D01*
X366777Y166623D01*
X358139Y166623D01*
G37*
%LPD*%
%LPC*%
G36*
X205739Y204723D02*
X205739Y204723D01*
X205739Y207409D01*
X211691Y213361D01*
X214377Y213361D01*
X214377Y204723D01*
X205739Y204723D01*
G37*
%LPD*%
%LPC*%
G36*
X180339Y153923D02*
X180339Y153923D01*
X180339Y156609D01*
X186291Y162561D01*
X188977Y162561D01*
X188977Y153923D01*
X180339Y153923D01*
G37*
%LPD*%
%LPC*%
G36*
X516491Y256539D02*
X516491Y256539D01*
X510539Y262491D01*
X510539Y265177D01*
X519177Y265177D01*
X519177Y256539D01*
X516491Y256539D01*
G37*
%LPD*%
%LPC*%
G36*
X84691Y231139D02*
X84691Y231139D01*
X78739Y237091D01*
X78739Y239777D01*
X87377Y239777D01*
X87377Y231139D01*
X84691Y231139D01*
G37*
%LPD*%
%LPC*%
G36*
X186291Y142239D02*
X186291Y142239D01*
X180339Y148191D01*
X180339Y150877D01*
X188977Y150877D01*
X188977Y142239D01*
X186291Y142239D01*
G37*
%LPD*%
%LPC*%
G36*
X364091Y154939D02*
X364091Y154939D01*
X358139Y160891D01*
X358139Y163577D01*
X366777Y163577D01*
X366777Y154939D01*
X364091Y154939D01*
G37*
%LPD*%
%LPC*%
G36*
X211691Y193039D02*
X211691Y193039D01*
X205739Y198991D01*
X205739Y201677D01*
X214377Y201677D01*
X214377Y193039D01*
X211691Y193039D01*
G37*
%LPD*%
%LPC*%
G36*
X369823Y188977D02*
X369823Y188977D01*
X378346Y188977D01*
X378211Y188121D01*
X377716Y186600D01*
X376990Y185175D01*
X376050Y183881D01*
X374919Y182750D01*
X373625Y181810D01*
X372200Y181084D01*
X370679Y180589D01*
X369823Y180454D01*
X369823Y188977D01*
G37*
%LPD*%
%LPC*%
G36*
X365921Y180589D02*
X365921Y180589D01*
X364400Y181084D01*
X362975Y181810D01*
X361681Y182750D01*
X360550Y183881D01*
X359610Y185175D01*
X358884Y186600D01*
X358389Y188121D01*
X358254Y188977D01*
X366777Y188977D01*
X366777Y180454D01*
X365921Y180589D01*
G37*
%LPD*%
%LPC*%
G36*
X342899Y355599D02*
X342899Y355599D01*
X342899Y355601D01*
X342901Y355601D01*
X342901Y355599D01*
X342899Y355599D01*
G37*
%LPD*%
%LPC*%
G36*
X520699Y266699D02*
X520699Y266699D01*
X520699Y266701D01*
X520701Y266701D01*
X520701Y266699D01*
X520699Y266699D01*
G37*
%LPD*%
%LPC*%
G36*
X88899Y241299D02*
X88899Y241299D01*
X88899Y241301D01*
X88901Y241301D01*
X88901Y241299D01*
X88899Y241299D01*
G37*
%LPD*%
%LPC*%
G36*
X190499Y152399D02*
X190499Y152399D01*
X190499Y152401D01*
X190501Y152401D01*
X190501Y152399D01*
X190499Y152399D01*
G37*
%LPD*%
%LPC*%
G36*
X215899Y203199D02*
X215899Y203199D01*
X215899Y203201D01*
X215901Y203201D01*
X215901Y203199D01*
X215899Y203199D01*
G37*
%LPD*%
%LPC*%
G36*
X368299Y165099D02*
X368299Y165099D01*
X368299Y165101D01*
X368301Y165101D01*
X368301Y165099D01*
X368299Y165099D01*
G37*
%LPD*%
%LPC*%
G36*
X304799Y63499D02*
X304799Y63499D01*
X304799Y63501D01*
X304801Y63501D01*
X304801Y63499D01*
X304799Y63499D01*
G37*
%LPD*%
D10*
X0Y0D02*
X584200Y0D01*
X584200Y762000D01*
X0Y762000D01*
X0Y0D01*
D11*
X88900Y266700D03*
X88900Y241300D03*
X88900Y215900D03*
X88900Y190500D03*
X88900Y165100D03*
X88900Y139700D03*
X88900Y114300D03*
X88900Y88900D03*
X88900Y63500D03*
X88900Y38100D03*
X63500Y38100D03*
X63500Y63500D03*
X63500Y88900D03*
X63500Y114300D03*
X63500Y139700D03*
X63500Y165100D03*
X63500Y190500D03*
X63500Y215900D03*
X63500Y241300D03*
X63500Y266700D03*
X520700Y266700D03*
X520700Y241300D03*
X520700Y215900D03*
X520700Y190500D03*
X520700Y165100D03*
X520700Y139700D03*
X520700Y114300D03*
X520700Y88900D03*
X520700Y63500D03*
X520700Y38100D03*
X495300Y38100D03*
X495300Y63500D03*
X495300Y88900D03*
X495300Y114300D03*
X495300Y139700D03*
X495300Y165100D03*
X495300Y190500D03*
X495300Y215900D03*
X495300Y241300D03*
X495300Y266700D03*
D12*
X368300Y190500D03*
D13*
X368300Y165100D03*
X368300Y139700D03*
X393700Y190500D03*
X393700Y165100D03*
X393700Y139700D03*
D14*
X279400Y71120D02*
X279400Y55880D01*
X304800Y55880D02*
X304800Y71120D01*
X248920Y431800D02*
X233680Y431800D01*
X233680Y406400D02*
X248920Y406400D01*
X248920Y381000D02*
X233680Y381000D01*
X233680Y355600D02*
X248920Y355600D01*
X248920Y330200D02*
X233680Y330200D01*
X335280Y457200D02*
X350520Y457200D01*
X350520Y431800D02*
X335280Y431800D01*
X335280Y406400D02*
X350520Y406400D01*
X350520Y381000D02*
X335280Y381000D01*
X335280Y355600D02*
X350520Y355600D01*
X350520Y330200D02*
X335280Y330200D01*
X335280Y304800D02*
X350520Y304800D01*
D11*
X215900Y101600D03*
X215900Y127000D03*
X215900Y152400D03*
X215900Y177800D03*
X215900Y203200D03*
X215900Y228600D03*
X190500Y101600D03*
X190500Y127000D03*
X190500Y152400D03*
X190500Y177800D03*
X190500Y203200D03*
X190500Y228600D03*
D15*
X227584Y270256D02*
X337820Y380492D01*
X341376Y380492D01*
X342900Y381000D01*
D16*
X227584Y270256D03*
D15*
X64008Y37338D02*
X76454Y24892D01*
X163576Y24892D01*
X218694Y80010D01*
X64008Y37338D02*
X63500Y38100D01*
D16*
X218694Y80010D03*
X254254Y597408D03*
X90678Y673862D03*
X517398Y552958D03*
X416052Y544068D03*
D15*
X330708Y533400D02*
X181356Y533400D01*
X176022Y538734D01*
X64008Y138684D02*
X74676Y128016D01*
X144018Y128016D01*
X184912Y87122D01*
X314706Y87122D01*
X368046Y140462D01*
X64008Y138684D02*
X63500Y139700D01*
X368046Y140462D02*
X368300Y139700D01*
X181356Y382270D02*
X181356Y533400D01*
X181356Y382270D02*
X144018Y344932D01*
X144018Y128016D01*
D16*
X330708Y533400D03*
X176022Y538734D03*
D15*
X197358Y599186D02*
X241808Y599186D01*
X256032Y584962D01*
X304038Y584962D01*
D16*
X197358Y599186D03*
X304038Y584962D03*
D15*
X304038Y597408D02*
X264922Y597408D01*
X208026Y654304D01*
X176022Y654304D01*
X304038Y597408D02*
X485394Y597408D01*
D16*
X304038Y597408D03*
X176022Y654304D03*
X485394Y597408D03*
D15*
X492506Y584962D02*
X314706Y584962D01*
X304038Y574294D01*
X179578Y574294D01*
X176022Y577850D01*
D16*
X492506Y584962D03*
X176022Y577850D03*
D15*
X176022Y609854D02*
X176022Y613410D01*
X176022Y609854D02*
X204470Y581406D01*
X227584Y581406D01*
D16*
X176022Y613410D03*
X227584Y581406D03*
D15*
X176022Y192024D02*
X190246Y177800D01*
X176022Y192024D02*
X176022Y259588D01*
X240030Y323596D01*
X240030Y328930D01*
X190500Y177800D02*
X190246Y177800D01*
X240030Y328930D02*
X241300Y330200D01*
X293370Y204470D02*
X215900Y127000D01*
X293370Y204470D02*
X506730Y204470D01*
X520700Y190500D01*
X215138Y152908D02*
X200914Y167132D01*
X184912Y167132D01*
X183134Y165354D01*
X172466Y176022D01*
X172466Y368046D01*
X234696Y430276D01*
X240030Y430276D01*
X215138Y152908D02*
X215900Y152400D01*
X240030Y430276D02*
X241300Y431800D01*
X215138Y277368D02*
X215138Y229362D01*
X215138Y277368D02*
X321818Y384048D01*
X321818Y416052D01*
X336042Y430276D01*
X341376Y430276D01*
X215138Y229362D02*
X215900Y228600D01*
X341376Y430276D02*
X342900Y431800D01*
M02*
