G04 EAGLE Gerber RS-274X export*
G75*
%MOMM*%
%FSLAX34Y34*%
%LPD*%
%INSilk top*%
%IPPOS*%
%AMOC8*
5,1,8,0,0,1.08239X$1,22.5*%
G01*
%ADD10C,0.000000*%
%ADD11C,0.152400*%
%ADD12C,0.076200*%
%ADD13C,0.050800*%
%ADD14C,0.127000*%


D10*
X0Y0D02*
X584200Y0D01*
X584200Y762000D01*
X0Y762000D01*
X0Y0D01*
D11*
X50800Y25400D02*
X50800Y279400D01*
X101600Y279400D01*
X101600Y25400D01*
X50800Y25400D01*
X482600Y25400D02*
X482600Y279400D01*
X533400Y279400D01*
X533400Y25400D01*
X482600Y25400D01*
D12*
X27010Y274453D02*
X25781Y273225D01*
X27010Y274453D02*
X29467Y274453D01*
X30696Y273225D01*
X30696Y271996D01*
X29467Y270767D01*
X28238Y270767D01*
X29467Y270767D02*
X30696Y269538D01*
X30696Y268310D01*
X29467Y267081D01*
X27010Y267081D01*
X25781Y268310D01*
X33265Y271996D02*
X35723Y267081D01*
X38180Y271996D01*
X40749Y273225D02*
X41978Y274453D01*
X44435Y274453D01*
X45664Y273225D01*
X45664Y271996D01*
X44435Y270767D01*
X43207Y270767D01*
X44435Y270767D02*
X45664Y269538D01*
X45664Y268310D01*
X44435Y267081D01*
X41978Y267081D01*
X40749Y268310D01*
X108331Y274453D02*
X113246Y274453D01*
X108331Y274453D02*
X108331Y270767D01*
X110788Y271996D01*
X112017Y271996D01*
X113246Y270767D01*
X113246Y268310D01*
X112017Y267081D01*
X109560Y267081D01*
X108331Y268310D01*
X115815Y269538D02*
X115815Y274453D01*
X115815Y269538D02*
X118273Y267081D01*
X120730Y269538D01*
X120730Y274453D01*
X112017Y249053D02*
X113246Y247825D01*
X112017Y249053D02*
X109560Y249053D01*
X108331Y247825D01*
X108331Y242910D01*
X109560Y241681D01*
X112017Y241681D01*
X113246Y242910D01*
X113246Y245367D01*
X110788Y245367D01*
X115815Y241681D02*
X115815Y249053D01*
X120730Y241681D01*
X120730Y249053D01*
X123299Y249053D02*
X123299Y241681D01*
X126985Y241681D01*
X128214Y242910D01*
X128214Y247825D01*
X126985Y249053D01*
X123299Y249053D01*
X543817Y274453D02*
X545046Y273225D01*
X543817Y274453D02*
X541360Y274453D01*
X540131Y273225D01*
X540131Y268310D01*
X541360Y267081D01*
X543817Y267081D01*
X545046Y268310D01*
X545046Y270767D01*
X542588Y270767D01*
X547615Y267081D02*
X547615Y274453D01*
X552530Y267081D01*
X552530Y274453D01*
X555099Y274453D02*
X555099Y267081D01*
X558785Y267081D01*
X560014Y268310D01*
X560014Y273225D01*
X558785Y274453D01*
X555099Y274453D01*
D11*
X347297Y735838D02*
X347297Y748549D01*
X343060Y748549D02*
X351534Y748549D01*
X358275Y735838D02*
X362512Y735838D01*
X358275Y735838D02*
X356157Y737956D01*
X356157Y742193D01*
X358275Y744312D01*
X362512Y744312D01*
X364631Y742193D01*
X364631Y740075D01*
X356157Y740075D01*
X371373Y744312D02*
X375610Y744312D01*
X377728Y742193D01*
X377728Y735838D01*
X371373Y735838D01*
X369254Y737956D01*
X371373Y740075D01*
X377728Y740075D01*
X382351Y735838D02*
X382351Y744312D01*
X384470Y744312D01*
X386588Y742193D01*
X386588Y735838D01*
X386588Y742193D02*
X388707Y744312D01*
X390825Y742193D01*
X390825Y735838D01*
X408546Y746430D02*
X410664Y748549D01*
X414901Y748549D01*
X417020Y746430D01*
X417020Y744312D01*
X414901Y742193D01*
X412783Y742193D01*
X414901Y742193D02*
X417020Y740075D01*
X417020Y737956D01*
X414901Y735838D01*
X410664Y735838D01*
X408546Y737956D01*
X441096Y748549D02*
X443214Y746430D01*
X441096Y748549D02*
X436859Y748549D01*
X434740Y746430D01*
X434740Y744312D01*
X436859Y742193D01*
X441096Y742193D01*
X443214Y740075D01*
X443214Y737956D01*
X441096Y735838D01*
X436859Y735838D01*
X434740Y737956D01*
X447838Y731601D02*
X447838Y744312D01*
X454193Y744312D01*
X456312Y742193D01*
X456312Y737956D01*
X454193Y735838D01*
X447838Y735838D01*
X460935Y735838D02*
X460935Y744312D01*
X460935Y740075D02*
X465172Y744312D01*
X467290Y744312D01*
X471849Y744312D02*
X473968Y744312D01*
X473968Y735838D01*
X476086Y735838D02*
X471849Y735838D01*
X473968Y748549D02*
X473968Y750667D01*
X480581Y744312D02*
X480581Y735838D01*
X480581Y744312D02*
X486936Y744312D01*
X489055Y742193D01*
X489055Y735838D01*
X497915Y731601D02*
X500034Y731601D01*
X502152Y733720D01*
X502152Y744312D01*
X495797Y744312D01*
X493678Y742193D01*
X493678Y737956D01*
X495797Y735838D01*
X502152Y735838D01*
X519873Y735838D02*
X528347Y735838D01*
X519873Y735838D02*
X528347Y744312D01*
X528347Y746430D01*
X526228Y748549D01*
X521991Y748549D01*
X519873Y746430D01*
X532970Y746430D02*
X532970Y737956D01*
X532970Y746430D02*
X535088Y748549D01*
X539325Y748549D01*
X541444Y746430D01*
X541444Y737956D01*
X539325Y735838D01*
X535088Y735838D01*
X532970Y737956D01*
X541444Y746430D01*
X546067Y735838D02*
X554541Y735838D01*
X546067Y735838D02*
X554541Y744312D01*
X554541Y746430D01*
X552423Y748549D01*
X548186Y748549D01*
X546067Y746430D01*
X559164Y735838D02*
X567638Y735838D01*
X559164Y735838D02*
X567638Y744312D01*
X567638Y746430D01*
X565520Y748549D01*
X561283Y748549D01*
X559164Y746430D01*
X343060Y727213D02*
X343060Y714502D01*
X343060Y727213D02*
X349415Y727213D01*
X351534Y725094D01*
X351534Y720857D01*
X349415Y718739D01*
X343060Y718739D01*
X362512Y727213D02*
X364631Y725094D01*
X362512Y727213D02*
X358275Y727213D01*
X356157Y725094D01*
X356157Y716620D01*
X358275Y714502D01*
X362512Y714502D01*
X364631Y716620D01*
X369254Y714502D02*
X369254Y727213D01*
X375610Y727213D01*
X377728Y725094D01*
X377728Y722976D01*
X375610Y720857D01*
X377728Y718739D01*
X377728Y716620D01*
X375610Y714502D01*
X369254Y714502D01*
X369254Y720857D02*
X375610Y720857D01*
X395449Y714502D02*
X395449Y727213D01*
X401804Y727213D01*
X403923Y725094D01*
X403923Y720857D01*
X401804Y718739D01*
X395449Y718739D01*
X408546Y714502D02*
X408546Y722976D01*
X408546Y718739D02*
X412783Y722976D01*
X414901Y722976D01*
X421579Y714502D02*
X425816Y714502D01*
X427934Y716620D01*
X427934Y720857D01*
X425816Y722976D01*
X421579Y722976D01*
X419460Y720857D01*
X419460Y716620D01*
X421579Y714502D01*
X434676Y716620D02*
X434676Y725094D01*
X434676Y716620D02*
X436795Y714502D01*
X436795Y722976D02*
X432558Y722976D01*
X443408Y714502D02*
X447645Y714502D01*
X449763Y716620D01*
X449763Y720857D01*
X447645Y722976D01*
X443408Y722976D01*
X441289Y720857D01*
X441289Y716620D01*
X443408Y714502D01*
X456505Y716620D02*
X456505Y725094D01*
X456505Y716620D02*
X458623Y714502D01*
X458623Y722976D02*
X454386Y722976D01*
X463118Y722976D02*
X463118Y716620D01*
X465236Y714502D01*
X471592Y714502D01*
X471592Y712384D02*
X471592Y722976D01*
X471592Y712384D02*
X469473Y710265D01*
X467355Y710265D01*
X476215Y710265D02*
X476215Y722976D01*
X482571Y722976D01*
X484689Y720857D01*
X484689Y716620D01*
X482571Y714502D01*
X476215Y714502D01*
X491431Y714502D02*
X495668Y714502D01*
X491431Y714502D02*
X489312Y716620D01*
X489312Y720857D01*
X491431Y722976D01*
X495668Y722976D01*
X497786Y720857D01*
X497786Y718739D01*
X489312Y718739D01*
X515507Y714502D02*
X523981Y714502D01*
X515507Y714502D02*
X523981Y722976D01*
X523981Y725094D01*
X521862Y727213D01*
X517625Y727213D01*
X515507Y725094D01*
D12*
X372367Y464953D02*
X373596Y463725D01*
X372367Y464953D02*
X369910Y464953D01*
X368681Y463725D01*
X368681Y462496D01*
X369910Y461267D01*
X372367Y461267D01*
X373596Y460038D01*
X373596Y458810D01*
X372367Y457581D01*
X369910Y457581D01*
X368681Y458810D01*
X376165Y457581D02*
X376165Y462496D01*
X378623Y464953D01*
X381080Y462496D01*
X381080Y457581D01*
X381080Y461267D02*
X376165Y461267D01*
X384878Y464953D02*
X387335Y464953D01*
X384878Y464953D02*
X383649Y463725D01*
X383649Y458810D01*
X384878Y457581D01*
X387335Y457581D01*
X388564Y458810D01*
X388564Y463725D01*
X387335Y464953D01*
X372367Y439553D02*
X373596Y438325D01*
X372367Y439553D02*
X369910Y439553D01*
X368681Y438325D01*
X368681Y433410D01*
X369910Y432181D01*
X372367Y432181D01*
X373596Y433410D01*
X379851Y439553D02*
X381080Y438325D01*
X379851Y439553D02*
X377394Y439553D01*
X376165Y438325D01*
X376165Y437096D01*
X377394Y435867D01*
X379851Y435867D01*
X381080Y434638D01*
X381080Y433410D01*
X379851Y432181D01*
X377394Y432181D01*
X376165Y433410D01*
X372367Y414153D02*
X373596Y412925D01*
X372367Y414153D02*
X369910Y414153D01*
X368681Y412925D01*
X368681Y411696D01*
X369910Y410467D01*
X372367Y410467D01*
X373596Y409238D01*
X373596Y408010D01*
X372367Y406781D01*
X369910Y406781D01*
X368681Y408010D01*
X376165Y406781D02*
X376165Y414153D01*
X376165Y406781D02*
X379851Y406781D01*
X381080Y408010D01*
X381080Y412925D01*
X379851Y414153D01*
X376165Y414153D01*
X383649Y411696D02*
X383649Y406781D01*
X383649Y411696D02*
X386107Y414153D01*
X388564Y411696D01*
X388564Y406781D01*
X388564Y410467D02*
X383649Y410467D01*
X372367Y388753D02*
X373596Y387525D01*
X372367Y388753D02*
X369910Y388753D01*
X368681Y387525D01*
X368681Y386296D01*
X369910Y385067D01*
X372367Y385067D01*
X373596Y383838D01*
X373596Y382610D01*
X372367Y381381D01*
X369910Y381381D01*
X368681Y382610D01*
X379851Y388753D02*
X381080Y387525D01*
X379851Y388753D02*
X377394Y388753D01*
X376165Y387525D01*
X376165Y382610D01*
X377394Y381381D01*
X379851Y381381D01*
X381080Y382610D01*
X383649Y381381D02*
X383649Y388753D01*
X383649Y381381D02*
X388564Y381381D01*
X372367Y363353D02*
X373596Y362125D01*
X372367Y363353D02*
X369910Y363353D01*
X368681Y362125D01*
X368681Y357210D01*
X369910Y355981D01*
X372367Y355981D01*
X373596Y357210D01*
X373596Y359667D01*
X371138Y359667D01*
X376165Y355981D02*
X376165Y363353D01*
X381080Y355981D01*
X381080Y363353D01*
X383649Y363353D02*
X383649Y355981D01*
X387335Y355981D01*
X388564Y357210D01*
X388564Y362125D01*
X387335Y363353D01*
X383649Y363353D01*
X369910Y337953D02*
X368681Y336725D01*
X369910Y337953D02*
X372367Y337953D01*
X373596Y336725D01*
X373596Y335496D01*
X372367Y334267D01*
X371138Y334267D01*
X372367Y334267D02*
X373596Y333038D01*
X373596Y331810D01*
X372367Y330581D01*
X369910Y330581D01*
X368681Y331810D01*
X376165Y333038D02*
X376165Y337953D01*
X376165Y333038D02*
X378623Y330581D01*
X381080Y333038D01*
X381080Y337953D01*
X383649Y336725D02*
X384878Y337953D01*
X387335Y337953D01*
X388564Y336725D01*
X388564Y335496D01*
X387335Y334267D01*
X386107Y334267D01*
X387335Y334267D02*
X388564Y333038D01*
X388564Y331810D01*
X387335Y330581D01*
X384878Y330581D01*
X383649Y331810D01*
X368681Y312553D02*
X368681Y307638D01*
X371138Y305181D01*
X373596Y307638D01*
X373596Y312553D01*
X376165Y305181D02*
X378623Y305181D01*
X377394Y305181D02*
X377394Y312553D01*
X376165Y312553D02*
X378623Y312553D01*
X381155Y312553D02*
X381155Y305181D01*
X386069Y305181D02*
X381155Y312553D01*
X386069Y312553D02*
X386069Y305181D01*
X202146Y438325D02*
X200917Y439553D01*
X198460Y439553D01*
X197231Y438325D01*
X197231Y437096D01*
X198460Y435867D01*
X200917Y435867D01*
X202146Y434638D01*
X202146Y433410D01*
X200917Y432181D01*
X198460Y432181D01*
X197231Y433410D01*
X204715Y432181D02*
X204715Y439553D01*
X204715Y432181D02*
X208401Y432181D01*
X209630Y433410D01*
X209630Y438325D01*
X208401Y439553D01*
X204715Y439553D01*
X212199Y439553D02*
X217114Y432181D01*
X212199Y432181D02*
X217114Y439553D01*
X200917Y414153D02*
X202146Y412925D01*
X200917Y414153D02*
X198460Y414153D01*
X197231Y412925D01*
X197231Y411696D01*
X198460Y410467D01*
X200917Y410467D01*
X202146Y409238D01*
X202146Y408010D01*
X200917Y406781D01*
X198460Y406781D01*
X197231Y408010D01*
X208401Y414153D02*
X209630Y412925D01*
X208401Y414153D02*
X205944Y414153D01*
X204715Y412925D01*
X204715Y408010D01*
X205944Y406781D01*
X208401Y406781D01*
X209630Y408010D01*
X212199Y414153D02*
X217114Y406781D01*
X212199Y406781D02*
X217114Y414153D01*
D13*
X194564Y386847D02*
X194564Y381254D01*
X194564Y386847D02*
X197360Y386847D01*
X198293Y385915D01*
X198293Y384983D01*
X197360Y384050D01*
X198293Y383118D01*
X198293Y382186D01*
X197360Y381254D01*
X194564Y381254D01*
X194564Y384050D02*
X197360Y384050D01*
X205790Y381254D02*
X207654Y381254D01*
X206722Y381254D02*
X206722Y386847D01*
X205790Y386847D02*
X207654Y386847D01*
X209532Y386847D02*
X209532Y381254D01*
X213261Y381254D02*
X209532Y386847D01*
X213261Y386847D02*
X213261Y381254D01*
X217010Y381254D02*
X217010Y386847D01*
X218874Y386847D02*
X215145Y386847D01*
X220758Y384983D02*
X222623Y386847D01*
X222623Y381254D01*
X224487Y381254D02*
X220758Y381254D01*
X194564Y361447D02*
X194564Y355854D01*
X194564Y361447D02*
X197360Y361447D01*
X198293Y360515D01*
X198293Y359583D01*
X197360Y358650D01*
X198293Y357718D01*
X198293Y356786D01*
X197360Y355854D01*
X194564Y355854D01*
X194564Y358650D02*
X197360Y358650D01*
X205790Y355854D02*
X207654Y355854D01*
X206722Y355854D02*
X206722Y361447D01*
X205790Y361447D02*
X207654Y361447D01*
X209532Y361447D02*
X209532Y355854D01*
X213261Y355854D02*
X209532Y361447D01*
X213261Y361447D02*
X213261Y355854D01*
X217010Y355854D02*
X217010Y361447D01*
X218874Y361447D02*
X215145Y361447D01*
X220758Y355854D02*
X224487Y355854D01*
X220758Y355854D02*
X224487Y359583D01*
X224487Y360515D01*
X223555Y361447D01*
X221691Y361447D01*
X220758Y360515D01*
D12*
X200917Y337953D02*
X198460Y337953D01*
X197231Y336725D01*
X197231Y331810D01*
X198460Y330581D01*
X200917Y330581D01*
X202146Y331810D01*
X202146Y336725D01*
X200917Y337953D01*
X208401Y337953D02*
X209630Y336725D01*
X208401Y337953D02*
X205944Y337953D01*
X204715Y336725D01*
X204715Y331810D01*
X205944Y330581D01*
X208401Y330581D01*
X209630Y331810D01*
X215885Y337953D02*
X217114Y336725D01*
X215885Y337953D02*
X213428Y337953D01*
X212199Y336725D01*
X212199Y335496D01*
X213428Y334267D01*
X215885Y334267D01*
X217114Y333038D01*
X217114Y331810D01*
X215885Y330581D01*
X213428Y330581D01*
X212199Y331810D01*
X154010Y236353D02*
X152781Y235125D01*
X154010Y236353D02*
X156467Y236353D01*
X157696Y235125D01*
X157696Y233896D01*
X156467Y232667D01*
X155238Y232667D01*
X156467Y232667D02*
X157696Y231438D01*
X157696Y230210D01*
X156467Y228981D01*
X154010Y228981D01*
X152781Y230210D01*
X160265Y231438D02*
X160265Y236353D01*
X160265Y231438D02*
X162723Y228981D01*
X165180Y231438D01*
X165180Y236353D01*
X167749Y235125D02*
X168978Y236353D01*
X171435Y236353D01*
X172664Y235125D01*
X172664Y233896D01*
X171435Y232667D01*
X170207Y232667D01*
X171435Y232667D02*
X172664Y231438D01*
X172664Y230210D01*
X171435Y228981D01*
X168978Y228981D01*
X167749Y230210D01*
X156467Y160153D02*
X157696Y158925D01*
X156467Y160153D02*
X154010Y160153D01*
X152781Y158925D01*
X152781Y154010D01*
X154010Y152781D01*
X156467Y152781D01*
X157696Y154010D01*
X157696Y156467D01*
X155238Y156467D01*
X160265Y152781D02*
X160265Y160153D01*
X165180Y152781D01*
X165180Y160153D01*
X167749Y160153D02*
X167749Y152781D01*
X171435Y152781D01*
X172664Y154010D01*
X172664Y158925D01*
X171435Y160153D01*
X167749Y160153D01*
X228981Y108845D02*
X228981Y101981D01*
X228981Y108845D02*
X232413Y108845D01*
X233557Y107701D01*
X233557Y106557D01*
X232413Y105413D01*
X233557Y104269D01*
X233557Y103125D01*
X232413Y101981D01*
X228981Y101981D01*
X228981Y105413D02*
X232413Y105413D01*
X235997Y101981D02*
X235997Y108845D01*
X238285Y106557D01*
X240573Y108845D01*
X240573Y101981D01*
X243014Y101981D02*
X245302Y101981D01*
X244158Y101981D02*
X244158Y108845D01*
X243014Y108845D02*
X245302Y108845D01*
X254708Y101981D02*
X256996Y101981D01*
X255852Y101981D02*
X255852Y108845D01*
X254708Y108845D02*
X256996Y108845D01*
X259385Y108845D02*
X259385Y101981D01*
X263961Y101981D02*
X259385Y108845D01*
X263961Y108845D02*
X263961Y101981D01*
X268690Y101981D02*
X268690Y108845D01*
X266402Y108845D02*
X270978Y108845D01*
X273418Y101981D02*
X277994Y101981D01*
X273418Y101981D02*
X277994Y106557D01*
X277994Y107701D01*
X276850Y108845D01*
X274562Y108845D01*
X273418Y107701D01*
X127381Y108845D02*
X127381Y101981D01*
X127381Y108845D02*
X130813Y108845D01*
X131957Y107701D01*
X131957Y106557D01*
X130813Y105413D01*
X131957Y104269D01*
X131957Y103125D01*
X130813Y101981D01*
X127381Y101981D01*
X127381Y105413D02*
X130813Y105413D01*
X134397Y101981D02*
X134397Y108845D01*
X136685Y106557D01*
X138973Y108845D01*
X138973Y101981D01*
X141414Y101981D02*
X143702Y101981D01*
X142558Y101981D02*
X142558Y108845D01*
X141414Y108845D02*
X143702Y108845D01*
X153108Y101981D02*
X155396Y101981D01*
X154252Y101981D02*
X154252Y108845D01*
X153108Y108845D02*
X155396Y108845D01*
X157785Y108845D02*
X157785Y101981D01*
X162361Y101981D02*
X157785Y108845D01*
X162361Y108845D02*
X162361Y101981D01*
X167090Y101981D02*
X167090Y108845D01*
X164802Y108845D02*
X169378Y108845D01*
X171818Y106557D02*
X174106Y108845D01*
X174106Y101981D01*
X171818Y101981D02*
X176394Y101981D01*
X157696Y209725D02*
X156467Y210953D01*
X154010Y210953D01*
X152781Y209725D01*
X152781Y208496D01*
X154010Y207267D01*
X156467Y207267D01*
X157696Y206038D01*
X157696Y204810D01*
X156467Y203581D01*
X154010Y203581D01*
X152781Y204810D01*
X160265Y203581D02*
X160265Y208496D01*
X162723Y210953D01*
X165180Y208496D01*
X165180Y203581D01*
X165180Y207267D02*
X160265Y207267D01*
X168978Y210953D02*
X171435Y210953D01*
X168978Y210953D02*
X167749Y209725D01*
X167749Y204810D01*
X168978Y203581D01*
X171435Y203581D01*
X172664Y204810D01*
X172664Y209725D01*
X171435Y210953D01*
X155238Y127381D02*
X152781Y127381D01*
X154010Y127381D02*
X154010Y134753D01*
X155238Y134753D02*
X152781Y134753D01*
X157770Y134753D02*
X157770Y127381D01*
X162685Y127381D02*
X157770Y134753D01*
X162685Y134753D02*
X162685Y127381D01*
X167712Y127381D02*
X167712Y134753D01*
X165255Y134753D02*
X170169Y134753D01*
X172739Y132296D02*
X175196Y134753D01*
X175196Y127381D01*
X172739Y127381D02*
X177654Y127381D01*
X228981Y127381D02*
X231438Y127381D01*
X230210Y127381D02*
X230210Y134753D01*
X231438Y134753D02*
X228981Y134753D01*
X233970Y134753D02*
X233970Y127381D01*
X238885Y127381D02*
X233970Y134753D01*
X238885Y134753D02*
X238885Y127381D01*
X243912Y127381D02*
X243912Y134753D01*
X241455Y134753D02*
X246369Y134753D01*
X248939Y127381D02*
X253854Y127381D01*
X248939Y127381D02*
X253854Y132296D01*
X253854Y133525D01*
X252625Y134753D01*
X250167Y134753D01*
X248939Y133525D01*
X156467Y185553D02*
X154010Y185553D01*
X152781Y184325D01*
X152781Y179410D01*
X154010Y178181D01*
X156467Y178181D01*
X157696Y179410D01*
X157696Y184325D01*
X156467Y185553D01*
X163951Y185553D02*
X165180Y184325D01*
X163951Y185553D02*
X161494Y185553D01*
X160265Y184325D01*
X160265Y179410D01*
X161494Y178181D01*
X163951Y178181D01*
X165180Y179410D01*
X171435Y185553D02*
X172664Y184325D01*
X171435Y185553D02*
X168978Y185553D01*
X167749Y184325D01*
X167749Y183096D01*
X168978Y181867D01*
X171435Y181867D01*
X172664Y180638D01*
X172664Y179410D01*
X171435Y178181D01*
X168978Y178181D01*
X167749Y179410D01*
X228981Y157696D02*
X228981Y152781D01*
X228981Y157696D02*
X231438Y160153D01*
X233896Y157696D01*
X233896Y152781D01*
X233896Y156467D02*
X228981Y156467D01*
X240151Y160153D02*
X241380Y158925D01*
X240151Y160153D02*
X237694Y160153D01*
X236465Y158925D01*
X236465Y157696D01*
X237694Y156467D01*
X240151Y156467D01*
X241380Y155238D01*
X241380Y154010D01*
X240151Y152781D01*
X237694Y152781D01*
X236465Y154010D01*
X243949Y152781D02*
X243949Y160153D01*
X243949Y152781D02*
X247635Y152781D01*
X248864Y154010D01*
X248864Y158925D01*
X247635Y160153D01*
X243949Y160153D01*
X251433Y157696D02*
X251433Y152781D01*
X251433Y157696D02*
X253891Y160153D01*
X256348Y157696D01*
X256348Y152781D01*
X256348Y156467D02*
X251433Y156467D01*
X228981Y178181D02*
X228981Y183096D01*
X231438Y185553D01*
X233896Y183096D01*
X233896Y178181D01*
X233896Y181867D02*
X228981Y181867D01*
X240151Y185553D02*
X241380Y184325D01*
X240151Y185553D02*
X237694Y185553D01*
X236465Y184325D01*
X236465Y183096D01*
X237694Y181867D01*
X240151Y181867D01*
X241380Y180638D01*
X241380Y179410D01*
X240151Y178181D01*
X237694Y178181D01*
X236465Y179410D01*
X247635Y185553D02*
X248864Y184325D01*
X247635Y185553D02*
X245178Y185553D01*
X243949Y184325D01*
X243949Y179410D01*
X245178Y178181D01*
X247635Y178181D01*
X248864Y179410D01*
X251433Y178181D02*
X251433Y185553D01*
X251433Y178181D02*
X256348Y178181D01*
X233896Y209725D02*
X232667Y210953D01*
X230210Y210953D01*
X228981Y209725D01*
X228981Y204810D01*
X230210Y203581D01*
X232667Y203581D01*
X233896Y204810D01*
X233896Y207267D01*
X231438Y207267D01*
X236465Y203581D02*
X236465Y210953D01*
X241380Y203581D01*
X241380Y210953D01*
X243949Y210953D02*
X243949Y203581D01*
X247635Y203581D01*
X248864Y204810D01*
X248864Y209725D01*
X247635Y210953D01*
X243949Y210953D01*
X233896Y235125D02*
X232667Y236353D01*
X230210Y236353D01*
X228981Y235125D01*
X228981Y230210D01*
X230210Y228981D01*
X232667Y228981D01*
X233896Y230210D01*
X240151Y236353D02*
X241380Y235125D01*
X240151Y236353D02*
X237694Y236353D01*
X236465Y235125D01*
X236465Y233896D01*
X237694Y232667D01*
X240151Y232667D01*
X241380Y231438D01*
X241380Y230210D01*
X240151Y228981D01*
X237694Y228981D01*
X236465Y230210D01*
X406781Y198253D02*
X406781Y190881D01*
X409238Y195796D02*
X406781Y198253D01*
X409238Y195796D02*
X411696Y198253D01*
X411696Y190881D01*
X414265Y190881D02*
X416723Y190881D01*
X415494Y190881D02*
X415494Y198253D01*
X414265Y198253D02*
X416723Y198253D01*
X422941Y198253D02*
X424169Y197025D01*
X422941Y198253D02*
X420483Y198253D01*
X419255Y197025D01*
X419255Y192110D01*
X420483Y190881D01*
X422941Y190881D01*
X424169Y192110D01*
X408010Y172853D02*
X406781Y171625D01*
X408010Y172853D02*
X410467Y172853D01*
X411696Y171625D01*
X411696Y170396D01*
X410467Y169167D01*
X409238Y169167D01*
X410467Y169167D02*
X411696Y167938D01*
X411696Y166710D01*
X410467Y165481D01*
X408010Y165481D01*
X406781Y166710D01*
X414265Y167938D02*
X414265Y172853D01*
X414265Y167938D02*
X416723Y165481D01*
X419180Y167938D01*
X419180Y172853D01*
X421749Y171625D02*
X422978Y172853D01*
X425435Y172853D01*
X426664Y171625D01*
X426664Y170396D01*
X425435Y169167D01*
X424207Y169167D01*
X425435Y169167D02*
X426664Y167938D01*
X426664Y166710D01*
X425435Y165481D01*
X422978Y165481D01*
X421749Y166710D01*
X408010Y147453D02*
X406781Y146225D01*
X408010Y147453D02*
X410467Y147453D01*
X411696Y146225D01*
X411696Y144996D01*
X410467Y143767D01*
X409238Y143767D01*
X410467Y143767D02*
X411696Y142538D01*
X411696Y141310D01*
X410467Y140081D01*
X408010Y140081D01*
X406781Y141310D01*
X414265Y142538D02*
X414265Y147453D01*
X414265Y142538D02*
X416723Y140081D01*
X419180Y142538D01*
X419180Y147453D01*
X421749Y146225D02*
X422978Y147453D01*
X425435Y147453D01*
X426664Y146225D01*
X426664Y144996D01*
X425435Y143767D01*
X424207Y143767D01*
X425435Y143767D02*
X426664Y142538D01*
X426664Y141310D01*
X425435Y140081D01*
X422978Y140081D01*
X421749Y141310D01*
X334267Y147453D02*
X331810Y147453D01*
X330581Y146225D01*
X330581Y141310D01*
X331810Y140081D01*
X334267Y140081D01*
X335496Y141310D01*
X335496Y146225D01*
X334267Y147453D01*
X338065Y147453D02*
X338065Y141310D01*
X339294Y140081D01*
X341751Y140081D01*
X342980Y141310D01*
X342980Y147453D01*
X348007Y147453D02*
X348007Y140081D01*
X345549Y147453D02*
X350464Y147453D01*
X335496Y171625D02*
X334267Y172853D01*
X331810Y172853D01*
X330581Y171625D01*
X330581Y166710D01*
X331810Y165481D01*
X334267Y165481D01*
X335496Y166710D01*
X335496Y169167D01*
X333038Y169167D01*
X338065Y165481D02*
X338065Y172853D01*
X342980Y165481D01*
X342980Y172853D01*
X345549Y172853D02*
X345549Y165481D01*
X349235Y165481D01*
X350464Y166710D01*
X350464Y171625D01*
X349235Y172853D01*
X345549Y172853D01*
X335496Y197025D02*
X334267Y198253D01*
X331810Y198253D01*
X330581Y197025D01*
X330581Y192110D01*
X331810Y190881D01*
X334267Y190881D01*
X335496Y192110D01*
X335496Y194567D01*
X333038Y194567D01*
X338065Y190881D02*
X338065Y198253D01*
X342980Y190881D01*
X342980Y198253D01*
X345549Y198253D02*
X345549Y190881D01*
X349235Y190881D01*
X350464Y192110D01*
X350464Y197025D01*
X349235Y198253D01*
X345549Y198253D01*
X296167Y45853D02*
X297396Y44625D01*
X296167Y45853D02*
X293710Y45853D01*
X292481Y44625D01*
X292481Y39710D01*
X293710Y38481D01*
X296167Y38481D01*
X297396Y39710D01*
X297396Y42167D01*
X294938Y42167D01*
X299965Y38481D02*
X299965Y45853D01*
X304880Y38481D01*
X304880Y45853D01*
X307449Y45853D02*
X307449Y38481D01*
X311135Y38481D01*
X312364Y39710D01*
X312364Y44625D01*
X311135Y45853D01*
X307449Y45853D01*
X259296Y611210D02*
X254381Y616125D01*
X254381Y611210D02*
X259296Y616125D01*
X259296Y613667D02*
X254381Y613667D01*
X256838Y611210D02*
X256838Y616125D01*
D11*
X393700Y495300D02*
X393700Y266700D01*
X393700Y495300D02*
X190500Y495300D01*
X190500Y266700D01*
X393700Y266700D01*
D14*
X197485Y502285D02*
X197485Y513725D01*
X203205Y513725D01*
X205112Y511818D01*
X205112Y509912D01*
X203205Y508005D01*
X205112Y506098D01*
X205112Y504192D01*
X203205Y502285D01*
X197485Y502285D01*
X197485Y508005D02*
X203205Y508005D01*
X209179Y502285D02*
X209179Y513725D01*
X212992Y509912D01*
X216805Y513725D01*
X216805Y502285D01*
X220873Y502285D02*
X224686Y502285D01*
X222780Y502285D02*
X222780Y513725D01*
X224686Y513725D02*
X220873Y513725D01*
X228669Y509912D02*
X232482Y513725D01*
X232482Y502285D01*
X228669Y502285D02*
X236295Y502285D01*
X244176Y511818D02*
X247989Y513725D01*
X244176Y511818D02*
X240363Y508005D01*
X240363Y504192D01*
X242270Y502285D01*
X246083Y502285D01*
X247989Y504192D01*
X247989Y506098D01*
X246083Y508005D01*
X240363Y508005D01*
X252057Y504192D02*
X252057Y511818D01*
X253963Y513725D01*
X257777Y513725D01*
X259683Y511818D01*
X259683Y504192D01*
X257777Y502285D01*
X253963Y502285D01*
X252057Y504192D01*
X259683Y511818D01*
X280035Y100975D02*
X280035Y89535D01*
X283848Y97162D02*
X280035Y100975D01*
X283848Y97162D02*
X287662Y100975D01*
X287662Y89535D01*
X291729Y89535D02*
X295542Y89535D01*
X293636Y89535D02*
X293636Y100975D01*
X295542Y100975D02*
X291729Y100975D01*
X305245Y100975D02*
X307151Y99068D01*
X305245Y100975D02*
X301432Y100975D01*
X299525Y99068D01*
X299525Y91442D01*
X301432Y89535D01*
X305245Y89535D01*
X307151Y91442D01*
X153035Y248285D02*
X153035Y259725D01*
X158755Y259725D01*
X160662Y257818D01*
X160662Y255912D01*
X158755Y254005D01*
X160662Y252098D01*
X160662Y250192D01*
X158755Y248285D01*
X153035Y248285D01*
X153035Y254005D02*
X158755Y254005D01*
X164729Y248285D02*
X164729Y259725D01*
X168542Y255912D01*
X172355Y259725D01*
X172355Y248285D01*
X176423Y248285D02*
X180236Y248285D01*
X178330Y248285D02*
X178330Y259725D01*
X180236Y259725D02*
X176423Y259725D01*
X184219Y255912D02*
X188032Y259725D01*
X188032Y248285D01*
X184219Y248285D02*
X191845Y248285D01*
X199726Y257818D02*
X203539Y259725D01*
X199726Y257818D02*
X195913Y254005D01*
X195913Y250192D01*
X197820Y248285D01*
X201633Y248285D01*
X203539Y250192D01*
X203539Y252098D01*
X201633Y254005D01*
X195913Y254005D01*
X207607Y250192D02*
X207607Y257818D01*
X209513Y259725D01*
X213327Y259725D01*
X215233Y257818D01*
X215233Y250192D01*
X213327Y248285D01*
X209513Y248285D01*
X207607Y250192D01*
X215233Y257818D01*
X230995Y259725D02*
X230995Y248285D01*
X230995Y259725D02*
X236715Y259725D01*
X238621Y257818D01*
X238621Y254005D01*
X236715Y252098D01*
X230995Y252098D01*
X242689Y255912D02*
X244595Y255912D01*
X244595Y248285D01*
X242689Y248285D02*
X246502Y248285D01*
X244595Y259725D02*
X244595Y261631D01*
X250485Y255912D02*
X250485Y248285D01*
X250485Y255912D02*
X256205Y255912D01*
X258111Y254005D01*
X258111Y248285D01*
X262179Y248285D02*
X267899Y248285D01*
X269805Y250192D01*
X267899Y252098D01*
X264085Y252098D01*
X262179Y254005D01*
X264085Y255912D01*
X269805Y255912D01*
X337185Y221625D02*
X337185Y210185D01*
X340998Y217812D02*
X337185Y221625D01*
X340998Y217812D02*
X344812Y221625D01*
X344812Y210185D01*
X348879Y217812D02*
X350786Y217812D01*
X350786Y210185D01*
X352692Y210185D02*
X348879Y210185D01*
X350786Y221625D02*
X350786Y223531D01*
X358582Y217812D02*
X364301Y217812D01*
X358582Y217812D02*
X356675Y215905D01*
X356675Y212092D01*
X358582Y210185D01*
X364301Y210185D01*
X383876Y210185D02*
X383876Y221625D01*
X380063Y221625D02*
X387689Y221625D01*
X393663Y210185D02*
X397477Y210185D01*
X393663Y210185D02*
X391757Y212092D01*
X391757Y215905D01*
X393663Y217812D01*
X397477Y217812D01*
X399383Y215905D01*
X399383Y213998D01*
X391757Y213998D01*
X403451Y210185D02*
X409171Y210185D01*
X411077Y212092D01*
X409171Y213998D01*
X405357Y213998D01*
X403451Y215905D01*
X405357Y217812D01*
X411077Y217812D01*
X417051Y219718D02*
X417051Y212092D01*
X418958Y210185D01*
X418958Y217812D02*
X415145Y217812D01*
X434635Y221625D02*
X434635Y210185D01*
X434635Y221625D02*
X440355Y221625D01*
X442261Y219718D01*
X442261Y215905D01*
X440355Y213998D01*
X434635Y213998D01*
X446329Y217812D02*
X448235Y217812D01*
X448235Y210185D01*
X446329Y210185D02*
X450142Y210185D01*
X448235Y221625D02*
X448235Y223531D01*
X454125Y217812D02*
X454125Y210185D01*
X454125Y217812D02*
X459845Y217812D01*
X461751Y215905D01*
X461751Y210185D01*
X465819Y210185D02*
X471539Y210185D01*
X473445Y212092D01*
X471539Y213998D01*
X467725Y213998D01*
X465819Y215905D01*
X467725Y217812D01*
X473445Y217812D01*
D11*
X546100Y520700D02*
X38100Y520700D01*
X546100Y520700D02*
X546100Y685800D01*
X38100Y685800D01*
X38100Y520700D01*
D14*
X45085Y692785D02*
X45085Y704225D01*
X48898Y700412D01*
X52712Y704225D01*
X52712Y692785D01*
X56779Y700412D02*
X58686Y700412D01*
X58686Y692785D01*
X60592Y692785D02*
X56779Y692785D01*
X58686Y704225D02*
X58686Y706131D01*
X66482Y700412D02*
X72201Y700412D01*
X66482Y700412D02*
X64575Y698505D01*
X64575Y694692D01*
X66482Y692785D01*
X72201Y692785D01*
X89870Y704225D02*
X93683Y704225D01*
X89870Y704225D02*
X87963Y702318D01*
X87963Y694692D01*
X89870Y692785D01*
X93683Y692785D01*
X95589Y694692D01*
X95589Y702318D01*
X93683Y704225D01*
X99657Y700412D02*
X99657Y688972D01*
X99657Y700412D02*
X105377Y700412D01*
X107283Y698505D01*
X107283Y694692D01*
X105377Y692785D01*
X99657Y692785D01*
X123045Y692785D02*
X123045Y700412D01*
X126858Y704225D01*
X130671Y700412D01*
X130671Y692785D01*
X130671Y698505D02*
X123045Y698505D01*
X134739Y700412D02*
X134739Y692785D01*
X134739Y700412D02*
X136645Y700412D01*
X138552Y698505D01*
X138552Y692785D01*
X138552Y698505D02*
X140459Y700412D01*
X142365Y698505D01*
X142365Y692785D01*
X146433Y688972D02*
X146433Y700412D01*
X152153Y700412D01*
X154059Y698505D01*
X154059Y694692D01*
X152153Y692785D01*
X146433Y692785D01*
D12*
X6731Y172345D02*
X6731Y165481D01*
X9019Y170057D02*
X6731Y172345D01*
X9019Y170057D02*
X11307Y172345D01*
X11307Y165481D01*
X13747Y165481D02*
X16035Y165481D01*
X14891Y165481D02*
X14891Y172345D01*
X13747Y172345D02*
X16035Y172345D01*
X21857Y172345D02*
X23001Y171201D01*
X21857Y172345D02*
X19569Y172345D01*
X18425Y171201D01*
X18425Y166625D01*
X19569Y165481D01*
X21857Y165481D01*
X23001Y166625D01*
X25441Y165481D02*
X25441Y172345D01*
X28873Y172345D01*
X30017Y171201D01*
X30017Y168913D01*
X28873Y167769D01*
X25441Y167769D01*
X32458Y165481D02*
X32458Y172345D01*
X34746Y167769D02*
X32458Y165481D01*
X34746Y167769D02*
X37034Y165481D01*
X37034Y172345D01*
X39474Y172345D02*
X39474Y165481D01*
X39474Y172345D02*
X42906Y172345D01*
X44050Y171201D01*
X44050Y168913D01*
X42906Y167769D01*
X39474Y167769D01*
X41762Y167769D02*
X44050Y165481D01*
X6731Y146945D02*
X6731Y140081D01*
X9019Y144657D02*
X6731Y146945D01*
X9019Y144657D02*
X11307Y146945D01*
X11307Y140081D01*
X13747Y140081D02*
X16035Y140081D01*
X14891Y140081D02*
X14891Y146945D01*
X13747Y146945D02*
X16035Y146945D01*
X21857Y146945D02*
X23001Y145801D01*
X21857Y146945D02*
X19569Y146945D01*
X18425Y145801D01*
X18425Y141225D01*
X19569Y140081D01*
X21857Y140081D01*
X23001Y141225D01*
X26585Y146945D02*
X28873Y146945D01*
X26585Y146945D02*
X25441Y145801D01*
X25441Y141225D01*
X26585Y140081D01*
X28873Y140081D01*
X30017Y141225D01*
X30017Y145801D01*
X28873Y146945D01*
X32458Y146945D02*
X32458Y141225D01*
X33602Y140081D01*
X35890Y140081D01*
X37034Y141225D01*
X37034Y146945D01*
X41762Y146945D02*
X41762Y140081D01*
X39474Y146945D02*
X44050Y146945D01*
X29213Y70745D02*
X30357Y69601D01*
X29213Y70745D02*
X26925Y70745D01*
X25781Y69601D01*
X25781Y68457D01*
X26925Y67313D01*
X29213Y67313D01*
X30357Y66169D01*
X30357Y65025D01*
X29213Y63881D01*
X26925Y63881D01*
X25781Y65025D01*
X36229Y70745D02*
X37373Y69601D01*
X36229Y70745D02*
X33941Y70745D01*
X32797Y69601D01*
X32797Y65025D01*
X33941Y63881D01*
X36229Y63881D01*
X37373Y65025D01*
X39814Y63881D02*
X39814Y70745D01*
X39814Y63881D02*
X44390Y63881D01*
X29213Y45345D02*
X30357Y44201D01*
X29213Y45345D02*
X26925Y45345D01*
X25781Y44201D01*
X25781Y43057D01*
X26925Y41913D01*
X29213Y41913D01*
X30357Y40769D01*
X30357Y39625D01*
X29213Y38481D01*
X26925Y38481D01*
X25781Y39625D01*
X32797Y38481D02*
X32797Y45345D01*
X32797Y38481D02*
X36229Y38481D01*
X37373Y39625D01*
X37373Y44201D01*
X36229Y45345D01*
X32797Y45345D01*
X39814Y43057D02*
X39814Y38481D01*
X39814Y43057D02*
X42102Y45345D01*
X44390Y43057D01*
X44390Y38481D01*
X44390Y41913D02*
X39814Y41913D01*
X451231Y63881D02*
X453688Y63881D01*
X452460Y63881D02*
X452460Y71253D01*
X453688Y71253D02*
X451231Y71253D01*
X456220Y71253D02*
X456220Y63881D01*
X461135Y63881D02*
X456220Y71253D01*
X461135Y71253D02*
X461135Y63881D01*
X466162Y63881D02*
X466162Y71253D01*
X463705Y71253D02*
X468619Y71253D01*
X471189Y68796D02*
X473646Y71253D01*
X473646Y63881D01*
X471189Y63881D02*
X476104Y63881D01*
X540131Y190881D02*
X542588Y190881D01*
X541360Y190881D02*
X541360Y198253D01*
X542588Y198253D02*
X540131Y198253D01*
X545120Y198253D02*
X545120Y190881D01*
X550035Y190881D02*
X545120Y198253D01*
X550035Y198253D02*
X550035Y190881D01*
X555062Y190881D02*
X555062Y198253D01*
X552605Y198253D02*
X557519Y198253D01*
X560089Y190881D02*
X565004Y190881D01*
X560089Y190881D02*
X565004Y195796D01*
X565004Y197025D01*
X563775Y198253D01*
X561317Y198253D01*
X560089Y197025D01*
X525996Y677167D02*
X521081Y677167D01*
X523538Y674710D02*
X523538Y679625D01*
X487896Y677167D02*
X482981Y677167D01*
X424396Y677167D02*
X419481Y677167D01*
X421938Y674710D02*
X421938Y679625D01*
X386296Y677167D02*
X381381Y677167D01*
X359667Y617353D02*
X360896Y616125D01*
X359667Y617353D02*
X357210Y617353D01*
X355981Y616125D01*
X355981Y611210D01*
X357210Y609981D01*
X359667Y609981D01*
X360896Y611210D01*
X363465Y616125D02*
X364694Y617353D01*
X367151Y617353D01*
X368380Y616125D01*
X368380Y614896D01*
X367151Y613667D01*
X365923Y613667D01*
X367151Y613667D02*
X368380Y612438D01*
X368380Y611210D01*
X367151Y609981D01*
X364694Y609981D01*
X363465Y611210D01*
X343281Y603425D02*
X343281Y598510D01*
X343281Y603425D02*
X344510Y604653D01*
X346967Y604653D01*
X348196Y603425D01*
X348196Y598510D01*
X346967Y597281D01*
X344510Y597281D01*
X343281Y598510D01*
X348196Y603425D01*
X350765Y598510D02*
X350765Y597281D01*
X350765Y598510D02*
X351994Y598510D01*
X351994Y597281D01*
X350765Y597281D01*
X358193Y597281D02*
X358193Y604653D01*
X354507Y600967D01*
X359422Y600967D01*
X361991Y604653D02*
X366906Y604653D01*
X366906Y603425D01*
X361991Y598510D01*
X361991Y597281D01*
X369476Y598510D02*
X369476Y602196D01*
X369476Y598510D02*
X370704Y597281D01*
X374390Y597281D01*
X374390Y602196D01*
X376960Y604653D02*
X376960Y597281D01*
X376960Y604653D02*
X381875Y604653D01*
X379417Y600967D02*
X376960Y600967D01*
X448567Y668153D02*
X449796Y666925D01*
X448567Y668153D02*
X446110Y668153D01*
X444881Y666925D01*
X444881Y662010D01*
X446110Y660781D01*
X448567Y660781D01*
X449796Y662010D01*
X452365Y660781D02*
X457280Y660781D01*
X452365Y660781D02*
X457280Y665696D01*
X457280Y666925D01*
X456051Y668153D01*
X453594Y668153D01*
X452365Y666925D01*
X448567Y655453D02*
X448567Y648081D01*
X444881Y651767D02*
X448567Y655453D01*
X449796Y651767D02*
X444881Y651767D01*
X452365Y649310D02*
X452365Y648081D01*
X452365Y649310D02*
X453594Y649310D01*
X453594Y648081D01*
X452365Y648081D01*
X456107Y655453D02*
X461022Y655453D01*
X461022Y654225D01*
X456107Y649310D01*
X456107Y648081D01*
X463591Y649310D02*
X463591Y652996D01*
X463591Y649310D02*
X464820Y648081D01*
X468506Y648081D01*
X468506Y652996D01*
X471076Y655453D02*
X471076Y648081D01*
X471076Y655453D02*
X475990Y655453D01*
X473533Y651767D02*
X471076Y651767D01*
X348196Y666925D02*
X346967Y668153D01*
X344510Y668153D01*
X343281Y666925D01*
X343281Y662010D01*
X344510Y660781D01*
X346967Y660781D01*
X348196Y662010D01*
X350765Y665696D02*
X353223Y668153D01*
X353223Y660781D01*
X355680Y660781D02*
X350765Y660781D01*
X346967Y655453D02*
X346967Y648081D01*
X343281Y651767D02*
X346967Y655453D01*
X348196Y651767D02*
X343281Y651767D01*
X350765Y649310D02*
X350765Y648081D01*
X350765Y649310D02*
X351994Y649310D01*
X351994Y648081D01*
X350765Y648081D01*
X354507Y655453D02*
X359422Y655453D01*
X359422Y654225D01*
X354507Y649310D01*
X354507Y648081D01*
X361991Y649310D02*
X361991Y652996D01*
X361991Y649310D02*
X363220Y648081D01*
X366906Y648081D01*
X366906Y652996D01*
X369476Y655453D02*
X369476Y648081D01*
X369476Y655453D02*
X374390Y655453D01*
X371933Y651767D02*
X369476Y651767D01*
X461267Y541153D02*
X462496Y539925D01*
X461267Y541153D02*
X458810Y541153D01*
X457581Y539925D01*
X457581Y535010D01*
X458810Y533781D01*
X461267Y533781D01*
X462496Y535010D01*
X465065Y539925D02*
X466294Y541153D01*
X468751Y541153D01*
X469980Y539925D01*
X469980Y538696D01*
X468751Y537467D01*
X469980Y536238D01*
X469980Y535010D01*
X468751Y533781D01*
X466294Y533781D01*
X465065Y535010D01*
X465065Y536238D01*
X466294Y537467D01*
X465065Y538696D01*
X465065Y539925D01*
X466294Y537467D02*
X468751Y537467D01*
X457581Y527225D02*
X457581Y522310D01*
X457581Y527225D02*
X458810Y528453D01*
X461267Y528453D01*
X462496Y527225D01*
X462496Y522310D01*
X461267Y521081D01*
X458810Y521081D01*
X457581Y522310D01*
X462496Y527225D01*
X465065Y522310D02*
X465065Y521081D01*
X465065Y522310D02*
X466294Y522310D01*
X466294Y521081D01*
X465065Y521081D01*
X468807Y525996D02*
X471265Y528453D01*
X471265Y521081D01*
X473722Y521081D02*
X468807Y521081D01*
X476291Y522310D02*
X476291Y525996D01*
X476291Y522310D02*
X477520Y521081D01*
X481206Y521081D01*
X481206Y525996D01*
X483776Y528453D02*
X483776Y521081D01*
X483776Y528453D02*
X488690Y528453D01*
X486233Y524767D02*
X483776Y524767D01*
X462496Y578025D02*
X461267Y579253D01*
X458810Y579253D01*
X457581Y578025D01*
X457581Y573110D01*
X458810Y571881D01*
X461267Y571881D01*
X462496Y573110D01*
X465065Y579253D02*
X469980Y579253D01*
X469980Y578025D01*
X465065Y573110D01*
X465065Y571881D01*
X444881Y565325D02*
X444881Y560410D01*
X444881Y565325D02*
X446110Y566553D01*
X448567Y566553D01*
X449796Y565325D01*
X449796Y560410D01*
X448567Y559181D01*
X446110Y559181D01*
X444881Y560410D01*
X449796Y565325D01*
X452365Y560410D02*
X452365Y559181D01*
X452365Y560410D02*
X453594Y560410D01*
X453594Y559181D01*
X452365Y559181D01*
X459793Y559181D02*
X459793Y566553D01*
X456107Y562867D01*
X461022Y562867D01*
X463591Y566553D02*
X468506Y566553D01*
X468506Y565325D01*
X463591Y560410D01*
X463591Y559181D01*
X471076Y560410D02*
X471076Y564096D01*
X471076Y560410D02*
X472304Y559181D01*
X475990Y559181D01*
X475990Y564096D01*
X478560Y566553D02*
X478560Y559181D01*
X478560Y566553D02*
X483475Y566553D01*
X481017Y562867D02*
X478560Y562867D01*
X360896Y578025D02*
X359667Y579253D01*
X357210Y579253D01*
X355981Y578025D01*
X355981Y573110D01*
X357210Y571881D01*
X359667Y571881D01*
X360896Y573110D01*
X367151Y571881D02*
X367151Y579253D01*
X363465Y575567D01*
X368380Y575567D01*
X360896Y566553D02*
X355981Y566553D01*
X355981Y562867D01*
X358438Y564096D01*
X359667Y564096D01*
X360896Y562867D01*
X360896Y560410D01*
X359667Y559181D01*
X357210Y559181D01*
X355981Y560410D01*
X363465Y564096D02*
X365923Y566553D01*
X365923Y559181D01*
X368380Y559181D02*
X363465Y559181D01*
X370949Y556724D02*
X370949Y564096D01*
X374635Y564096D01*
X375864Y562867D01*
X375864Y560410D01*
X374635Y559181D01*
X370949Y559181D01*
X378433Y559181D02*
X378433Y566553D01*
X383348Y566553D01*
X380891Y562867D02*
X378433Y562867D01*
X359667Y541153D02*
X360896Y539925D01*
X359667Y541153D02*
X357210Y541153D01*
X355981Y539925D01*
X355981Y535010D01*
X357210Y533781D01*
X359667Y533781D01*
X360896Y535010D01*
X363465Y541153D02*
X368380Y541153D01*
X363465Y541153D02*
X363465Y537467D01*
X365923Y538696D01*
X367151Y538696D01*
X368380Y537467D01*
X368380Y535010D01*
X367151Y533781D01*
X364694Y533781D01*
X363465Y535010D01*
X343281Y527225D02*
X343281Y522310D01*
X343281Y527225D02*
X344510Y528453D01*
X346967Y528453D01*
X348196Y527225D01*
X348196Y522310D01*
X346967Y521081D01*
X344510Y521081D01*
X343281Y522310D01*
X348196Y527225D01*
X350765Y522310D02*
X350765Y521081D01*
X350765Y522310D02*
X351994Y522310D01*
X351994Y521081D01*
X350765Y521081D01*
X354507Y522310D02*
X354507Y527225D01*
X355736Y528453D01*
X358193Y528453D01*
X359422Y527225D01*
X359422Y522310D01*
X358193Y521081D01*
X355736Y521081D01*
X354507Y522310D01*
X359422Y527225D01*
X361991Y525996D02*
X364449Y528453D01*
X364449Y521081D01*
X366906Y521081D02*
X361991Y521081D01*
X369476Y528453D02*
X374390Y528453D01*
X369476Y528453D02*
X369476Y524767D01*
X371933Y525996D01*
X373162Y525996D01*
X374390Y524767D01*
X374390Y522310D01*
X373162Y521081D01*
X370704Y521081D01*
X369476Y522310D01*
X376960Y522310D02*
X376960Y525996D01*
X376960Y522310D02*
X378188Y521081D01*
X381875Y521081D01*
X381875Y525996D01*
X384444Y528453D02*
X384444Y521081D01*
X384444Y528453D02*
X389359Y528453D01*
X386901Y524767D02*
X384444Y524767D01*
X462496Y616125D02*
X461267Y617353D01*
X458810Y617353D01*
X457581Y616125D01*
X457581Y611210D01*
X458810Y609981D01*
X461267Y609981D01*
X462496Y611210D01*
X467523Y616125D02*
X469980Y617353D01*
X467523Y616125D02*
X465065Y613667D01*
X465065Y611210D01*
X466294Y609981D01*
X468751Y609981D01*
X469980Y611210D01*
X469980Y612438D01*
X468751Y613667D01*
X465065Y613667D01*
X444881Y603425D02*
X444881Y598510D01*
X444881Y603425D02*
X446110Y604653D01*
X448567Y604653D01*
X449796Y603425D01*
X449796Y598510D01*
X448567Y597281D01*
X446110Y597281D01*
X444881Y598510D01*
X449796Y603425D01*
X452365Y598510D02*
X452365Y597281D01*
X452365Y598510D02*
X453594Y598510D01*
X453594Y597281D01*
X452365Y597281D01*
X456107Y602196D02*
X458565Y604653D01*
X458565Y597281D01*
X461022Y597281D02*
X456107Y597281D01*
X463591Y604653D02*
X468506Y604653D01*
X463591Y604653D02*
X463591Y600967D01*
X466049Y602196D01*
X467278Y602196D01*
X468506Y600967D01*
X468506Y598510D01*
X467278Y597281D01*
X464820Y597281D01*
X463591Y598510D01*
X471076Y598510D02*
X471076Y602196D01*
X471076Y598510D02*
X472304Y597281D01*
X475990Y597281D01*
X475990Y602196D01*
X478560Y604653D02*
X478560Y597281D01*
X478560Y604653D02*
X483475Y604653D01*
X481017Y600967D02*
X478560Y600967D01*
D14*
X45672Y292735D02*
X43765Y294642D01*
X45672Y292735D02*
X47578Y292735D01*
X49485Y294642D01*
X49485Y304175D01*
X47578Y304175D02*
X51392Y304175D01*
X55459Y300362D02*
X59272Y304175D01*
X59272Y292735D01*
X55459Y292735D02*
X63086Y292735D01*
X67153Y292735D02*
X74779Y304175D01*
X78847Y294642D02*
X80754Y292735D01*
X82660Y292735D01*
X84567Y294642D01*
X84567Y304175D01*
X86473Y304175D02*
X82660Y304175D01*
X90541Y302268D02*
X92448Y304175D01*
X96261Y304175D01*
X98167Y302268D01*
X98167Y300362D01*
X96261Y298455D01*
X94354Y298455D01*
X96261Y298455D02*
X98167Y296548D01*
X98167Y294642D01*
X96261Y292735D01*
X92448Y292735D01*
X90541Y294642D01*
X483235Y294642D02*
X485142Y292735D01*
X487048Y292735D01*
X488955Y294642D01*
X488955Y304175D01*
X487048Y304175D02*
X490862Y304175D01*
X500649Y304175D02*
X500649Y292735D01*
X494929Y298455D02*
X500649Y304175D01*
X502555Y298455D02*
X494929Y298455D01*
X506623Y292735D02*
X514249Y304175D01*
X518317Y294642D02*
X520224Y292735D01*
X522130Y292735D01*
X524037Y294642D01*
X524037Y304175D01*
X525943Y304175D02*
X522130Y304175D01*
X530011Y292735D02*
X537637Y292735D01*
X530011Y292735D02*
X537637Y300362D01*
X537637Y302268D01*
X535731Y304175D01*
X531918Y304175D01*
X530011Y302268D01*
D12*
X140081Y552831D02*
X140081Y560203D01*
X143767Y560203D01*
X144996Y558975D01*
X144996Y556517D01*
X143767Y555288D01*
X140081Y555288D01*
X142538Y555288D02*
X144996Y552831D01*
X147565Y558975D02*
X148794Y560203D01*
X151251Y560203D01*
X152480Y558975D01*
X152480Y557746D01*
X151251Y556517D01*
X152480Y555288D01*
X152480Y554060D01*
X151251Y552831D01*
X148794Y552831D01*
X147565Y554060D01*
X147565Y555288D01*
X148794Y556517D01*
X147565Y557746D01*
X147565Y558975D01*
X148794Y556517D02*
X151251Y556517D01*
X141310Y541153D02*
X140081Y539925D01*
X141310Y541153D02*
X143767Y541153D01*
X144996Y539925D01*
X144996Y538696D01*
X143767Y537467D01*
X144996Y536238D01*
X144996Y535010D01*
X143767Y533781D01*
X141310Y533781D01*
X140081Y535010D01*
X140081Y536238D01*
X141310Y537467D01*
X140081Y538696D01*
X140081Y539925D01*
X141310Y537467D02*
X143767Y537467D01*
X147565Y533781D02*
X152480Y533781D01*
X147565Y533781D02*
X152480Y538696D01*
X152480Y539925D01*
X151251Y541153D01*
X148794Y541153D01*
X147565Y539925D01*
X155049Y539925D02*
X155049Y535010D01*
X155049Y539925D02*
X156278Y541153D01*
X158735Y541153D01*
X159964Y539925D01*
X159964Y535010D01*
X158735Y533781D01*
X156278Y533781D01*
X155049Y535010D01*
X159964Y539925D01*
X63881Y660781D02*
X63881Y668153D01*
X67567Y668153D01*
X68796Y666925D01*
X68796Y664467D01*
X67567Y663238D01*
X63881Y663238D01*
X66338Y663238D02*
X68796Y660781D01*
X71365Y665696D02*
X73823Y668153D01*
X73823Y660781D01*
X76280Y660781D02*
X71365Y660781D01*
X68796Y655453D02*
X63881Y655453D01*
X63881Y651767D01*
X66338Y652996D01*
X67567Y652996D01*
X68796Y651767D01*
X68796Y649310D01*
X67567Y648081D01*
X65110Y648081D01*
X63881Y649310D01*
X71365Y652996D02*
X73823Y655453D01*
X73823Y648081D01*
X76280Y648081D02*
X71365Y648081D01*
X78849Y648081D02*
X78849Y655453D01*
X78849Y650538D02*
X82535Y648081D01*
X78849Y650538D02*
X82535Y652996D01*
X63881Y630053D02*
X63881Y622681D01*
X63881Y630053D02*
X67567Y630053D01*
X68796Y628825D01*
X68796Y626367D01*
X67567Y625138D01*
X63881Y625138D01*
X66338Y625138D02*
X68796Y622681D01*
X71365Y622681D02*
X76280Y622681D01*
X71365Y622681D02*
X76280Y627596D01*
X76280Y628825D01*
X75051Y630053D01*
X72594Y630053D01*
X71365Y628825D01*
X67567Y617353D02*
X67567Y609981D01*
X63881Y613667D02*
X67567Y617353D01*
X68796Y613667D02*
X63881Y613667D01*
X71365Y617353D02*
X76280Y617353D01*
X76280Y616125D01*
X71365Y611210D01*
X71365Y609981D01*
X78849Y609981D02*
X78849Y617353D01*
X78849Y612438D02*
X82535Y609981D01*
X78849Y612438D02*
X82535Y614896D01*
X63881Y591953D02*
X63881Y584581D01*
X63881Y591953D02*
X67567Y591953D01*
X68796Y590725D01*
X68796Y588267D01*
X67567Y587038D01*
X63881Y587038D01*
X66338Y587038D02*
X68796Y584581D01*
X71365Y590725D02*
X72594Y591953D01*
X75051Y591953D01*
X76280Y590725D01*
X76280Y589496D01*
X75051Y588267D01*
X73823Y588267D01*
X75051Y588267D02*
X76280Y587038D01*
X76280Y585810D01*
X75051Y584581D01*
X72594Y584581D01*
X71365Y585810D01*
X65110Y579253D02*
X63881Y578025D01*
X65110Y579253D02*
X67567Y579253D01*
X68796Y578025D01*
X68796Y576796D01*
X67567Y575567D01*
X66338Y575567D01*
X67567Y575567D02*
X68796Y574338D01*
X68796Y573110D01*
X67567Y571881D01*
X65110Y571881D01*
X63881Y573110D01*
X71365Y571881D02*
X71365Y579253D01*
X71365Y574338D02*
X75051Y571881D01*
X71365Y574338D02*
X75051Y576796D01*
X63881Y553853D02*
X63881Y546481D01*
X63881Y553853D02*
X67567Y553853D01*
X68796Y552625D01*
X68796Y550167D01*
X67567Y548938D01*
X63881Y548938D01*
X66338Y548938D02*
X68796Y546481D01*
X75051Y546481D02*
X75051Y553853D01*
X71365Y550167D01*
X76280Y550167D01*
X58760Y541153D02*
X57531Y539925D01*
X58760Y541153D02*
X61217Y541153D01*
X62446Y539925D01*
X62446Y538696D01*
X61217Y537467D01*
X62446Y536238D01*
X62446Y535010D01*
X61217Y533781D01*
X58760Y533781D01*
X57531Y535010D01*
X57531Y536238D01*
X58760Y537467D01*
X57531Y538696D01*
X57531Y539925D01*
X58760Y537467D02*
X61217Y537467D01*
X65015Y535010D02*
X65015Y533781D01*
X65015Y535010D02*
X66244Y535010D01*
X66244Y533781D01*
X65015Y533781D01*
X68757Y533781D02*
X73672Y533781D01*
X68757Y533781D02*
X73672Y538696D01*
X73672Y539925D01*
X72443Y541153D01*
X69986Y541153D01*
X68757Y539925D01*
X76241Y541153D02*
X76241Y533781D01*
X76241Y536238D02*
X79928Y533781D01*
X76241Y536238D02*
X79928Y538696D01*
X140081Y660781D02*
X140081Y668153D01*
X143767Y668153D01*
X144996Y666925D01*
X144996Y664467D01*
X143767Y663238D01*
X140081Y663238D01*
X142538Y663238D02*
X144996Y660781D01*
X147565Y668153D02*
X152480Y668153D01*
X147565Y668153D02*
X147565Y664467D01*
X150023Y665696D01*
X151251Y665696D01*
X152480Y664467D01*
X152480Y662010D01*
X151251Y660781D01*
X148794Y660781D01*
X147565Y662010D01*
X143767Y655453D02*
X143767Y648081D01*
X140081Y651767D02*
X143767Y655453D01*
X144996Y651767D02*
X140081Y651767D01*
X147565Y655453D02*
X152480Y655453D01*
X152480Y654225D01*
X147565Y649310D01*
X147565Y648081D01*
X155049Y649310D02*
X155049Y654225D01*
X156278Y655453D01*
X158735Y655453D01*
X159964Y654225D01*
X159964Y649310D01*
X158735Y648081D01*
X156278Y648081D01*
X155049Y649310D01*
X159964Y654225D01*
X139781Y633053D02*
X139781Y625681D01*
X139781Y633053D02*
X143467Y633053D01*
X144696Y631825D01*
X144696Y629367D01*
X143467Y628138D01*
X139781Y628138D01*
X142238Y628138D02*
X144696Y625681D01*
X149723Y631825D02*
X152180Y633053D01*
X149723Y631825D02*
X147265Y629367D01*
X147265Y626910D01*
X148494Y625681D01*
X150951Y625681D01*
X152180Y626910D01*
X152180Y628138D01*
X150951Y629367D01*
X147265Y629367D01*
X138646Y609981D02*
X133731Y609981D01*
X138646Y614896D01*
X138646Y616125D01*
X137417Y617353D01*
X134960Y617353D01*
X133731Y616125D01*
X141215Y616125D02*
X141215Y611210D01*
X141215Y616125D02*
X142444Y617353D01*
X144901Y617353D01*
X146130Y616125D01*
X146130Y611210D01*
X144901Y609981D01*
X142444Y609981D01*
X141215Y611210D01*
X146130Y616125D01*
X148699Y616125D02*
X148699Y611210D01*
X148699Y616125D02*
X149928Y617353D01*
X152385Y617353D01*
X153614Y616125D01*
X153614Y611210D01*
X152385Y609981D01*
X149928Y609981D01*
X148699Y611210D01*
X153614Y616125D01*
X156183Y617353D02*
X156183Y609981D01*
X156183Y612438D02*
X159870Y609981D01*
X156183Y612438D02*
X159870Y614896D01*
X139781Y594953D02*
X139781Y587581D01*
X139781Y594953D02*
X143467Y594953D01*
X144696Y593725D01*
X144696Y591267D01*
X143467Y590038D01*
X139781Y590038D01*
X142238Y590038D02*
X144696Y587581D01*
X147265Y594953D02*
X152180Y594953D01*
X152180Y593725D01*
X147265Y588810D01*
X147265Y587581D01*
X141310Y579253D02*
X140081Y578025D01*
X141310Y579253D02*
X143767Y579253D01*
X144996Y578025D01*
X144996Y576796D01*
X143767Y575567D01*
X144996Y574338D01*
X144996Y573110D01*
X143767Y571881D01*
X141310Y571881D01*
X140081Y573110D01*
X140081Y574338D01*
X141310Y575567D01*
X140081Y576796D01*
X140081Y578025D01*
X141310Y575567D02*
X143767Y575567D01*
X147565Y571881D02*
X152480Y571881D01*
X147565Y571881D02*
X152480Y576796D01*
X152480Y578025D01*
X151251Y579253D01*
X148794Y579253D01*
X147565Y578025D01*
X155049Y578025D02*
X155049Y573110D01*
X155049Y578025D02*
X156278Y579253D01*
X158735Y579253D01*
X159964Y578025D01*
X159964Y573110D01*
X158735Y571881D01*
X156278Y571881D01*
X155049Y573110D01*
X159964Y578025D01*
D14*
X249176Y564525D02*
X252989Y564525D01*
X249176Y564525D02*
X247269Y562618D01*
X247269Y554992D01*
X249176Y553085D01*
X252989Y553085D01*
X254896Y554992D01*
X254896Y562618D01*
X252989Y564525D01*
X258963Y564525D02*
X258963Y553085D01*
X258963Y564525D02*
X264683Y564525D01*
X266589Y562618D01*
X266589Y558805D01*
X264683Y556898D01*
X258963Y556898D01*
X270657Y553085D02*
X270657Y560712D01*
X274470Y564525D01*
X278283Y560712D01*
X278283Y553085D01*
X278283Y558805D02*
X270657Y558805D01*
X282351Y553085D02*
X282351Y564525D01*
X286164Y560712D01*
X289977Y564525D01*
X289977Y553085D01*
X294045Y553085D02*
X294045Y564525D01*
X299765Y564525D01*
X301671Y562618D01*
X301671Y558805D01*
X299765Y556898D01*
X294045Y556898D01*
D12*
X237788Y629031D02*
X237788Y636403D01*
X235331Y636403D02*
X240246Y636403D01*
X242815Y636403D02*
X242815Y629031D01*
X247730Y629031D01*
X250299Y631488D02*
X250299Y636403D01*
X250299Y631488D02*
X252757Y629031D01*
X255214Y631488D01*
X255214Y636403D01*
X257783Y629031D02*
X262698Y629031D01*
X257783Y629031D02*
X262698Y633946D01*
X262698Y635175D01*
X261470Y636403D01*
X259012Y636403D01*
X257783Y635175D01*
X265268Y636403D02*
X270182Y636403D01*
X270182Y635175D01*
X265268Y630260D01*
X265268Y629031D01*
X275209Y635175D02*
X277667Y636403D01*
X275209Y635175D02*
X272752Y632717D01*
X272752Y630260D01*
X273980Y629031D01*
X276438Y629031D01*
X277667Y630260D01*
X277667Y631488D01*
X276438Y632717D01*
X272752Y632717D01*
X280236Y630260D02*
X280236Y635175D01*
X281465Y636403D01*
X283922Y636403D01*
X285151Y635175D01*
X285151Y630260D01*
X283922Y629031D01*
X281465Y629031D01*
X280236Y630260D01*
X285151Y635175D01*
X287720Y629031D02*
X290178Y629031D01*
X288949Y629031D02*
X288949Y636403D01*
X287720Y636403D02*
X290178Y636403D01*
X292710Y636403D02*
X292710Y629031D01*
X296396Y629031D01*
X297624Y630260D01*
X297624Y635175D01*
X296396Y636403D01*
X292710Y636403D01*
X300194Y636403D02*
X300194Y629031D01*
X300194Y636403D02*
X303880Y636403D01*
X305109Y635175D01*
X305109Y633946D01*
X303880Y632717D01*
X305109Y631488D01*
X305109Y630260D01*
X303880Y629031D01*
X300194Y629031D01*
X300194Y632717D02*
X303880Y632717D01*
X307678Y631488D02*
X307678Y636403D01*
X307678Y631488D02*
X310135Y629031D01*
X312593Y631488D01*
X312593Y636403D01*
X315162Y636403D02*
X315162Y629031D01*
X315162Y636403D02*
X318848Y636403D01*
X320077Y635175D01*
X320077Y632717D01*
X318848Y631488D01*
X315162Y631488D01*
X317619Y631488D02*
X320077Y629031D01*
M02*
