G04 EAGLE Gerber RS-274X export*
G75*
%MOMM*%
%FSLAX34Y34*%
%LPD*%
%INTop Layer*%
%IPPOS*%
%AMOC8*
5,1,8,0,0,1.08239X$1,22.5*%
G01*
%ADD10C,0.000000*%
%ADD11R,1.100000X1.000000*%
%ADD12R,2.150000X1.800000*%
%ADD13P,1.649562X8X112.500000*%
%ADD14R,0.800000X1.600000*%
%ADD15R,1.473200X0.558800*%
%ADD16C,1.524000*%
%ADD17P,1.649562X8X292.500000*%
%ADD18C,1.524000*%
%ADD19C,0.203200*%
%ADD20C,0.756400*%

G36*
X573298Y10164D02*
X573298Y10164D01*
X573317Y10162D01*
X573419Y10184D01*
X573521Y10200D01*
X573538Y10210D01*
X573558Y10214D01*
X573647Y10267D01*
X573738Y10316D01*
X573752Y10330D01*
X573769Y10340D01*
X573836Y10419D01*
X573908Y10494D01*
X573916Y10512D01*
X573929Y10527D01*
X573968Y10623D01*
X574011Y10717D01*
X574013Y10737D01*
X574021Y10755D01*
X574039Y10922D01*
X574039Y751078D01*
X574036Y751098D01*
X574038Y751117D01*
X574016Y751219D01*
X574000Y751321D01*
X573990Y751338D01*
X573986Y751358D01*
X573933Y751447D01*
X573884Y751538D01*
X573870Y751552D01*
X573860Y751569D01*
X573781Y751636D01*
X573706Y751708D01*
X573688Y751716D01*
X573673Y751729D01*
X573577Y751768D01*
X573483Y751811D01*
X573463Y751813D01*
X573445Y751821D01*
X573278Y751839D01*
X10922Y751839D01*
X10902Y751836D01*
X10883Y751838D01*
X10781Y751816D01*
X10679Y751800D01*
X10662Y751790D01*
X10642Y751786D01*
X10553Y751733D01*
X10462Y751684D01*
X10448Y751670D01*
X10431Y751660D01*
X10364Y751581D01*
X10292Y751506D01*
X10284Y751488D01*
X10271Y751473D01*
X10232Y751377D01*
X10189Y751283D01*
X10187Y751263D01*
X10179Y751245D01*
X10161Y751078D01*
X10161Y10922D01*
X10164Y10902D01*
X10162Y10883D01*
X10184Y10781D01*
X10200Y10679D01*
X10210Y10662D01*
X10214Y10642D01*
X10267Y10553D01*
X10316Y10462D01*
X10330Y10448D01*
X10340Y10431D01*
X10419Y10364D01*
X10494Y10292D01*
X10512Y10284D01*
X10527Y10271D01*
X10623Y10232D01*
X10717Y10189D01*
X10737Y10187D01*
X10755Y10179D01*
X10922Y10161D01*
X573278Y10161D01*
X573298Y10164D01*
G37*
%LPC*%
G36*
X277581Y46735D02*
X277581Y46735D01*
X274220Y48127D01*
X271647Y50700D01*
X270255Y54061D01*
X270255Y72939D01*
X271647Y76300D01*
X274220Y78873D01*
X277581Y80265D01*
X281219Y80265D01*
X281952Y79961D01*
X282066Y79935D01*
X282179Y79906D01*
X282185Y79907D01*
X282191Y79905D01*
X282307Y79916D01*
X282424Y79925D01*
X282430Y79928D01*
X282436Y79928D01*
X282543Y79976D01*
X282650Y80021D01*
X282656Y80026D01*
X282661Y80028D01*
X282674Y80041D01*
X282781Y80126D01*
X351058Y148403D01*
X351111Y148477D01*
X351171Y148547D01*
X351183Y148577D01*
X351202Y148603D01*
X351229Y148690D01*
X351263Y148775D01*
X351267Y148816D01*
X351274Y148838D01*
X351273Y148870D01*
X351281Y148942D01*
X351281Y171740D01*
X359882Y180341D01*
X365103Y180341D01*
X365199Y180356D01*
X365296Y180366D01*
X365320Y180376D01*
X365346Y180380D01*
X365432Y180426D01*
X365521Y180466D01*
X365540Y180483D01*
X365563Y180496D01*
X365630Y180566D01*
X365702Y180632D01*
X365715Y180655D01*
X365733Y180674D01*
X365774Y180762D01*
X365821Y180848D01*
X365825Y180873D01*
X365836Y180897D01*
X365847Y180994D01*
X365864Y181090D01*
X365861Y181116D01*
X365864Y181141D01*
X365843Y181237D01*
X365829Y181333D01*
X365817Y181356D01*
X365811Y181382D01*
X365761Y181465D01*
X365717Y181552D01*
X365698Y181571D01*
X365685Y181593D01*
X365611Y181656D01*
X365542Y181724D01*
X365513Y181740D01*
X365498Y181753D01*
X365467Y181765D01*
X365395Y181805D01*
X363120Y182747D01*
X360547Y185320D01*
X359155Y188681D01*
X359155Y192319D01*
X360547Y195680D01*
X363120Y198253D01*
X366481Y199645D01*
X370119Y199645D01*
X373480Y198253D01*
X376053Y195680D01*
X377445Y192319D01*
X377445Y188681D01*
X376053Y185320D01*
X373480Y182747D01*
X371205Y181805D01*
X371122Y181754D01*
X371037Y181708D01*
X371019Y181690D01*
X370996Y181676D01*
X370934Y181600D01*
X370867Y181530D01*
X370856Y181506D01*
X370840Y181486D01*
X370805Y181395D01*
X370764Y181307D01*
X370761Y181281D01*
X370751Y181257D01*
X370747Y181159D01*
X370736Y181063D01*
X370742Y181037D01*
X370741Y181011D01*
X370768Y180917D01*
X370789Y180822D01*
X370802Y180800D01*
X370809Y180775D01*
X370865Y180695D01*
X370915Y180611D01*
X370935Y180594D01*
X370950Y180573D01*
X371028Y180514D01*
X371102Y180451D01*
X371126Y180441D01*
X371147Y180426D01*
X371240Y180396D01*
X371330Y180359D01*
X371362Y180356D01*
X371381Y180350D01*
X371414Y180350D01*
X371497Y180341D01*
X379124Y180341D01*
X379214Y180355D01*
X379305Y180363D01*
X379335Y180375D01*
X379367Y180380D01*
X379448Y180423D01*
X379532Y180459D01*
X379564Y180485D01*
X379584Y180496D01*
X379607Y180519D01*
X379663Y180564D01*
X384645Y185546D01*
X384656Y185562D01*
X384672Y185575D01*
X384728Y185662D01*
X384788Y185746D01*
X384794Y185765D01*
X384805Y185782D01*
X384830Y185882D01*
X384861Y185981D01*
X384860Y186001D01*
X384865Y186020D01*
X384857Y186123D01*
X384854Y186227D01*
X384848Y186246D01*
X384846Y186265D01*
X384806Y186360D01*
X384770Y186458D01*
X384757Y186473D01*
X384750Y186492D01*
X384645Y186623D01*
X384555Y186712D01*
X384555Y194288D01*
X389912Y199645D01*
X397488Y199645D01*
X397577Y199555D01*
X397594Y199544D01*
X397606Y199528D01*
X397693Y199472D01*
X397777Y199412D01*
X397796Y199406D01*
X397813Y199395D01*
X397914Y199370D01*
X398012Y199339D01*
X398032Y199340D01*
X398052Y199335D01*
X398154Y199343D01*
X398258Y199346D01*
X398277Y199352D01*
X398297Y199354D01*
X398391Y199394D01*
X398489Y199430D01*
X398505Y199443D01*
X398523Y199450D01*
X398654Y199555D01*
X528858Y329759D01*
X528911Y329833D01*
X528971Y329903D01*
X528983Y329933D01*
X529002Y329959D01*
X529029Y330046D01*
X529063Y330131D01*
X529067Y330172D01*
X529074Y330194D01*
X529073Y330226D01*
X529081Y330298D01*
X529081Y515874D01*
X529078Y515894D01*
X529080Y515913D01*
X529058Y516015D01*
X529042Y516117D01*
X529032Y516134D01*
X529028Y516154D01*
X528975Y516243D01*
X528926Y516334D01*
X528912Y516348D01*
X528902Y516365D01*
X528823Y516432D01*
X528748Y516504D01*
X528730Y516512D01*
X528715Y516525D01*
X528619Y516564D01*
X528525Y516607D01*
X528505Y516609D01*
X528487Y516617D01*
X528320Y516635D01*
X171414Y516635D01*
X144967Y543082D01*
X144893Y543135D01*
X144823Y543195D01*
X144793Y543207D01*
X144767Y543226D01*
X144680Y543253D01*
X144595Y543287D01*
X144554Y543291D01*
X144532Y543298D01*
X144500Y543297D01*
X144428Y543305D01*
X126586Y543305D01*
X126566Y543302D01*
X126547Y543304D01*
X126445Y543282D01*
X126343Y543266D01*
X126326Y543256D01*
X126306Y543252D01*
X126217Y543199D01*
X126126Y543150D01*
X126112Y543136D01*
X126095Y543126D01*
X126028Y543047D01*
X125956Y542972D01*
X125948Y542954D01*
X125935Y542939D01*
X125896Y542843D01*
X125853Y542749D01*
X125851Y542729D01*
X125843Y542711D01*
X125825Y542544D01*
X125825Y537468D01*
X124932Y536575D01*
X115668Y536575D01*
X114775Y537468D01*
X114775Y554732D01*
X115668Y555625D01*
X124932Y555625D01*
X125825Y554732D01*
X125825Y549148D01*
X125828Y549128D01*
X125826Y549109D01*
X125848Y549007D01*
X125864Y548905D01*
X125874Y548888D01*
X125878Y548868D01*
X125931Y548779D01*
X125980Y548688D01*
X125994Y548674D01*
X126004Y548657D01*
X126083Y548590D01*
X126158Y548518D01*
X126176Y548510D01*
X126191Y548497D01*
X126287Y548458D01*
X126381Y548415D01*
X126401Y548413D01*
X126419Y548405D01*
X126586Y548387D01*
X146848Y548387D01*
X173295Y521940D01*
X173369Y521887D01*
X173439Y521827D01*
X173469Y521815D01*
X173495Y521796D01*
X173582Y521769D01*
X173667Y521735D01*
X173708Y521731D01*
X173730Y521724D01*
X173762Y521725D01*
X173834Y521717D01*
X326292Y521717D01*
X326363Y521728D01*
X326435Y521730D01*
X326484Y521748D01*
X326535Y521756D01*
X326598Y521790D01*
X326666Y521815D01*
X326706Y521847D01*
X326752Y521872D01*
X326802Y521924D01*
X326858Y521968D01*
X326886Y522012D01*
X326922Y522050D01*
X326952Y522115D01*
X326991Y522175D01*
X327004Y522226D01*
X327025Y522273D01*
X327033Y522344D01*
X327051Y522414D01*
X327047Y522466D01*
X327053Y522517D01*
X327037Y522588D01*
X327032Y522659D01*
X327011Y522707D01*
X327000Y522758D01*
X326963Y522819D01*
X326935Y522885D01*
X326891Y522941D01*
X326874Y522969D01*
X326871Y522972D01*
X326870Y522973D01*
X326855Y522986D01*
X326831Y523016D01*
X271205Y578642D01*
X269493Y580354D01*
X269493Y582320D01*
X269490Y582340D01*
X269492Y582359D01*
X269470Y582461D01*
X269454Y582563D01*
X269444Y582580D01*
X269440Y582600D01*
X269387Y582689D01*
X269338Y582780D01*
X269324Y582794D01*
X269314Y582811D01*
X269235Y582878D01*
X269160Y582950D01*
X269142Y582958D01*
X269127Y582971D01*
X269031Y583010D01*
X268937Y583053D01*
X268917Y583055D01*
X268899Y583063D01*
X268732Y583081D01*
X260074Y583081D01*
X259978Y583111D01*
X259958Y583110D01*
X259939Y583115D01*
X259836Y583107D01*
X259732Y583105D01*
X259713Y583098D01*
X259693Y583096D01*
X259599Y583056D01*
X259501Y583020D01*
X259485Y583008D01*
X259467Y583000D01*
X259336Y582895D01*
X205522Y529081D01*
X189194Y529081D01*
X184149Y534126D01*
X184149Y544478D01*
X184135Y544568D01*
X184127Y544659D01*
X184115Y544689D01*
X184110Y544721D01*
X184067Y544802D01*
X184031Y544886D01*
X184005Y544918D01*
X183994Y544938D01*
X183971Y544961D01*
X183926Y545017D01*
X171637Y557306D01*
X171563Y557359D01*
X171493Y557419D01*
X171463Y557431D01*
X171437Y557450D01*
X171350Y557477D01*
X171265Y557511D01*
X171224Y557515D01*
X171202Y557522D01*
X171170Y557521D01*
X171098Y557529D01*
X123408Y557529D01*
X121696Y559240D01*
X121696Y559241D01*
X109407Y571530D01*
X109406Y571530D01*
X107695Y573242D01*
X107695Y583594D01*
X107681Y583684D01*
X107673Y583775D01*
X107661Y583805D01*
X107656Y583837D01*
X107613Y583918D01*
X107577Y584002D01*
X107551Y584034D01*
X107540Y584054D01*
X107517Y584077D01*
X107472Y584133D01*
X94518Y597087D01*
X94460Y597128D01*
X94408Y597178D01*
X94361Y597200D01*
X94319Y597230D01*
X94250Y597251D01*
X94185Y597281D01*
X94133Y597287D01*
X94083Y597303D01*
X94012Y597301D01*
X93941Y597309D01*
X93890Y597297D01*
X93838Y597296D01*
X93770Y597272D01*
X93700Y597256D01*
X93655Y597230D01*
X93607Y597212D01*
X93551Y597167D01*
X93489Y597130D01*
X93455Y597091D01*
X93415Y597058D01*
X93376Y596998D01*
X93329Y596943D01*
X93310Y596895D01*
X93282Y596851D01*
X93264Y596782D01*
X93237Y596715D01*
X93229Y596644D01*
X93221Y596613D01*
X93223Y596589D01*
X93219Y596548D01*
X93219Y594486D01*
X93222Y594466D01*
X93220Y594447D01*
X93242Y594345D01*
X93258Y594243D01*
X93268Y594226D01*
X93272Y594206D01*
X93325Y594117D01*
X93374Y594026D01*
X93388Y594012D01*
X93398Y593995D01*
X93477Y593928D01*
X93552Y593856D01*
X93570Y593848D01*
X93585Y593835D01*
X93681Y593796D01*
X93775Y593753D01*
X93795Y593751D01*
X93813Y593743D01*
X93980Y593725D01*
X94932Y593725D01*
X95825Y592832D01*
X95825Y575568D01*
X94932Y574675D01*
X93980Y574675D01*
X93960Y574672D01*
X93941Y574674D01*
X93839Y574652D01*
X93737Y574636D01*
X93720Y574626D01*
X93700Y574622D01*
X93611Y574569D01*
X93520Y574520D01*
X93506Y574506D01*
X93489Y574496D01*
X93422Y574417D01*
X93350Y574342D01*
X93342Y574324D01*
X93329Y574309D01*
X93290Y574213D01*
X93247Y574119D01*
X93245Y574099D01*
X93237Y574081D01*
X93223Y573955D01*
X93221Y573948D01*
X93222Y573942D01*
X93219Y573914D01*
X93219Y573884D01*
X93220Y573876D01*
X93220Y573875D01*
X93222Y573866D01*
X93233Y573794D01*
X93241Y573703D01*
X93253Y573673D01*
X93258Y573641D01*
X93301Y573560D01*
X93337Y573476D01*
X93363Y573444D01*
X93374Y573424D01*
X93397Y573401D01*
X93442Y573345D01*
X103887Y562900D01*
X103887Y535904D01*
X50770Y482787D01*
X50717Y482713D01*
X50657Y482643D01*
X50645Y482613D01*
X50626Y482587D01*
X50599Y482500D01*
X50565Y482415D01*
X50561Y482374D01*
X50554Y482352D01*
X50555Y482320D01*
X50547Y482248D01*
X50547Y180946D01*
X50561Y180856D01*
X50569Y180765D01*
X50581Y180735D01*
X50586Y180703D01*
X50629Y180622D01*
X50665Y180538D01*
X50691Y180506D01*
X50702Y180486D01*
X50725Y180463D01*
X50770Y180407D01*
X57784Y173393D01*
X57800Y173382D01*
X57813Y173366D01*
X57900Y173310D01*
X57984Y173250D01*
X58003Y173244D01*
X58020Y173233D01*
X58120Y173208D01*
X58219Y173177D01*
X58239Y173178D01*
X58258Y173173D01*
X58361Y173181D01*
X58465Y173184D01*
X58483Y173190D01*
X58503Y173192D01*
X58598Y173232D01*
X58696Y173268D01*
X58711Y173281D01*
X58730Y173288D01*
X58861Y173393D01*
X59712Y174245D01*
X67288Y174245D01*
X72645Y168888D01*
X72645Y161312D01*
X67288Y155955D01*
X59712Y155955D01*
X54355Y161312D01*
X54355Y168976D01*
X54364Y169011D01*
X54385Y169057D01*
X54391Y169107D01*
X54407Y169158D01*
X54406Y169178D01*
X54411Y169198D01*
X54407Y169251D01*
X54413Y169301D01*
X54402Y169351D01*
X54400Y169404D01*
X54394Y169423D01*
X54392Y169443D01*
X54371Y169492D01*
X54360Y169542D01*
X54334Y169586D01*
X54316Y169635D01*
X54303Y169651D01*
X54296Y169669D01*
X54250Y169726D01*
X54234Y169753D01*
X54217Y169768D01*
X54191Y169800D01*
X47177Y176814D01*
X45465Y178526D01*
X45465Y484668D01*
X98582Y537785D01*
X98635Y537859D01*
X98695Y537929D01*
X98707Y537959D01*
X98726Y537985D01*
X98753Y538072D01*
X98787Y538157D01*
X98791Y538198D01*
X98798Y538220D01*
X98797Y538252D01*
X98805Y538324D01*
X98805Y560480D01*
X98791Y560570D01*
X98783Y560661D01*
X98771Y560691D01*
X98766Y560723D01*
X98723Y560804D01*
X98687Y560888D01*
X98661Y560920D01*
X98650Y560940D01*
X98627Y560963D01*
X98582Y561019D01*
X94518Y565083D01*
X94460Y565124D01*
X94408Y565174D01*
X94361Y565196D01*
X94319Y565226D01*
X94250Y565247D01*
X94185Y565277D01*
X94133Y565283D01*
X94083Y565299D01*
X94012Y565297D01*
X93941Y565305D01*
X93890Y565293D01*
X93838Y565292D01*
X93770Y565268D01*
X93700Y565252D01*
X93655Y565226D01*
X93607Y565208D01*
X93551Y565163D01*
X93489Y565126D01*
X93455Y565087D01*
X93415Y565054D01*
X93376Y564994D01*
X93329Y564939D01*
X93310Y564891D01*
X93282Y564847D01*
X93264Y564778D01*
X93237Y564711D01*
X93229Y564640D01*
X93221Y564609D01*
X93223Y564585D01*
X93219Y564544D01*
X93219Y556386D01*
X93222Y556366D01*
X93220Y556347D01*
X93242Y556245D01*
X93258Y556143D01*
X93268Y556126D01*
X93272Y556106D01*
X93325Y556017D01*
X93374Y555926D01*
X93388Y555912D01*
X93398Y555895D01*
X93477Y555828D01*
X93552Y555756D01*
X93570Y555748D01*
X93585Y555735D01*
X93681Y555696D01*
X93775Y555653D01*
X93795Y555651D01*
X93813Y555643D01*
X93980Y555625D01*
X94932Y555625D01*
X95825Y554732D01*
X95825Y537468D01*
X94932Y536575D01*
X85668Y536575D01*
X84775Y537468D01*
X84775Y554732D01*
X85668Y555625D01*
X87376Y555625D01*
X87396Y555628D01*
X87415Y555626D01*
X87517Y555648D01*
X87619Y555664D01*
X87636Y555674D01*
X87656Y555678D01*
X87745Y555731D01*
X87836Y555780D01*
X87850Y555794D01*
X87867Y555804D01*
X87934Y555883D01*
X88006Y555958D01*
X88014Y555976D01*
X88027Y555991D01*
X88066Y556087D01*
X88109Y556181D01*
X88111Y556201D01*
X88119Y556219D01*
X88137Y556386D01*
X88137Y562258D01*
X88123Y562348D01*
X88115Y562439D01*
X88103Y562469D01*
X88098Y562501D01*
X88055Y562582D01*
X88019Y562666D01*
X87993Y562698D01*
X87982Y562718D01*
X87959Y562741D01*
X87914Y562797D01*
X73913Y576798D01*
X73913Y671358D01*
X86070Y683515D01*
X173518Y683515D01*
X189676Y667357D01*
X189734Y667316D01*
X189786Y667266D01*
X189833Y667244D01*
X189875Y667214D01*
X189944Y667193D01*
X190009Y667163D01*
X190061Y667157D01*
X190111Y667141D01*
X190182Y667143D01*
X190253Y667135D01*
X190304Y667147D01*
X190356Y667148D01*
X190424Y667172D01*
X190494Y667188D01*
X190539Y667214D01*
X190587Y667232D01*
X190643Y667277D01*
X190705Y667314D01*
X190739Y667353D01*
X190779Y667386D01*
X190818Y667446D01*
X190865Y667501D01*
X190884Y667549D01*
X190912Y667593D01*
X190930Y667662D01*
X190957Y667729D01*
X190965Y667800D01*
X190973Y667831D01*
X190971Y667855D01*
X190975Y667896D01*
X190975Y669032D01*
X191868Y669925D01*
X201132Y669925D01*
X202025Y669032D01*
X202025Y667958D01*
X202036Y667887D01*
X202038Y667815D01*
X202056Y667766D01*
X202064Y667715D01*
X202098Y667652D01*
X202123Y667584D01*
X202155Y667544D01*
X202180Y667498D01*
X202232Y667448D01*
X202276Y667392D01*
X202320Y667364D01*
X202358Y667328D01*
X202423Y667298D01*
X202483Y667259D01*
X202534Y667246D01*
X202581Y667225D01*
X202652Y667217D01*
X202722Y667199D01*
X202774Y667203D01*
X202825Y667197D01*
X202896Y667213D01*
X202967Y667218D01*
X203015Y667239D01*
X203066Y667250D01*
X203127Y667287D01*
X203193Y667315D01*
X203249Y667359D01*
X203277Y667376D01*
X203292Y667394D01*
X203324Y667419D01*
X214086Y678181D01*
X413548Y678181D01*
X420581Y671148D01*
X420655Y671095D01*
X420725Y671035D01*
X420755Y671023D01*
X420781Y671004D01*
X420868Y670977D01*
X420953Y670943D01*
X420994Y670939D01*
X421016Y670932D01*
X421048Y670933D01*
X421120Y670925D01*
X434032Y670925D01*
X434925Y670032D01*
X434925Y650768D01*
X434032Y649875D01*
X411268Y649875D01*
X410375Y650768D01*
X410375Y670032D01*
X411268Y670925D01*
X411780Y670925D01*
X411851Y670936D01*
X411923Y670938D01*
X411972Y670956D01*
X412023Y670964D01*
X412086Y670998D01*
X412154Y671023D01*
X412195Y671055D01*
X412240Y671080D01*
X412290Y671131D01*
X412346Y671176D01*
X412374Y671220D01*
X412410Y671258D01*
X412440Y671323D01*
X412479Y671383D01*
X412492Y671434D01*
X412513Y671481D01*
X412521Y671552D01*
X412539Y671622D01*
X412535Y671674D01*
X412541Y671725D01*
X412525Y671796D01*
X412520Y671867D01*
X412499Y671915D01*
X412488Y671966D01*
X412451Y672027D01*
X412423Y672093D01*
X412379Y672149D01*
X412362Y672177D01*
X412361Y672178D01*
X412344Y672192D01*
X412319Y672224D01*
X411667Y672876D01*
X411592Y672930D01*
X411523Y672989D01*
X411493Y673001D01*
X411467Y673020D01*
X411380Y673047D01*
X411295Y673081D01*
X411254Y673085D01*
X411232Y673092D01*
X411200Y673091D01*
X411128Y673099D01*
X216506Y673099D01*
X216416Y673085D01*
X216325Y673077D01*
X216295Y673065D01*
X216263Y673060D01*
X216182Y673017D01*
X216098Y672981D01*
X216066Y672955D01*
X216046Y672944D01*
X216023Y672921D01*
X215967Y672876D01*
X202248Y659157D01*
X202195Y659083D01*
X202135Y659013D01*
X202123Y658983D01*
X202104Y658957D01*
X202077Y658870D01*
X202043Y658785D01*
X202039Y658744D01*
X202032Y658722D01*
X202033Y658690D01*
X202025Y658618D01*
X202025Y651768D01*
X201132Y650875D01*
X191868Y650875D01*
X190975Y651768D01*
X190975Y658556D01*
X190961Y658646D01*
X190953Y658737D01*
X190941Y658767D01*
X190936Y658799D01*
X190893Y658880D01*
X190857Y658964D01*
X190831Y658996D01*
X190820Y659016D01*
X190797Y659039D01*
X190752Y659095D01*
X171637Y678210D01*
X171563Y678263D01*
X171493Y678323D01*
X171463Y678335D01*
X171437Y678354D01*
X171350Y678381D01*
X171265Y678415D01*
X171224Y678419D01*
X171202Y678426D01*
X171170Y678425D01*
X171098Y678433D01*
X150212Y678433D01*
X150141Y678422D01*
X150069Y678420D01*
X150020Y678402D01*
X149969Y678394D01*
X149906Y678360D01*
X149838Y678335D01*
X149797Y678303D01*
X149752Y678278D01*
X149702Y678227D01*
X149646Y678182D01*
X149618Y678138D01*
X149582Y678100D01*
X149552Y678035D01*
X149513Y677975D01*
X149500Y677924D01*
X149479Y677877D01*
X149471Y677806D01*
X149453Y677736D01*
X149457Y677684D01*
X149451Y677633D01*
X149467Y677562D01*
X149472Y677491D01*
X149493Y677443D01*
X149504Y677392D01*
X149541Y677331D01*
X149569Y677265D01*
X149613Y677209D01*
X149630Y677181D01*
X149648Y677166D01*
X149673Y677134D01*
X159676Y667131D01*
X159734Y667090D01*
X159786Y667040D01*
X159833Y667018D01*
X159875Y666988D01*
X159944Y666967D01*
X160009Y666937D01*
X160061Y666931D01*
X160111Y666915D01*
X160182Y666917D01*
X160253Y666909D01*
X160304Y666921D01*
X160356Y666922D01*
X160424Y666946D01*
X160494Y666962D01*
X160538Y666988D01*
X160587Y667006D01*
X160643Y667051D01*
X160705Y667088D01*
X160739Y667127D01*
X160779Y667160D01*
X160818Y667220D01*
X160865Y667275D01*
X160884Y667323D01*
X160912Y667367D01*
X160930Y667436D01*
X160957Y667503D01*
X160965Y667574D01*
X160973Y667605D01*
X160971Y667629D01*
X160975Y667670D01*
X160975Y669032D01*
X161868Y669925D01*
X171132Y669925D01*
X172025Y669032D01*
X172025Y662210D01*
X172039Y662120D01*
X172047Y662029D01*
X172059Y661999D01*
X172064Y661967D01*
X172107Y661886D01*
X172143Y661802D01*
X172169Y661770D01*
X172180Y661750D01*
X172203Y661727D01*
X172248Y661671D01*
X173452Y660468D01*
X173452Y660467D01*
X174085Y659834D01*
X174160Y659780D01*
X174229Y659721D01*
X174259Y659709D01*
X174285Y659690D01*
X174372Y659663D01*
X174457Y659629D01*
X174498Y659625D01*
X174520Y659618D01*
X174552Y659619D01*
X174624Y659611D01*
X178220Y659611D01*
X181329Y656502D01*
X181329Y652106D01*
X178220Y648997D01*
X173824Y648997D01*
X172077Y650744D01*
X172061Y650756D01*
X172048Y650771D01*
X171961Y650827D01*
X171877Y650888D01*
X171858Y650894D01*
X171841Y650904D01*
X171741Y650930D01*
X171642Y650960D01*
X171622Y650960D01*
X171603Y650964D01*
X171500Y650956D01*
X171396Y650954D01*
X171377Y650947D01*
X171358Y650945D01*
X171263Y650905D01*
X171182Y650875D01*
X161868Y650875D01*
X160975Y651768D01*
X160975Y658330D01*
X160961Y658420D01*
X160953Y658511D01*
X160941Y658541D01*
X160936Y658573D01*
X160893Y658654D01*
X160857Y658738D01*
X160831Y658770D01*
X160820Y658790D01*
X160797Y658813D01*
X160752Y658869D01*
X146745Y672876D01*
X146671Y672929D01*
X146601Y672989D01*
X146571Y673001D01*
X146545Y673020D01*
X146458Y673047D01*
X146373Y673081D01*
X146332Y673085D01*
X146310Y673092D01*
X146278Y673091D01*
X146206Y673099D01*
X116938Y673099D01*
X116848Y673085D01*
X116757Y673077D01*
X116727Y673065D01*
X116695Y673060D01*
X116614Y673017D01*
X116530Y672981D01*
X116498Y672955D01*
X116478Y672944D01*
X116455Y672921D01*
X116399Y672876D01*
X113000Y669477D01*
X112947Y669403D01*
X112887Y669333D01*
X112875Y669303D01*
X112856Y669277D01*
X112829Y669190D01*
X112795Y669105D01*
X112791Y669064D01*
X112784Y669042D01*
X112785Y669010D01*
X112777Y668938D01*
X112777Y645886D01*
X109764Y642873D01*
X93824Y642873D01*
X93734Y642859D01*
X93643Y642851D01*
X93613Y642839D01*
X93581Y642834D01*
X93500Y642791D01*
X93416Y642755D01*
X93384Y642729D01*
X93364Y642718D01*
X93341Y642695D01*
X93285Y642650D01*
X90999Y640364D01*
X90958Y640306D01*
X90908Y640254D01*
X90886Y640207D01*
X90856Y640165D01*
X90835Y640096D01*
X90805Y640031D01*
X90799Y639979D01*
X90783Y639929D01*
X90785Y639858D01*
X90777Y639787D01*
X90789Y639736D01*
X90790Y639684D01*
X90814Y639616D01*
X90830Y639546D01*
X90856Y639501D01*
X90874Y639453D01*
X90919Y639397D01*
X90956Y639335D01*
X90995Y639301D01*
X91028Y639261D01*
X91088Y639222D01*
X91143Y639175D01*
X91191Y639156D01*
X91235Y639128D01*
X91304Y639110D01*
X91371Y639083D01*
X91442Y639075D01*
X91473Y639067D01*
X91497Y639069D01*
X91538Y639065D01*
X117602Y639065D01*
X117622Y639068D01*
X117641Y639066D01*
X117743Y639088D01*
X117845Y639104D01*
X117862Y639114D01*
X117882Y639118D01*
X117971Y639171D01*
X118062Y639220D01*
X118076Y639234D01*
X118093Y639244D01*
X118160Y639323D01*
X118232Y639398D01*
X118240Y639416D01*
X118253Y639431D01*
X118292Y639527D01*
X118335Y639621D01*
X118337Y639641D01*
X118345Y639659D01*
X118363Y639826D01*
X118363Y650114D01*
X118360Y650134D01*
X118362Y650153D01*
X118340Y650255D01*
X118324Y650357D01*
X118314Y650374D01*
X118310Y650394D01*
X118257Y650483D01*
X118208Y650574D01*
X118194Y650588D01*
X118184Y650605D01*
X118105Y650672D01*
X118030Y650744D01*
X118012Y650752D01*
X117997Y650765D01*
X117901Y650804D01*
X117807Y650847D01*
X117787Y650849D01*
X117769Y650857D01*
X117602Y650875D01*
X115668Y650875D01*
X114775Y651768D01*
X114775Y669032D01*
X115668Y669925D01*
X124932Y669925D01*
X125825Y669032D01*
X125825Y651768D01*
X124932Y650875D01*
X124206Y650875D01*
X124186Y650872D01*
X124167Y650874D01*
X124065Y650852D01*
X123963Y650836D01*
X123946Y650826D01*
X123926Y650822D01*
X123837Y650769D01*
X123746Y650720D01*
X123732Y650706D01*
X123715Y650696D01*
X123648Y650617D01*
X123576Y650542D01*
X123568Y650524D01*
X123555Y650509D01*
X123516Y650413D01*
X123473Y650319D01*
X123471Y650299D01*
X123463Y650281D01*
X123445Y650114D01*
X123445Y632586D01*
X123448Y632566D01*
X123446Y632547D01*
X123468Y632445D01*
X123484Y632343D01*
X123494Y632326D01*
X123498Y632306D01*
X123551Y632217D01*
X123600Y632126D01*
X123614Y632112D01*
X123624Y632095D01*
X123703Y632028D01*
X123778Y631956D01*
X123796Y631948D01*
X123811Y631935D01*
X123907Y631896D01*
X124001Y631853D01*
X124021Y631851D01*
X124039Y631843D01*
X124206Y631825D01*
X124932Y631825D01*
X125825Y630932D01*
X125825Y613668D01*
X124932Y612775D01*
X115668Y612775D01*
X114775Y613668D01*
X114775Y630932D01*
X115668Y631825D01*
X117602Y631825D01*
X117622Y631828D01*
X117641Y631826D01*
X117743Y631848D01*
X117845Y631864D01*
X117862Y631874D01*
X117882Y631878D01*
X117971Y631931D01*
X118062Y631980D01*
X118076Y631994D01*
X118093Y632004D01*
X118160Y632083D01*
X118232Y632158D01*
X118240Y632176D01*
X118253Y632191D01*
X118292Y632287D01*
X118335Y632381D01*
X118337Y632401D01*
X118345Y632419D01*
X118363Y632586D01*
X118363Y633222D01*
X118360Y633242D01*
X118362Y633261D01*
X118340Y633363D01*
X118324Y633465D01*
X118314Y633482D01*
X118310Y633502D01*
X118257Y633591D01*
X118208Y633682D01*
X118194Y633696D01*
X118184Y633713D01*
X118105Y633780D01*
X118030Y633852D01*
X118012Y633860D01*
X117997Y633873D01*
X117901Y633912D01*
X117807Y633955D01*
X117787Y633957D01*
X117769Y633965D01*
X117602Y633983D01*
X90268Y633983D01*
X90178Y633969D01*
X90087Y633961D01*
X90057Y633949D01*
X90025Y633944D01*
X89945Y633901D01*
X89860Y633865D01*
X89828Y633839D01*
X89808Y633828D01*
X89786Y633805D01*
X89729Y633760D01*
X89093Y633124D01*
X89051Y633066D01*
X89002Y633014D01*
X88980Y632967D01*
X88950Y632925D01*
X88929Y632856D01*
X88899Y632791D01*
X88893Y632739D01*
X88877Y632689D01*
X88879Y632618D01*
X88871Y632547D01*
X88883Y632496D01*
X88884Y632444D01*
X88908Y632376D01*
X88924Y632306D01*
X88950Y632261D01*
X88968Y632213D01*
X89013Y632157D01*
X89050Y632095D01*
X89089Y632061D01*
X89122Y632021D01*
X89182Y631982D01*
X89237Y631935D01*
X89285Y631916D01*
X89329Y631888D01*
X89398Y631870D01*
X89465Y631843D01*
X89536Y631835D01*
X89567Y631827D01*
X89591Y631829D01*
X89632Y631825D01*
X94932Y631825D01*
X95825Y630932D01*
X95825Y624618D01*
X95839Y624528D01*
X95847Y624437D01*
X95859Y624407D01*
X95864Y624375D01*
X95907Y624294D01*
X95943Y624210D01*
X95969Y624178D01*
X95980Y624158D01*
X96003Y624135D01*
X96048Y624079D01*
X121733Y598394D01*
X123445Y596682D01*
X123445Y594486D01*
X123448Y594466D01*
X123446Y594447D01*
X123468Y594345D01*
X123484Y594243D01*
X123494Y594226D01*
X123498Y594206D01*
X123551Y594117D01*
X123600Y594026D01*
X123614Y594012D01*
X123624Y593995D01*
X123703Y593928D01*
X123778Y593856D01*
X123796Y593848D01*
X123811Y593835D01*
X123907Y593796D01*
X124001Y593753D01*
X124021Y593751D01*
X124039Y593743D01*
X124206Y593725D01*
X124932Y593725D01*
X125825Y592832D01*
X125825Y585728D01*
X125839Y585638D01*
X125847Y585547D01*
X125859Y585517D01*
X125864Y585485D01*
X125907Y585404D01*
X125943Y585320D01*
X125969Y585288D01*
X125980Y585268D01*
X126003Y585245D01*
X126048Y585189D01*
X127224Y584013D01*
X139513Y571724D01*
X139587Y571671D01*
X139657Y571611D01*
X139687Y571599D01*
X139713Y571580D01*
X139800Y571553D01*
X139885Y571519D01*
X139926Y571515D01*
X139948Y571508D01*
X139980Y571509D01*
X140052Y571501D01*
X173029Y571501D01*
X173099Y571512D01*
X173171Y571514D01*
X173220Y571532D01*
X173271Y571540D01*
X173335Y571574D01*
X173402Y571599D01*
X173443Y571631D01*
X173489Y571656D01*
X173538Y571708D01*
X173594Y571752D01*
X173622Y571796D01*
X173658Y571834D01*
X173688Y571899D01*
X173727Y571959D01*
X173740Y572010D01*
X173762Y572057D01*
X173770Y572128D01*
X173787Y572198D01*
X173783Y572250D01*
X173789Y572301D01*
X173774Y572372D01*
X173768Y572443D01*
X173748Y572491D01*
X173737Y572542D01*
X173700Y572603D01*
X173672Y572669D01*
X173627Y572725D01*
X173610Y572753D01*
X173593Y572768D01*
X173567Y572800D01*
X171915Y574452D01*
X171841Y574505D01*
X171771Y574565D01*
X171741Y574577D01*
X171715Y574596D01*
X171628Y574623D01*
X171543Y574657D01*
X171502Y574661D01*
X171480Y574668D01*
X171448Y574667D01*
X171377Y574675D01*
X161868Y574675D01*
X160975Y575568D01*
X160975Y592832D01*
X161868Y593725D01*
X171132Y593725D01*
X172025Y592832D01*
X172025Y585756D01*
X172039Y585666D01*
X172047Y585575D01*
X172059Y585545D01*
X172064Y585513D01*
X172107Y585432D01*
X172143Y585348D01*
X172169Y585316D01*
X172180Y585296D01*
X172203Y585273D01*
X172248Y585217D01*
X174085Y583380D01*
X174159Y583327D01*
X174229Y583267D01*
X174259Y583255D01*
X174285Y583236D01*
X174372Y583209D01*
X174457Y583175D01*
X174498Y583171D01*
X174520Y583164D01*
X174552Y583165D01*
X174624Y583157D01*
X178220Y583157D01*
X181329Y580048D01*
X181329Y575652D01*
X178477Y572800D01*
X178435Y572742D01*
X178386Y572690D01*
X178364Y572643D01*
X178334Y572601D01*
X178312Y572532D01*
X178282Y572467D01*
X178277Y572415D01*
X178261Y572365D01*
X178263Y572294D01*
X178255Y572223D01*
X178266Y572172D01*
X178268Y572120D01*
X178292Y572052D01*
X178307Y571982D01*
X178334Y571937D01*
X178352Y571889D01*
X178397Y571833D01*
X178434Y571771D01*
X178473Y571737D01*
X178506Y571697D01*
X178566Y571658D01*
X178621Y571611D01*
X178669Y571592D01*
X178713Y571564D01*
X178782Y571546D01*
X178849Y571519D01*
X178920Y571511D01*
X178951Y571503D01*
X178974Y571505D01*
X179015Y571501D01*
X201324Y571501D01*
X201414Y571515D01*
X201505Y571523D01*
X201535Y571535D01*
X201567Y571540D01*
X201648Y571583D01*
X201732Y571619D01*
X201764Y571645D01*
X201784Y571656D01*
X201807Y571679D01*
X201863Y571724D01*
X247868Y617729D01*
X301534Y617729D01*
X306645Y612618D01*
X306719Y612565D01*
X306789Y612505D01*
X306819Y612493D01*
X306845Y612474D01*
X306932Y612447D01*
X307017Y612413D01*
X307058Y612409D01*
X307080Y612402D01*
X307112Y612403D01*
X307184Y612395D01*
X390114Y612395D01*
X390134Y612398D01*
X390153Y612396D01*
X390255Y612418D01*
X390357Y612434D01*
X390374Y612444D01*
X390394Y612448D01*
X390483Y612501D01*
X390574Y612550D01*
X390588Y612564D01*
X390605Y612574D01*
X390672Y612653D01*
X390744Y612728D01*
X390752Y612746D01*
X390765Y612761D01*
X390804Y612857D01*
X390847Y612951D01*
X390849Y612971D01*
X390857Y612989D01*
X390875Y613156D01*
X390875Y615232D01*
X391768Y616125D01*
X404032Y616125D01*
X404925Y615232D01*
X404925Y603968D01*
X404032Y603075D01*
X391768Y603075D01*
X390875Y603968D01*
X390875Y606552D01*
X390872Y606572D01*
X390874Y606591D01*
X390852Y606693D01*
X390836Y606795D01*
X390826Y606812D01*
X390822Y606832D01*
X390769Y606921D01*
X390720Y607012D01*
X390706Y607026D01*
X390696Y607043D01*
X390617Y607110D01*
X390542Y607182D01*
X390524Y607190D01*
X390509Y607203D01*
X390413Y607242D01*
X390319Y607285D01*
X390299Y607287D01*
X390281Y607295D01*
X390114Y607313D01*
X304764Y607313D01*
X299653Y612424D01*
X299579Y612477D01*
X299509Y612537D01*
X299479Y612549D01*
X299453Y612568D01*
X299366Y612595D01*
X299281Y612629D01*
X299240Y612633D01*
X299218Y612640D01*
X299186Y612639D01*
X299114Y612647D01*
X250288Y612647D01*
X250198Y612633D01*
X250107Y612625D01*
X250077Y612613D01*
X250045Y612608D01*
X249964Y612565D01*
X249880Y612529D01*
X249848Y612503D01*
X249828Y612492D01*
X249805Y612469D01*
X249749Y612424D01*
X225337Y588012D01*
X225296Y587954D01*
X225246Y587902D01*
X225224Y587855D01*
X225194Y587813D01*
X225173Y587744D01*
X225143Y587679D01*
X225137Y587627D01*
X225121Y587577D01*
X225123Y587506D01*
X225115Y587435D01*
X225127Y587384D01*
X225128Y587332D01*
X225152Y587264D01*
X225168Y587194D01*
X225194Y587149D01*
X225212Y587101D01*
X225257Y587045D01*
X225294Y586983D01*
X225333Y586949D01*
X225366Y586909D01*
X225426Y586870D01*
X225481Y586823D01*
X225529Y586804D01*
X225573Y586776D01*
X225642Y586758D01*
X225709Y586731D01*
X225780Y586723D01*
X225811Y586715D01*
X225835Y586717D01*
X225876Y586713D01*
X229782Y586713D01*
X232558Y583937D01*
X232574Y583926D01*
X232586Y583910D01*
X232673Y583854D01*
X232757Y583794D01*
X232776Y583788D01*
X232793Y583777D01*
X232894Y583752D01*
X232992Y583721D01*
X233012Y583722D01*
X233032Y583717D01*
X233135Y583725D01*
X233238Y583728D01*
X233257Y583735D01*
X233277Y583736D01*
X233372Y583777D01*
X233469Y583812D01*
X233485Y583825D01*
X233503Y583832D01*
X233634Y583937D01*
X244378Y594681D01*
X244431Y594755D01*
X244491Y594825D01*
X244503Y594855D01*
X244522Y594881D01*
X244549Y594968D01*
X244583Y595053D01*
X244587Y595094D01*
X244594Y595116D01*
X244593Y595148D01*
X244601Y595220D01*
X244601Y602016D01*
X251424Y608839D01*
X258572Y608839D01*
X258592Y608842D01*
X258611Y608840D01*
X258713Y608862D01*
X258815Y608878D01*
X258832Y608888D01*
X258852Y608892D01*
X258941Y608945D01*
X259032Y608994D01*
X259046Y609008D01*
X259063Y609018D01*
X259130Y609097D01*
X259202Y609172D01*
X259210Y609190D01*
X259223Y609205D01*
X259262Y609301D01*
X259305Y609395D01*
X259307Y609415D01*
X259315Y609433D01*
X259333Y609600D01*
X259333Y609826D01*
X260226Y610719D01*
X276222Y610719D01*
X277115Y609826D01*
X277115Y606904D01*
X277129Y606814D01*
X277137Y606723D01*
X277149Y606693D01*
X277154Y606661D01*
X277197Y606580D01*
X277233Y606496D01*
X277259Y606464D01*
X277270Y606444D01*
X277293Y606421D01*
X277338Y606365D01*
X280386Y603317D01*
X280444Y603276D01*
X280496Y603226D01*
X280543Y603204D01*
X280585Y603174D01*
X280654Y603153D01*
X280719Y603123D01*
X280771Y603117D01*
X280821Y603101D01*
X280892Y603103D01*
X280963Y603095D01*
X281014Y603107D01*
X281066Y603108D01*
X281134Y603132D01*
X281204Y603148D01*
X281249Y603174D01*
X281297Y603192D01*
X281353Y603237D01*
X281415Y603274D01*
X281449Y603313D01*
X281489Y603346D01*
X281528Y603406D01*
X281575Y603461D01*
X281594Y603509D01*
X281622Y603553D01*
X281640Y603622D01*
X281667Y603689D01*
X281675Y603760D01*
X281683Y603791D01*
X281681Y603815D01*
X281685Y603856D01*
X281685Y609826D01*
X282578Y610719D01*
X298574Y610719D01*
X299467Y609826D01*
X299467Y602974D01*
X298681Y602188D01*
X298669Y602172D01*
X298653Y602160D01*
X298625Y602115D01*
X298591Y602080D01*
X298570Y602035D01*
X298537Y601989D01*
X298531Y601970D01*
X298520Y601953D01*
X298506Y601897D01*
X298488Y601857D01*
X298483Y601812D01*
X298465Y601753D01*
X298465Y601734D01*
X298460Y601714D01*
X298465Y601653D01*
X298461Y601613D01*
X298469Y601572D01*
X298471Y601508D01*
X298478Y601489D01*
X298479Y601469D01*
X298505Y601409D01*
X298513Y601372D01*
X298533Y601339D01*
X298555Y601277D01*
X298568Y601261D01*
X298576Y601243D01*
X298633Y601171D01*
X298639Y601161D01*
X298645Y601156D01*
X298681Y601112D01*
X298920Y600872D01*
X298937Y600860D01*
X298949Y600845D01*
X299036Y600789D01*
X299120Y600728D01*
X299139Y600722D01*
X299156Y600712D01*
X299256Y600686D01*
X299355Y600656D01*
X299375Y600656D01*
X299394Y600652D01*
X299497Y600660D01*
X299601Y600662D01*
X299620Y600669D01*
X299640Y600671D01*
X299734Y600711D01*
X299832Y600747D01*
X299848Y600759D01*
X299866Y600767D01*
X299997Y600872D01*
X301840Y602715D01*
X306236Y602715D01*
X309345Y599606D01*
X309345Y595210D01*
X306236Y592101D01*
X301840Y592101D01*
X300505Y593436D01*
X300489Y593448D01*
X300476Y593463D01*
X300389Y593519D01*
X300305Y593580D01*
X300286Y593586D01*
X300269Y593596D01*
X300169Y593622D01*
X300070Y593652D01*
X300050Y593652D01*
X300031Y593656D01*
X299928Y593648D01*
X299824Y593646D01*
X299805Y593639D01*
X299786Y593637D01*
X299691Y593597D01*
X299593Y593561D01*
X299578Y593549D01*
X299559Y593541D01*
X299428Y593436D01*
X298681Y592688D01*
X298669Y592672D01*
X298653Y592660D01*
X298597Y592573D01*
X298537Y592489D01*
X298531Y592469D01*
X298520Y592453D01*
X298495Y592352D01*
X298465Y592253D01*
X298465Y592234D01*
X298460Y592214D01*
X298468Y592111D01*
X298471Y592008D01*
X298478Y591989D01*
X298479Y591969D01*
X298520Y591874D01*
X298556Y591777D01*
X298568Y591761D01*
X298576Y591743D01*
X298681Y591612D01*
X299467Y590826D01*
X299467Y589733D01*
X299478Y589663D01*
X299480Y589591D01*
X299498Y589542D01*
X299506Y589491D01*
X299540Y589427D01*
X299565Y589360D01*
X299597Y589319D01*
X299622Y589273D01*
X299674Y589224D01*
X299718Y589168D01*
X299762Y589140D01*
X299800Y589104D01*
X299865Y589074D01*
X299925Y589035D01*
X299976Y589022D01*
X300023Y589000D01*
X300094Y588992D01*
X300164Y588975D01*
X300216Y588979D01*
X300267Y588973D01*
X300338Y588988D01*
X300409Y588994D01*
X300457Y589014D01*
X300508Y589025D01*
X300569Y589062D01*
X300635Y589090D01*
X300691Y589135D01*
X300719Y589152D01*
X300734Y589169D01*
X300766Y589195D01*
X301840Y590269D01*
X306236Y590269D01*
X309345Y587160D01*
X309345Y582764D01*
X306802Y580221D01*
X306749Y580147D01*
X306689Y580077D01*
X306677Y580047D01*
X306658Y580021D01*
X306631Y579934D01*
X306597Y579849D01*
X306593Y579808D01*
X306586Y579786D01*
X306587Y579754D01*
X306579Y579683D01*
X306579Y578576D01*
X304613Y576610D01*
X304602Y576594D01*
X304586Y576582D01*
X304530Y576494D01*
X304470Y576411D01*
X304464Y576391D01*
X304453Y576375D01*
X304428Y576274D01*
X304398Y576175D01*
X304398Y576155D01*
X304393Y576136D01*
X304401Y576033D01*
X304404Y575930D01*
X304411Y575911D01*
X304412Y575891D01*
X304453Y575796D01*
X304488Y575699D01*
X304501Y575683D01*
X304509Y575665D01*
X304613Y575534D01*
X304867Y575280D01*
X304941Y575227D01*
X305011Y575167D01*
X305041Y575155D01*
X305067Y575136D01*
X305154Y575109D01*
X305239Y575075D01*
X305280Y575071D01*
X305302Y575064D01*
X305334Y575065D01*
X305406Y575057D01*
X390114Y575057D01*
X390134Y575060D01*
X390153Y575058D01*
X390255Y575080D01*
X390357Y575096D01*
X390374Y575106D01*
X390394Y575110D01*
X390483Y575163D01*
X390574Y575212D01*
X390588Y575226D01*
X390605Y575236D01*
X390672Y575315D01*
X390744Y575390D01*
X390752Y575408D01*
X390765Y575423D01*
X390804Y575519D01*
X390847Y575613D01*
X390849Y575633D01*
X390857Y575651D01*
X390875Y575818D01*
X390875Y577132D01*
X391768Y578025D01*
X404032Y578025D01*
X404925Y577132D01*
X404925Y565868D01*
X404032Y564975D01*
X391768Y564975D01*
X390875Y565868D01*
X390875Y569214D01*
X390872Y569234D01*
X390874Y569253D01*
X390852Y569355D01*
X390836Y569457D01*
X390826Y569474D01*
X390822Y569494D01*
X390769Y569583D01*
X390720Y569674D01*
X390706Y569688D01*
X390696Y569705D01*
X390617Y569772D01*
X390542Y569844D01*
X390524Y569852D01*
X390509Y569865D01*
X390413Y569904D01*
X390319Y569947D01*
X390299Y569949D01*
X390281Y569957D01*
X390114Y569975D01*
X302986Y569975D01*
X299653Y573308D01*
X299652Y573308D01*
X297718Y575242D01*
X297718Y575243D01*
X294319Y578642D01*
X292607Y580354D01*
X292607Y582320D01*
X292604Y582340D01*
X292606Y582359D01*
X292584Y582461D01*
X292568Y582563D01*
X292558Y582580D01*
X292554Y582600D01*
X292501Y582689D01*
X292452Y582780D01*
X292438Y582794D01*
X292428Y582811D01*
X292349Y582878D01*
X292274Y582950D01*
X292256Y582958D01*
X292241Y582971D01*
X292145Y583010D01*
X292051Y583053D01*
X292031Y583055D01*
X292013Y583063D01*
X291846Y583081D01*
X286458Y583081D01*
X286387Y583070D01*
X286315Y583068D01*
X286266Y583050D01*
X286215Y583042D01*
X286152Y583008D01*
X286084Y582983D01*
X286044Y582951D01*
X285998Y582926D01*
X285948Y582874D01*
X285892Y582830D01*
X285864Y582786D01*
X285828Y582748D01*
X285798Y582683D01*
X285759Y582623D01*
X285746Y582572D01*
X285725Y582525D01*
X285717Y582454D01*
X285699Y582384D01*
X285703Y582332D01*
X285697Y582281D01*
X285713Y582210D01*
X285718Y582139D01*
X285739Y582091D01*
X285750Y582040D01*
X285787Y581979D01*
X285815Y581913D01*
X285859Y581857D01*
X285876Y581829D01*
X285894Y581814D01*
X285919Y581782D01*
X304867Y562834D01*
X304941Y562781D01*
X305011Y562721D01*
X305041Y562709D01*
X305067Y562690D01*
X305154Y562663D01*
X305239Y562629D01*
X305280Y562625D01*
X305302Y562618D01*
X305334Y562619D01*
X305406Y562611D01*
X409350Y562611D01*
X409440Y562625D01*
X409531Y562633D01*
X409561Y562645D01*
X409593Y562650D01*
X409673Y562693D01*
X409758Y562729D01*
X409790Y562755D01*
X409810Y562766D01*
X409833Y562789D01*
X409889Y562834D01*
X410731Y563676D01*
X410772Y563734D01*
X410822Y563786D01*
X410844Y563833D01*
X410874Y563875D01*
X410895Y563944D01*
X410925Y564009D01*
X410931Y564061D01*
X410947Y564111D01*
X410945Y564182D01*
X410953Y564253D01*
X410941Y564304D01*
X410940Y564356D01*
X410916Y564424D01*
X410900Y564494D01*
X410874Y564539D01*
X410856Y564587D01*
X410811Y564643D01*
X410774Y564705D01*
X410735Y564739D01*
X410702Y564779D01*
X410642Y564818D01*
X410587Y564865D01*
X410539Y564884D01*
X410495Y564912D01*
X410426Y564930D01*
X410359Y564957D01*
X410288Y564965D01*
X410257Y564973D01*
X410233Y564971D01*
X410192Y564975D01*
X408768Y564975D01*
X407875Y565868D01*
X407875Y577132D01*
X408768Y578025D01*
X421032Y578025D01*
X421925Y577132D01*
X421925Y565868D01*
X421032Y564975D01*
X417576Y564975D01*
X417556Y564972D01*
X417537Y564974D01*
X417435Y564952D01*
X417333Y564936D01*
X417316Y564926D01*
X417296Y564922D01*
X417207Y564869D01*
X417116Y564820D01*
X417102Y564806D01*
X417085Y564796D01*
X417018Y564717D01*
X416946Y564642D01*
X416938Y564624D01*
X416925Y564609D01*
X416886Y564513D01*
X416843Y564419D01*
X416841Y564399D01*
X416833Y564381D01*
X416815Y564214D01*
X416815Y562574D01*
X411770Y557529D01*
X302986Y557529D01*
X278317Y582198D01*
X277366Y583149D01*
X277350Y583161D01*
X277337Y583176D01*
X277250Y583232D01*
X277166Y583293D01*
X277147Y583298D01*
X277130Y583309D01*
X277030Y583334D01*
X276931Y583365D01*
X276911Y583364D01*
X276892Y583369D01*
X276789Y583361D01*
X276685Y583359D01*
X276666Y583352D01*
X276647Y583350D01*
X276551Y583310D01*
X276454Y583274D01*
X276439Y583262D01*
X276420Y583254D01*
X276289Y583149D01*
X276222Y583081D01*
X275790Y583081D01*
X275719Y583070D01*
X275647Y583068D01*
X275598Y583050D01*
X275547Y583042D01*
X275484Y583008D01*
X275416Y582983D01*
X275375Y582951D01*
X275330Y582926D01*
X275280Y582875D01*
X275224Y582830D01*
X275196Y582786D01*
X275160Y582748D01*
X275130Y582683D01*
X275091Y582623D01*
X275078Y582572D01*
X275057Y582525D01*
X275049Y582454D01*
X275031Y582384D01*
X275035Y582332D01*
X275029Y582281D01*
X275045Y582210D01*
X275050Y582139D01*
X275071Y582091D01*
X275082Y582040D01*
X275119Y581979D01*
X275147Y581913D01*
X275191Y581857D01*
X275208Y581829D01*
X275226Y581814D01*
X275251Y581782D01*
X324102Y532931D01*
X324160Y532890D01*
X324212Y532840D01*
X324259Y532818D01*
X324301Y532788D01*
X324370Y532767D01*
X324435Y532737D01*
X324487Y532731D01*
X324537Y532715D01*
X324608Y532717D01*
X324679Y532709D01*
X324730Y532721D01*
X324782Y532722D01*
X324850Y532746D01*
X324920Y532762D01*
X324964Y532788D01*
X325013Y532806D01*
X325069Y532851D01*
X325131Y532888D01*
X325165Y532927D01*
X325205Y532960D01*
X325244Y533020D01*
X325291Y533075D01*
X325310Y533123D01*
X325338Y533167D01*
X325356Y533236D01*
X325383Y533303D01*
X325391Y533374D01*
X325399Y533405D01*
X325397Y533429D01*
X325401Y533470D01*
X325401Y535598D01*
X328510Y538707D01*
X332906Y538707D01*
X335449Y536164D01*
X335523Y536111D01*
X335593Y536051D01*
X335623Y536039D01*
X335649Y536020D01*
X335736Y535993D01*
X335821Y535959D01*
X335862Y535955D01*
X335884Y535948D01*
X335916Y535949D01*
X335987Y535941D01*
X390114Y535941D01*
X390134Y535944D01*
X390153Y535942D01*
X390255Y535964D01*
X390357Y535980D01*
X390374Y535990D01*
X390394Y535994D01*
X390483Y536047D01*
X390574Y536096D01*
X390588Y536110D01*
X390605Y536120D01*
X390672Y536199D01*
X390744Y536274D01*
X390752Y536292D01*
X390765Y536307D01*
X390804Y536403D01*
X390847Y536497D01*
X390849Y536517D01*
X390857Y536535D01*
X390875Y536702D01*
X390875Y539032D01*
X391768Y539925D01*
X404032Y539925D01*
X404925Y539032D01*
X404925Y527768D01*
X404032Y526875D01*
X391768Y526875D01*
X390875Y527768D01*
X390875Y530098D01*
X390872Y530116D01*
X390874Y530134D01*
X390874Y530135D01*
X390874Y530137D01*
X390852Y530239D01*
X390836Y530341D01*
X390826Y530358D01*
X390822Y530378D01*
X390769Y530467D01*
X390720Y530558D01*
X390706Y530572D01*
X390696Y530589D01*
X390617Y530656D01*
X390542Y530728D01*
X390524Y530736D01*
X390509Y530749D01*
X390413Y530788D01*
X390319Y530831D01*
X390299Y530833D01*
X390281Y530841D01*
X390114Y530859D01*
X335987Y530859D01*
X335897Y530845D01*
X335806Y530837D01*
X335777Y530825D01*
X335745Y530820D01*
X335664Y530777D01*
X335580Y530741D01*
X335548Y530715D01*
X335527Y530704D01*
X335524Y530701D01*
X335504Y530680D01*
X335449Y530636D01*
X332906Y528093D01*
X330778Y528093D01*
X330707Y528082D01*
X330635Y528080D01*
X330586Y528062D01*
X330535Y528054D01*
X330472Y528020D01*
X330404Y527995D01*
X330364Y527963D01*
X330318Y527938D01*
X330268Y527886D01*
X330212Y527842D01*
X330184Y527798D01*
X330148Y527760D01*
X330118Y527695D01*
X330079Y527635D01*
X330066Y527584D01*
X330045Y527537D01*
X330037Y527466D01*
X330019Y527396D01*
X330023Y527344D01*
X330017Y527293D01*
X330033Y527222D01*
X330038Y527151D01*
X330059Y527103D01*
X330070Y527052D01*
X330107Y526991D01*
X330135Y526925D01*
X330179Y526869D01*
X330196Y526841D01*
X330214Y526826D01*
X330239Y526794D01*
X331537Y525496D01*
X331611Y525443D01*
X331681Y525383D01*
X331711Y525371D01*
X331737Y525352D01*
X331824Y525325D01*
X331909Y525291D01*
X331950Y525287D01*
X331972Y525280D01*
X332004Y525281D01*
X332076Y525273D01*
X523142Y525273D01*
X523232Y525287D01*
X523323Y525295D01*
X523353Y525307D01*
X523385Y525312D01*
X523466Y525355D01*
X523550Y525391D01*
X523582Y525417D01*
X523602Y525428D01*
X523625Y525451D01*
X523681Y525496D01*
X525302Y527117D01*
X525355Y527191D01*
X525415Y527261D01*
X525427Y527291D01*
X525446Y527317D01*
X525473Y527404D01*
X525507Y527489D01*
X525511Y527530D01*
X525518Y527552D01*
X525517Y527584D01*
X525525Y527656D01*
X525525Y578260D01*
X525511Y578350D01*
X525503Y578441D01*
X525491Y578471D01*
X525486Y578503D01*
X525443Y578584D01*
X525407Y578668D01*
X525381Y578700D01*
X525370Y578720D01*
X525347Y578743D01*
X525302Y578799D01*
X514857Y589244D01*
X514857Y602314D01*
X514854Y602334D01*
X514856Y602353D01*
X514834Y602455D01*
X514818Y602557D01*
X514808Y602574D01*
X514804Y602594D01*
X514751Y602683D01*
X514702Y602774D01*
X514688Y602788D01*
X514678Y602805D01*
X514599Y602872D01*
X514524Y602944D01*
X514506Y602952D01*
X514491Y602965D01*
X514395Y603004D01*
X514301Y603047D01*
X514281Y603049D01*
X514263Y603057D01*
X514096Y603075D01*
X510368Y603075D01*
X509475Y603968D01*
X509475Y615232D01*
X510368Y616125D01*
X522632Y616125D01*
X523525Y615232D01*
X523525Y603968D01*
X522632Y603075D01*
X520700Y603075D01*
X520680Y603072D01*
X520661Y603074D01*
X520559Y603052D01*
X520457Y603036D01*
X520440Y603026D01*
X520420Y603022D01*
X520331Y602969D01*
X520240Y602920D01*
X520226Y602906D01*
X520209Y602896D01*
X520142Y602817D01*
X520070Y602742D01*
X520062Y602724D01*
X520049Y602709D01*
X520010Y602613D01*
X519967Y602519D01*
X519965Y602499D01*
X519957Y602481D01*
X519939Y602314D01*
X519939Y591664D01*
X519953Y591574D01*
X519961Y591483D01*
X519973Y591453D01*
X519978Y591421D01*
X520021Y591340D01*
X520057Y591256D01*
X520083Y591224D01*
X520094Y591204D01*
X520117Y591181D01*
X520162Y591125D01*
X527782Y583505D01*
X527840Y583464D01*
X527892Y583414D01*
X527939Y583392D01*
X527981Y583362D01*
X528050Y583341D01*
X528115Y583311D01*
X528167Y583305D01*
X528217Y583289D01*
X528288Y583291D01*
X528359Y583283D01*
X528410Y583295D01*
X528462Y583296D01*
X528530Y583320D01*
X528600Y583336D01*
X528645Y583362D01*
X528693Y583380D01*
X528749Y583425D01*
X528811Y583462D01*
X528845Y583501D01*
X528885Y583534D01*
X528924Y583594D01*
X528971Y583649D01*
X528990Y583697D01*
X529018Y583741D01*
X529036Y583810D01*
X529063Y583877D01*
X529071Y583948D01*
X529079Y583979D01*
X529077Y584003D01*
X529081Y584044D01*
X529081Y612042D01*
X529067Y612132D01*
X529059Y612223D01*
X529047Y612253D01*
X529042Y612285D01*
X528999Y612366D01*
X528963Y612450D01*
X528937Y612482D01*
X528926Y612502D01*
X528903Y612525D01*
X528858Y612581D01*
X523681Y617758D01*
X523607Y617811D01*
X523537Y617871D01*
X523507Y617883D01*
X523481Y617902D01*
X523394Y617929D01*
X523309Y617963D01*
X523268Y617967D01*
X523246Y617974D01*
X523214Y617973D01*
X523142Y617981D01*
X504542Y617981D01*
X504452Y617967D01*
X504361Y617959D01*
X504331Y617947D01*
X504299Y617942D01*
X504218Y617899D01*
X504134Y617863D01*
X504102Y617837D01*
X504082Y617826D01*
X504059Y617803D01*
X504003Y617758D01*
X503669Y617424D01*
X503628Y617366D01*
X503578Y617314D01*
X503556Y617267D01*
X503526Y617225D01*
X503505Y617156D01*
X503475Y617091D01*
X503469Y617039D01*
X503453Y616989D01*
X503455Y616918D01*
X503447Y616847D01*
X503459Y616796D01*
X503460Y616744D01*
X503484Y616676D01*
X503500Y616606D01*
X503526Y616561D01*
X503544Y616513D01*
X503589Y616457D01*
X503626Y616395D01*
X503665Y616361D01*
X503698Y616321D01*
X503758Y616282D01*
X503813Y616235D01*
X503861Y616216D01*
X503905Y616188D01*
X503974Y616170D01*
X504041Y616143D01*
X504112Y616135D01*
X504143Y616127D01*
X504167Y616129D01*
X504208Y616125D01*
X505632Y616125D01*
X506525Y615232D01*
X506525Y603968D01*
X505632Y603075D01*
X493368Y603075D01*
X492475Y603968D01*
X492475Y615232D01*
X493368Y616125D01*
X496316Y616125D01*
X496336Y616128D01*
X496355Y616126D01*
X496457Y616148D01*
X496559Y616164D01*
X496576Y616174D01*
X496596Y616178D01*
X496685Y616231D01*
X496776Y616280D01*
X496790Y616294D01*
X496807Y616304D01*
X496874Y616383D01*
X496946Y616458D01*
X496954Y616476D01*
X496967Y616491D01*
X497006Y616587D01*
X497049Y616681D01*
X497051Y616701D01*
X497059Y616719D01*
X497077Y616886D01*
X497077Y618018D01*
X502122Y623063D01*
X525562Y623063D01*
X534163Y614462D01*
X534163Y327878D01*
X402247Y195962D01*
X402236Y195946D01*
X402220Y195933D01*
X402164Y195846D01*
X402104Y195762D01*
X402098Y195743D01*
X402087Y195726D01*
X402062Y195626D01*
X402031Y195527D01*
X402032Y195507D01*
X402027Y195488D01*
X402035Y195385D01*
X402038Y195281D01*
X402044Y195263D01*
X402046Y195243D01*
X402086Y195148D01*
X402122Y195050D01*
X402135Y195035D01*
X402142Y195016D01*
X402247Y194885D01*
X402845Y194288D01*
X402845Y186712D01*
X397488Y181355D01*
X389912Y181355D01*
X389315Y181953D01*
X389298Y181964D01*
X389286Y181980D01*
X389199Y182036D01*
X389115Y182096D01*
X389096Y182102D01*
X389079Y182113D01*
X388979Y182138D01*
X388880Y182169D01*
X388860Y182168D01*
X388841Y182173D01*
X388738Y182165D01*
X388634Y182162D01*
X388615Y182156D01*
X388595Y182154D01*
X388500Y182114D01*
X388403Y182078D01*
X388387Y182065D01*
X388369Y182058D01*
X388238Y181953D01*
X381544Y175259D01*
X372911Y175259D01*
X372840Y175248D01*
X372769Y175246D01*
X372720Y175228D01*
X372668Y175220D01*
X372605Y175186D01*
X372538Y175161D01*
X372497Y175129D01*
X372451Y175104D01*
X372402Y175052D01*
X372346Y175008D01*
X372317Y174964D01*
X372282Y174926D01*
X372251Y174861D01*
X372213Y174801D01*
X372200Y174750D01*
X372178Y174703D01*
X372170Y174632D01*
X372153Y174562D01*
X372157Y174510D01*
X372151Y174459D01*
X372166Y174388D01*
X372172Y174317D01*
X372192Y174269D01*
X372203Y174218D01*
X372240Y174157D01*
X372268Y174091D01*
X372313Y174035D01*
X372329Y174007D01*
X372347Y173992D01*
X372373Y173960D01*
X377445Y168888D01*
X377445Y161312D01*
X372088Y155955D01*
X364512Y155955D01*
X359155Y161312D01*
X359155Y168888D01*
X364227Y173960D01*
X364269Y174018D01*
X364318Y174070D01*
X364340Y174117D01*
X364371Y174159D01*
X364392Y174228D01*
X364422Y174293D01*
X364428Y174345D01*
X364443Y174395D01*
X364441Y174466D01*
X364449Y174537D01*
X364438Y174588D01*
X364437Y174640D01*
X364412Y174708D01*
X364397Y174778D01*
X364370Y174823D01*
X364352Y174871D01*
X364307Y174927D01*
X364271Y174989D01*
X364231Y175023D01*
X364199Y175063D01*
X364138Y175102D01*
X364084Y175149D01*
X364035Y175168D01*
X363992Y175196D01*
X363922Y175214D01*
X363856Y175241D01*
X363784Y175249D01*
X363753Y175257D01*
X363730Y175255D01*
X363689Y175259D01*
X362302Y175259D01*
X362212Y175245D01*
X362121Y175237D01*
X362091Y175225D01*
X362059Y175220D01*
X361978Y175177D01*
X361894Y175141D01*
X361862Y175115D01*
X361842Y175104D01*
X361819Y175081D01*
X361763Y175036D01*
X356586Y169859D01*
X356533Y169785D01*
X356473Y169715D01*
X356461Y169685D01*
X356442Y169659D01*
X356415Y169572D01*
X356381Y169487D01*
X356377Y169446D01*
X356370Y169424D01*
X356371Y169392D01*
X356363Y169320D01*
X356363Y146522D01*
X354651Y144810D01*
X287185Y77344D01*
X287173Y77328D01*
X287158Y77315D01*
X287102Y77228D01*
X287042Y77144D01*
X287036Y77125D01*
X287025Y77108D01*
X287000Y77008D01*
X286969Y76909D01*
X286970Y76889D01*
X286965Y76870D01*
X286973Y76767D01*
X286976Y76663D01*
X286982Y76645D01*
X286984Y76625D01*
X287025Y76530D01*
X287060Y76432D01*
X287073Y76417D01*
X287080Y76398D01*
X287146Y76317D01*
X288545Y72939D01*
X288545Y54061D01*
X287153Y50700D01*
X284580Y48127D01*
X281219Y46735D01*
X277581Y46735D01*
G37*
%LPD*%
%LPC*%
G36*
X59712Y54355D02*
X59712Y54355D01*
X54355Y59712D01*
X54355Y67288D01*
X59712Y72645D01*
X67288Y72645D01*
X67631Y72301D01*
X67648Y72290D01*
X67660Y72274D01*
X67747Y72218D01*
X67831Y72158D01*
X67850Y72152D01*
X67867Y72141D01*
X67968Y72116D01*
X68066Y72085D01*
X68086Y72086D01*
X68106Y72081D01*
X68208Y72089D01*
X68312Y72092D01*
X68331Y72098D01*
X68351Y72100D01*
X68445Y72140D01*
X68543Y72176D01*
X68559Y72189D01*
X68577Y72196D01*
X68708Y72301D01*
X73690Y77283D01*
X75402Y78995D01*
X84035Y78995D01*
X84106Y79006D01*
X84177Y79008D01*
X84226Y79026D01*
X84278Y79034D01*
X84341Y79068D01*
X84408Y79093D01*
X84449Y79125D01*
X84495Y79150D01*
X84544Y79202D01*
X84600Y79246D01*
X84629Y79290D01*
X84664Y79328D01*
X84695Y79393D01*
X84733Y79453D01*
X84746Y79504D01*
X84768Y79551D01*
X84776Y79622D01*
X84793Y79692D01*
X84789Y79744D01*
X84795Y79795D01*
X84780Y79866D01*
X84774Y79937D01*
X84754Y79985D01*
X84743Y80036D01*
X84706Y80097D01*
X84678Y80163D01*
X84633Y80219D01*
X84617Y80247D01*
X84599Y80262D01*
X84573Y80294D01*
X79755Y85112D01*
X79755Y92688D01*
X85112Y98045D01*
X92688Y98045D01*
X98045Y92688D01*
X98045Y85112D01*
X93227Y80294D01*
X93185Y80236D01*
X93136Y80184D01*
X93114Y80137D01*
X93083Y80095D01*
X93062Y80026D01*
X93032Y79961D01*
X93026Y79909D01*
X93011Y79859D01*
X93013Y79788D01*
X93005Y79717D01*
X93016Y79666D01*
X93017Y79614D01*
X93042Y79546D01*
X93057Y79476D01*
X93084Y79431D01*
X93102Y79383D01*
X93147Y79327D01*
X93183Y79265D01*
X93223Y79231D01*
X93255Y79191D01*
X93316Y79152D01*
X93370Y79105D01*
X93419Y79086D01*
X93462Y79058D01*
X93532Y79040D01*
X93598Y79013D01*
X93670Y79005D01*
X93701Y78997D01*
X93724Y78999D01*
X93765Y78995D01*
X94644Y78995D01*
X94734Y79009D01*
X94825Y79017D01*
X94855Y79029D01*
X94887Y79034D01*
X94968Y79077D01*
X95052Y79113D01*
X95084Y79139D01*
X95104Y79150D01*
X95127Y79173D01*
X95183Y79218D01*
X173258Y157293D01*
X173311Y157367D01*
X173371Y157437D01*
X173383Y157467D01*
X173402Y157493D01*
X173429Y157580D01*
X173445Y157620D01*
X173453Y157638D01*
X173454Y157642D01*
X173463Y157665D01*
X173467Y157706D01*
X173474Y157728D01*
X173473Y157760D01*
X173481Y157832D01*
X173481Y184186D01*
X183860Y194565D01*
X184365Y194565D01*
X184436Y194576D01*
X184507Y194578D01*
X184556Y194596D01*
X184608Y194604D01*
X184671Y194638D01*
X184738Y194663D01*
X184779Y194695D01*
X184825Y194720D01*
X184874Y194772D01*
X184930Y194816D01*
X184959Y194860D01*
X184994Y194898D01*
X185025Y194963D01*
X185063Y195023D01*
X185076Y195074D01*
X185098Y195121D01*
X185106Y195192D01*
X185123Y195262D01*
X185119Y195314D01*
X185125Y195365D01*
X185110Y195436D01*
X185104Y195507D01*
X185084Y195555D01*
X185073Y195606D01*
X185036Y195667D01*
X185008Y195733D01*
X184963Y195789D01*
X184947Y195817D01*
X184929Y195832D01*
X184903Y195864D01*
X181355Y199412D01*
X181355Y206988D01*
X182207Y207839D01*
X182218Y207856D01*
X182234Y207868D01*
X182290Y207955D01*
X182350Y208039D01*
X182356Y208058D01*
X182367Y208075D01*
X182392Y208176D01*
X182423Y208274D01*
X182422Y208294D01*
X182427Y208314D01*
X182419Y208416D01*
X182416Y208520D01*
X182410Y208539D01*
X182408Y208559D01*
X182368Y208653D01*
X182332Y208751D01*
X182319Y208767D01*
X182312Y208785D01*
X182207Y208916D01*
X175193Y215930D01*
X173481Y217642D01*
X173481Y395768D01*
X235422Y457709D01*
X325374Y457709D01*
X325394Y457712D01*
X325413Y457710D01*
X325515Y457732D01*
X325617Y457748D01*
X325634Y457758D01*
X325654Y457762D01*
X325743Y457815D01*
X325834Y457864D01*
X325848Y457878D01*
X325865Y457888D01*
X325932Y457967D01*
X326004Y458042D01*
X326012Y458060D01*
X326025Y458075D01*
X326064Y458171D01*
X326107Y458265D01*
X326109Y458285D01*
X326117Y458303D01*
X326135Y458470D01*
X326135Y459019D01*
X327527Y462380D01*
X330100Y464953D01*
X333461Y466345D01*
X352339Y466345D01*
X355700Y464953D01*
X358273Y462380D01*
X359665Y459019D01*
X359665Y455381D01*
X358273Y452020D01*
X355700Y449447D01*
X352339Y448055D01*
X333461Y448055D01*
X330100Y449447D01*
X327527Y452020D01*
X327471Y452157D01*
X327409Y452256D01*
X327349Y452357D01*
X327344Y452361D01*
X327341Y452366D01*
X327251Y452441D01*
X327162Y452517D01*
X327156Y452519D01*
X327151Y452523D01*
X327043Y452565D01*
X326934Y452609D01*
X326926Y452610D01*
X326922Y452611D01*
X326903Y452612D01*
X326767Y452627D01*
X237842Y452627D01*
X237752Y452613D01*
X237661Y452605D01*
X237631Y452593D01*
X237599Y452588D01*
X237518Y452545D01*
X237434Y452509D01*
X237402Y452483D01*
X237382Y452472D01*
X237359Y452449D01*
X237303Y452404D01*
X178786Y393887D01*
X178733Y393813D01*
X178673Y393743D01*
X178661Y393713D01*
X178642Y393687D01*
X178615Y393600D01*
X178581Y393515D01*
X178577Y393474D01*
X178570Y393452D01*
X178571Y393420D01*
X178563Y393348D01*
X178563Y220062D01*
X178577Y219972D01*
X178585Y219881D01*
X178597Y219851D01*
X178602Y219819D01*
X178645Y219738D01*
X178681Y219654D01*
X178707Y219622D01*
X178718Y219602D01*
X178741Y219579D01*
X178786Y219523D01*
X185800Y212509D01*
X185816Y212498D01*
X185829Y212482D01*
X185916Y212426D01*
X186000Y212366D01*
X186019Y212360D01*
X186036Y212349D01*
X186136Y212324D01*
X186235Y212293D01*
X186255Y212294D01*
X186274Y212289D01*
X186377Y212297D01*
X186481Y212300D01*
X186499Y212306D01*
X186519Y212308D01*
X186606Y212345D01*
X194288Y212345D01*
X198852Y207781D01*
X198910Y207739D01*
X198962Y207690D01*
X199009Y207668D01*
X199051Y207637D01*
X199120Y207616D01*
X199185Y207586D01*
X199237Y207580D01*
X199287Y207565D01*
X199358Y207567D01*
X199429Y207559D01*
X199480Y207570D01*
X199532Y207571D01*
X199600Y207596D01*
X199670Y207611D01*
X199715Y207638D01*
X199763Y207656D01*
X199819Y207701D01*
X199881Y207737D01*
X199915Y207777D01*
X199955Y207809D01*
X199994Y207870D01*
X200041Y207924D01*
X200060Y207973D01*
X200088Y208016D01*
X200106Y208086D01*
X200133Y208152D01*
X200141Y208224D01*
X200149Y208255D01*
X200147Y208278D01*
X200151Y208319D01*
X200151Y222044D01*
X200140Y222115D01*
X200138Y222186D01*
X200120Y222235D01*
X200112Y222287D01*
X200078Y222350D01*
X200053Y222417D01*
X200021Y222458D01*
X199996Y222504D01*
X199944Y222554D01*
X199900Y222610D01*
X199856Y222638D01*
X199818Y222674D01*
X199753Y222704D01*
X199693Y222743D01*
X199642Y222755D01*
X199595Y222777D01*
X199524Y222785D01*
X199454Y222803D01*
X199402Y222799D01*
X199351Y222804D01*
X199280Y222789D01*
X199209Y222783D01*
X199161Y222763D01*
X199110Y222752D01*
X199049Y222715D01*
X198983Y222687D01*
X198927Y222642D01*
X198899Y222626D01*
X198884Y222608D01*
X198852Y222582D01*
X194709Y218439D01*
X192023Y218439D01*
X192023Y227838D01*
X192020Y227858D01*
X192022Y227877D01*
X192000Y227979D01*
X191983Y228081D01*
X191974Y228098D01*
X191970Y228118D01*
X191917Y228207D01*
X191868Y228298D01*
X191854Y228312D01*
X191844Y228329D01*
X191765Y228396D01*
X191690Y228467D01*
X191672Y228476D01*
X191657Y228489D01*
X191561Y228527D01*
X191467Y228571D01*
X191447Y228573D01*
X191429Y228581D01*
X191262Y228599D01*
X190499Y228599D01*
X190499Y228601D01*
X191262Y228601D01*
X191282Y228604D01*
X191301Y228602D01*
X191403Y228624D01*
X191505Y228641D01*
X191522Y228650D01*
X191542Y228654D01*
X191631Y228707D01*
X191722Y228756D01*
X191736Y228770D01*
X191753Y228780D01*
X191820Y228859D01*
X191891Y228934D01*
X191900Y228952D01*
X191913Y228967D01*
X191952Y229063D01*
X191995Y229157D01*
X191997Y229177D01*
X192005Y229195D01*
X192023Y229362D01*
X192023Y238761D01*
X194709Y238761D01*
X198852Y234618D01*
X198910Y234576D01*
X198962Y234526D01*
X199009Y234505D01*
X199051Y234474D01*
X199120Y234453D01*
X199185Y234423D01*
X199237Y234417D01*
X199287Y234402D01*
X199358Y234404D01*
X199429Y234396D01*
X199480Y234407D01*
X199532Y234408D01*
X199600Y234433D01*
X199670Y234448D01*
X199715Y234475D01*
X199763Y234493D01*
X199819Y234537D01*
X199881Y234574D01*
X199915Y234614D01*
X199955Y234646D01*
X199994Y234707D01*
X200041Y234761D01*
X200060Y234809D01*
X200088Y234853D01*
X200106Y234923D01*
X200133Y234989D01*
X200141Y235061D01*
X200149Y235092D01*
X200147Y235115D01*
X200151Y235156D01*
X200151Y239304D01*
X201862Y241016D01*
X201863Y241016D01*
X224820Y263973D01*
X224873Y264047D01*
X224933Y264117D01*
X224945Y264147D01*
X224964Y264173D01*
X224991Y264260D01*
X225025Y264345D01*
X225029Y264386D01*
X225036Y264408D01*
X225035Y264440D01*
X225043Y264512D01*
X225043Y264977D01*
X225029Y265067D01*
X225021Y265158D01*
X225009Y265187D01*
X225004Y265219D01*
X224961Y265300D01*
X224925Y265384D01*
X224899Y265416D01*
X224888Y265437D01*
X224865Y265459D01*
X224820Y265515D01*
X222277Y268058D01*
X222277Y272454D01*
X225386Y275563D01*
X229782Y275563D01*
X230856Y274489D01*
X230914Y274447D01*
X230966Y274398D01*
X231013Y274376D01*
X231055Y274346D01*
X231124Y274324D01*
X231189Y274294D01*
X231241Y274289D01*
X231291Y274273D01*
X231362Y274275D01*
X231433Y274267D01*
X231484Y274278D01*
X231536Y274280D01*
X231604Y274304D01*
X231674Y274319D01*
X231719Y274346D01*
X231767Y274364D01*
X231823Y274409D01*
X231885Y274446D01*
X231919Y274485D01*
X231959Y274518D01*
X231998Y274578D01*
X232045Y274633D01*
X232064Y274681D01*
X232092Y274725D01*
X232110Y274794D01*
X232137Y274861D01*
X232145Y274932D01*
X232153Y274963D01*
X232151Y274986D01*
X232155Y275027D01*
X232155Y308004D01*
X232141Y308094D01*
X232133Y308185D01*
X232121Y308215D01*
X232116Y308247D01*
X232073Y308328D01*
X232037Y308412D01*
X232011Y308444D01*
X232000Y308464D01*
X231977Y308487D01*
X231932Y308543D01*
X216153Y324322D01*
X216153Y388656D01*
X226784Y399287D01*
X226795Y399303D01*
X226811Y399316D01*
X226867Y399403D01*
X226927Y399487D01*
X226933Y399506D01*
X226944Y399523D01*
X226969Y399623D01*
X227000Y399722D01*
X226999Y399742D01*
X227004Y399761D01*
X226996Y399864D01*
X226993Y399968D01*
X226987Y399986D01*
X226985Y400006D01*
X226945Y400101D01*
X226909Y400199D01*
X226896Y400214D01*
X226889Y400233D01*
X226784Y400364D01*
X225927Y401220D01*
X224535Y404581D01*
X224535Y408219D01*
X225927Y411580D01*
X228500Y414153D01*
X231861Y415545D01*
X250739Y415545D01*
X254100Y414153D01*
X256673Y411580D01*
X258065Y408219D01*
X258065Y404581D01*
X256673Y401220D01*
X254100Y398647D01*
X250739Y397255D01*
X232254Y397255D01*
X232164Y397241D01*
X232073Y397233D01*
X232043Y397221D01*
X232011Y397216D01*
X231930Y397173D01*
X231846Y397137D01*
X231814Y397111D01*
X231794Y397100D01*
X231771Y397077D01*
X231715Y397032D01*
X221458Y386775D01*
X221405Y386701D01*
X221345Y386631D01*
X221333Y386601D01*
X221314Y386575D01*
X221287Y386488D01*
X221253Y386403D01*
X221249Y386362D01*
X221242Y386340D01*
X221243Y386308D01*
X221235Y386236D01*
X221235Y326742D01*
X221249Y326652D01*
X221257Y326561D01*
X221269Y326531D01*
X221274Y326499D01*
X221317Y326418D01*
X221353Y326334D01*
X221379Y326302D01*
X221390Y326282D01*
X221413Y326259D01*
X221458Y326203D01*
X237237Y310424D01*
X237237Y194528D01*
X225209Y182500D01*
X225197Y182484D01*
X225182Y182471D01*
X225126Y182384D01*
X225066Y182300D01*
X225060Y182281D01*
X225049Y182264D01*
X225024Y182164D01*
X224993Y182065D01*
X224994Y182045D01*
X224989Y182026D01*
X224997Y181923D01*
X225000Y181819D01*
X225006Y181800D01*
X225008Y181781D01*
X225045Y181694D01*
X225045Y174012D01*
X219688Y168655D01*
X212112Y168655D01*
X206755Y174012D01*
X206755Y181588D01*
X212112Y186945D01*
X219688Y186945D01*
X220539Y186093D01*
X220556Y186082D01*
X220568Y186066D01*
X220655Y186010D01*
X220739Y185950D01*
X220758Y185944D01*
X220775Y185933D01*
X220875Y185908D01*
X220974Y185877D01*
X220994Y185878D01*
X221013Y185873D01*
X221116Y185881D01*
X221220Y185884D01*
X221239Y185890D01*
X221259Y185892D01*
X221354Y185932D01*
X221451Y185968D01*
X221467Y185981D01*
X221485Y185988D01*
X221616Y186093D01*
X231932Y196409D01*
X231985Y196483D01*
X232045Y196553D01*
X232057Y196583D01*
X232076Y196609D01*
X232103Y196696D01*
X232137Y196781D01*
X232141Y196822D01*
X232148Y196844D01*
X232147Y196876D01*
X232155Y196948D01*
X232155Y265485D01*
X232144Y265555D01*
X232142Y265627D01*
X232124Y265676D01*
X232116Y265727D01*
X232082Y265791D01*
X232057Y265858D01*
X232025Y265899D01*
X232000Y265945D01*
X231948Y265994D01*
X231904Y266050D01*
X231860Y266078D01*
X231822Y266114D01*
X231757Y266144D01*
X231697Y266183D01*
X231646Y266196D01*
X231599Y266218D01*
X231528Y266226D01*
X231458Y266243D01*
X231406Y266239D01*
X231355Y266245D01*
X231284Y266230D01*
X231213Y266224D01*
X231165Y266204D01*
X231114Y266193D01*
X231053Y266156D01*
X230987Y266128D01*
X230931Y266083D01*
X230903Y266066D01*
X230888Y266049D01*
X230856Y266023D01*
X230348Y265515D01*
X230294Y265441D01*
X230235Y265371D01*
X230223Y265341D01*
X230204Y265315D01*
X230177Y265228D01*
X230143Y265143D01*
X230139Y265102D01*
X230132Y265080D01*
X230133Y265048D01*
X230125Y264977D01*
X230125Y262092D01*
X228414Y260380D01*
X228413Y260380D01*
X205456Y237423D01*
X205403Y237349D01*
X205343Y237279D01*
X205331Y237249D01*
X205312Y237223D01*
X205285Y237136D01*
X205251Y237051D01*
X205247Y237010D01*
X205240Y236988D01*
X205241Y236956D01*
X205233Y236884D01*
X205233Y190972D01*
X203744Y189483D01*
X186280Y189483D01*
X186190Y189469D01*
X186099Y189461D01*
X186069Y189449D01*
X186037Y189444D01*
X185956Y189401D01*
X185872Y189365D01*
X185840Y189339D01*
X185820Y189328D01*
X185797Y189305D01*
X185741Y189260D01*
X178786Y182305D01*
X178733Y182231D01*
X178673Y182161D01*
X178661Y182131D01*
X178642Y182105D01*
X178615Y182018D01*
X178581Y181933D01*
X178577Y181892D01*
X178570Y181870D01*
X178571Y181838D01*
X178563Y181766D01*
X178563Y155412D01*
X97064Y73913D01*
X93257Y73913D01*
X93186Y73902D01*
X93115Y73900D01*
X93066Y73882D01*
X93014Y73874D01*
X92951Y73840D01*
X92884Y73815D01*
X92843Y73783D01*
X92797Y73758D01*
X92748Y73706D01*
X92692Y73662D01*
X92663Y73618D01*
X92628Y73580D01*
X92597Y73515D01*
X92559Y73455D01*
X92546Y73404D01*
X92524Y73357D01*
X92516Y73286D01*
X92499Y73216D01*
X92503Y73164D01*
X92497Y73113D01*
X92512Y73042D01*
X92518Y72971D01*
X92538Y72923D01*
X92549Y72872D01*
X92586Y72811D01*
X92614Y72745D01*
X92659Y72689D01*
X92675Y72661D01*
X92693Y72646D01*
X92719Y72614D01*
X98045Y67288D01*
X98045Y59712D01*
X92688Y54355D01*
X85112Y54355D01*
X79755Y59712D01*
X79755Y67288D01*
X85081Y72614D01*
X85123Y72672D01*
X85172Y72724D01*
X85194Y72771D01*
X85225Y72813D01*
X85246Y72882D01*
X85276Y72947D01*
X85282Y72999D01*
X85297Y73049D01*
X85295Y73120D01*
X85303Y73191D01*
X85292Y73242D01*
X85291Y73294D01*
X85266Y73362D01*
X85251Y73432D01*
X85224Y73477D01*
X85206Y73525D01*
X85161Y73581D01*
X85125Y73643D01*
X85085Y73677D01*
X85053Y73717D01*
X84992Y73756D01*
X84938Y73803D01*
X84889Y73822D01*
X84846Y73850D01*
X84776Y73868D01*
X84710Y73895D01*
X84638Y73903D01*
X84607Y73911D01*
X84584Y73909D01*
X84543Y73913D01*
X77822Y73913D01*
X77732Y73899D01*
X77641Y73891D01*
X77611Y73879D01*
X77579Y73874D01*
X77498Y73831D01*
X77414Y73795D01*
X77382Y73769D01*
X77362Y73758D01*
X77339Y73735D01*
X77283Y73690D01*
X72301Y68708D01*
X72290Y68692D01*
X72274Y68679D01*
X72218Y68592D01*
X72158Y68508D01*
X72152Y68489D01*
X72141Y68472D01*
X72116Y68372D01*
X72085Y68273D01*
X72086Y68253D01*
X72081Y68234D01*
X72089Y68131D01*
X72092Y68027D01*
X72098Y68009D01*
X72100Y67989D01*
X72140Y67894D01*
X72176Y67796D01*
X72189Y67781D01*
X72196Y67762D01*
X72301Y67631D01*
X72645Y67288D01*
X72645Y59712D01*
X67288Y54355D01*
X59712Y54355D01*
G37*
%LPD*%
%LPC*%
G36*
X216496Y74703D02*
X216496Y74703D01*
X213387Y77812D01*
X213387Y82208D01*
X214461Y83282D01*
X214503Y83340D01*
X214552Y83392D01*
X214574Y83439D01*
X214604Y83481D01*
X214626Y83550D01*
X214656Y83615D01*
X214661Y83667D01*
X214677Y83717D01*
X214675Y83788D01*
X214683Y83859D01*
X214672Y83910D01*
X214670Y83962D01*
X214646Y84030D01*
X214631Y84100D01*
X214604Y84145D01*
X214586Y84193D01*
X214541Y84249D01*
X214504Y84311D01*
X214465Y84345D01*
X214432Y84385D01*
X214372Y84424D01*
X214317Y84471D01*
X214269Y84490D01*
X214225Y84518D01*
X214156Y84536D01*
X214089Y84563D01*
X214018Y84571D01*
X213987Y84579D01*
X213964Y84577D01*
X213923Y84581D01*
X203418Y84581D01*
X201706Y86293D01*
X195454Y92545D01*
X195438Y92556D01*
X195425Y92572D01*
X195338Y92628D01*
X195254Y92688D01*
X195235Y92694D01*
X195218Y92705D01*
X195118Y92730D01*
X195019Y92761D01*
X194999Y92760D01*
X194980Y92765D01*
X194877Y92757D01*
X194773Y92754D01*
X194755Y92748D01*
X194735Y92746D01*
X194640Y92706D01*
X194542Y92670D01*
X194527Y92657D01*
X194508Y92650D01*
X194377Y92545D01*
X194288Y92455D01*
X186712Y92455D01*
X181355Y97812D01*
X181355Y105388D01*
X186712Y110745D01*
X194288Y110745D01*
X199645Y105388D01*
X199645Y97812D01*
X199047Y97215D01*
X199036Y97198D01*
X199020Y97186D01*
X198964Y97099D01*
X198904Y97015D01*
X198898Y96996D01*
X198887Y96979D01*
X198862Y96878D01*
X198831Y96780D01*
X198832Y96760D01*
X198827Y96740D01*
X198835Y96638D01*
X198838Y96534D01*
X198844Y96515D01*
X198846Y96495D01*
X198886Y96401D01*
X198922Y96303D01*
X198935Y96287D01*
X198942Y96269D01*
X199047Y96138D01*
X205299Y89886D01*
X205373Y89833D01*
X205443Y89773D01*
X205473Y89761D01*
X205499Y89742D01*
X205586Y89715D01*
X205671Y89681D01*
X205712Y89677D01*
X205734Y89670D01*
X205766Y89671D01*
X205838Y89663D01*
X219104Y89663D01*
X219194Y89677D01*
X219285Y89685D01*
X219315Y89697D01*
X219347Y89702D01*
X219428Y89745D01*
X219512Y89781D01*
X219544Y89807D01*
X219564Y89818D01*
X219587Y89841D01*
X219643Y89886D01*
X263936Y134179D01*
X263989Y134253D01*
X264049Y134323D01*
X264061Y134353D01*
X264080Y134379D01*
X264107Y134466D01*
X264141Y134551D01*
X264145Y134592D01*
X264152Y134614D01*
X264151Y134646D01*
X264159Y134718D01*
X264159Y144936D01*
X264148Y145007D01*
X264146Y145079D01*
X264128Y145128D01*
X264120Y145179D01*
X264086Y145242D01*
X264061Y145310D01*
X264029Y145350D01*
X264004Y145396D01*
X263952Y145446D01*
X263908Y145502D01*
X263864Y145530D01*
X263826Y145566D01*
X263761Y145596D01*
X263701Y145635D01*
X263650Y145648D01*
X263603Y145669D01*
X263532Y145677D01*
X263462Y145695D01*
X263410Y145691D01*
X263359Y145697D01*
X263288Y145681D01*
X263217Y145676D01*
X263169Y145655D01*
X263118Y145644D01*
X263057Y145607D01*
X262991Y145579D01*
X262935Y145535D01*
X262907Y145518D01*
X262892Y145500D01*
X262860Y145475D01*
X224447Y107062D01*
X224436Y107046D01*
X224420Y107033D01*
X224364Y106946D01*
X224304Y106862D01*
X224298Y106843D01*
X224287Y106826D01*
X224262Y106726D01*
X224231Y106627D01*
X224232Y106607D01*
X224227Y106588D01*
X224235Y106485D01*
X224238Y106381D01*
X224244Y106362D01*
X224246Y106343D01*
X224287Y106248D01*
X224322Y106150D01*
X224335Y106135D01*
X224342Y106116D01*
X224447Y105985D01*
X225045Y105388D01*
X225045Y97812D01*
X219688Y92455D01*
X212112Y92455D01*
X206755Y97812D01*
X206755Y105388D01*
X212112Y110745D01*
X219688Y110745D01*
X219777Y110655D01*
X219794Y110644D01*
X219806Y110628D01*
X219893Y110572D01*
X219977Y110512D01*
X219996Y110506D01*
X220013Y110495D01*
X220113Y110470D01*
X220212Y110439D01*
X220232Y110440D01*
X220251Y110435D01*
X220354Y110443D01*
X220458Y110446D01*
X220477Y110452D01*
X220497Y110454D01*
X220592Y110494D01*
X220689Y110530D01*
X220705Y110543D01*
X220723Y110550D01*
X220854Y110655D01*
X260380Y150181D01*
X260433Y150255D01*
X260493Y150325D01*
X260505Y150355D01*
X260524Y150381D01*
X260551Y150468D01*
X260585Y150553D01*
X260589Y150594D01*
X260596Y150616D01*
X260595Y150648D01*
X260603Y150720D01*
X260603Y338230D01*
X260589Y338320D01*
X260581Y338411D01*
X260569Y338441D01*
X260564Y338473D01*
X260521Y338554D01*
X260485Y338638D01*
X260459Y338670D01*
X260448Y338690D01*
X260425Y338713D01*
X260380Y338769D01*
X252481Y346668D01*
X252387Y346736D01*
X252292Y346806D01*
X252286Y346808D01*
X252281Y346812D01*
X252170Y346846D01*
X252058Y346882D01*
X252052Y346882D01*
X252046Y346884D01*
X251929Y346881D01*
X251812Y346880D01*
X251805Y346878D01*
X251800Y346878D01*
X251783Y346871D01*
X251651Y346833D01*
X250739Y346455D01*
X231861Y346455D01*
X228500Y347847D01*
X225927Y350420D01*
X224535Y353781D01*
X224535Y357419D01*
X225927Y360780D01*
X228500Y363353D01*
X231861Y364745D01*
X250739Y364745D01*
X254100Y363353D01*
X256673Y360780D01*
X258065Y357419D01*
X258065Y353781D01*
X256645Y350354D01*
X256619Y350241D01*
X256590Y350127D01*
X256591Y350121D01*
X256589Y350115D01*
X256600Y349998D01*
X256609Y349882D01*
X256612Y349876D01*
X256612Y349870D01*
X256660Y349762D01*
X256706Y349656D01*
X256710Y349650D01*
X256712Y349645D01*
X256725Y349632D01*
X256810Y349525D01*
X262860Y343475D01*
X262918Y343434D01*
X262970Y343384D01*
X263017Y343362D01*
X263059Y343332D01*
X263128Y343311D01*
X263193Y343281D01*
X263245Y343275D01*
X263295Y343259D01*
X263366Y343261D01*
X263437Y343253D01*
X263488Y343265D01*
X263540Y343266D01*
X263608Y343290D01*
X263678Y343306D01*
X263723Y343332D01*
X263771Y343350D01*
X263827Y343395D01*
X263889Y343432D01*
X263923Y343471D01*
X263963Y343504D01*
X264002Y343564D01*
X264049Y343619D01*
X264068Y343667D01*
X264096Y343711D01*
X264114Y343780D01*
X264141Y343847D01*
X264149Y343918D01*
X264157Y343949D01*
X264155Y343973D01*
X264159Y344014D01*
X264159Y359566D01*
X264145Y359656D01*
X264137Y359747D01*
X264125Y359777D01*
X264120Y359809D01*
X264099Y359847D01*
X264098Y359854D01*
X264078Y359887D01*
X264077Y359890D01*
X264041Y359974D01*
X264015Y360006D01*
X264004Y360026D01*
X263982Y360047D01*
X263972Y360065D01*
X263959Y360076D01*
X263936Y360105D01*
X252122Y371919D01*
X252027Y371987D01*
X251933Y372057D01*
X251927Y372059D01*
X251922Y372063D01*
X251811Y372097D01*
X251699Y372133D01*
X251693Y372133D01*
X251687Y372135D01*
X251570Y372132D01*
X251453Y372131D01*
X251446Y372129D01*
X251441Y372129D01*
X251423Y372122D01*
X251292Y372084D01*
X250739Y371855D01*
X231861Y371855D01*
X228500Y373247D01*
X225927Y375820D01*
X224535Y379181D01*
X224535Y382819D01*
X225927Y386180D01*
X228500Y388753D01*
X231861Y390145D01*
X250739Y390145D01*
X254100Y388753D01*
X256673Y386180D01*
X258065Y382819D01*
X258065Y379181D01*
X256673Y375820D01*
X256578Y375726D01*
X256567Y375709D01*
X256551Y375697D01*
X256495Y375610D01*
X256435Y375526D01*
X256429Y375507D01*
X256418Y375490D01*
X256393Y375390D01*
X256362Y375291D01*
X256363Y375271D01*
X256358Y375251D01*
X256366Y375148D01*
X256369Y375045D01*
X256375Y375026D01*
X256377Y375006D01*
X256418Y374911D01*
X256453Y374814D01*
X256466Y374798D01*
X256473Y374780D01*
X256578Y374649D01*
X269241Y361986D01*
X269241Y135988D01*
X269252Y135917D01*
X269254Y135845D01*
X269272Y135796D01*
X269280Y135745D01*
X269314Y135682D01*
X269339Y135614D01*
X269371Y135574D01*
X269396Y135528D01*
X269448Y135478D01*
X269492Y135422D01*
X269536Y135394D01*
X269574Y135358D01*
X269639Y135328D01*
X269699Y135289D01*
X269750Y135276D01*
X269797Y135255D01*
X269868Y135247D01*
X269938Y135229D01*
X269990Y135233D01*
X270041Y135227D01*
X270112Y135243D01*
X270183Y135248D01*
X270231Y135269D01*
X270282Y135280D01*
X270343Y135317D01*
X270409Y135345D01*
X270465Y135389D01*
X270493Y135406D01*
X270508Y135424D01*
X270540Y135449D01*
X317276Y182185D01*
X317329Y182259D01*
X317389Y182329D01*
X317401Y182359D01*
X317420Y182385D01*
X317447Y182472D01*
X317481Y182557D01*
X317485Y182598D01*
X317492Y182620D01*
X317491Y182652D01*
X317499Y182724D01*
X317499Y388656D01*
X328257Y399414D01*
X328268Y399430D01*
X328284Y399443D01*
X328316Y399492D01*
X328317Y399493D01*
X328317Y399494D01*
X328340Y399530D01*
X328400Y399614D01*
X328406Y399633D01*
X328417Y399650D01*
X328442Y399750D01*
X328473Y399849D01*
X328472Y399869D01*
X328477Y399888D01*
X328469Y399991D01*
X328466Y400095D01*
X328460Y400113D01*
X328458Y400133D01*
X328418Y400228D01*
X328382Y400326D01*
X328369Y400341D01*
X328362Y400360D01*
X328257Y400491D01*
X327527Y401220D01*
X326135Y404581D01*
X326135Y408219D01*
X327527Y411580D01*
X330100Y414153D01*
X333461Y415545D01*
X352339Y415545D01*
X355700Y414153D01*
X358273Y411580D01*
X359665Y408219D01*
X359665Y404581D01*
X358273Y401220D01*
X355700Y398647D01*
X352339Y397255D01*
X333600Y397255D01*
X333510Y397241D01*
X333419Y397233D01*
X333389Y397221D01*
X333357Y397216D01*
X333276Y397173D01*
X333192Y397137D01*
X333160Y397111D01*
X333140Y397100D01*
X333117Y397077D01*
X333061Y397032D01*
X322804Y386775D01*
X322751Y386701D01*
X322691Y386631D01*
X322679Y386601D01*
X322660Y386575D01*
X322633Y386488D01*
X322599Y386403D01*
X322595Y386362D01*
X322588Y386340D01*
X322589Y386308D01*
X322581Y386236D01*
X322581Y180304D01*
X320869Y178592D01*
X224224Y81947D01*
X224171Y81873D01*
X224111Y81803D01*
X224099Y81773D01*
X224080Y81747D01*
X224053Y81660D01*
X224019Y81575D01*
X224015Y81534D01*
X224008Y81512D01*
X224009Y81480D01*
X224001Y81408D01*
X224001Y77812D01*
X220892Y74703D01*
X216496Y74703D01*
G37*
%LPD*%
%LPC*%
G36*
X408768Y526875D02*
X408768Y526875D01*
X407875Y527768D01*
X407875Y539032D01*
X408768Y539925D01*
X410853Y539925D01*
X410923Y539936D01*
X410995Y539938D01*
X411044Y539956D01*
X411095Y539964D01*
X411159Y539998D01*
X411226Y540023D01*
X411267Y540055D01*
X411313Y540080D01*
X411362Y540132D01*
X411418Y540176D01*
X411446Y540220D01*
X411482Y540258D01*
X411512Y540323D01*
X411551Y540383D01*
X411564Y540434D01*
X411586Y540481D01*
X411594Y540552D01*
X411611Y540622D01*
X411607Y540674D01*
X411613Y540725D01*
X411598Y540796D01*
X411592Y540867D01*
X411572Y540915D01*
X411561Y540966D01*
X411524Y541027D01*
X411496Y541093D01*
X411451Y541149D01*
X411434Y541177D01*
X411417Y541192D01*
X411391Y541224D01*
X410745Y541870D01*
X410745Y546266D01*
X413288Y548809D01*
X413341Y548883D01*
X413401Y548953D01*
X413413Y548983D01*
X413432Y549009D01*
X413459Y549096D01*
X413493Y549181D01*
X413497Y549222D01*
X413504Y549244D01*
X413503Y549276D01*
X413511Y549347D01*
X413511Y554010D01*
X423956Y564455D01*
X424009Y564529D01*
X424069Y564599D01*
X424081Y564629D01*
X424100Y564655D01*
X424127Y564742D01*
X424161Y564827D01*
X424165Y564868D01*
X424172Y564890D01*
X424171Y564922D01*
X424179Y564994D01*
X424179Y590706D01*
X424165Y590796D01*
X424157Y590887D01*
X424145Y590917D01*
X424140Y590949D01*
X424097Y591030D01*
X424061Y591114D01*
X424035Y591146D01*
X424024Y591166D01*
X424001Y591189D01*
X423956Y591245D01*
X413445Y601756D01*
X412349Y602852D01*
X412275Y602905D01*
X412205Y602965D01*
X412175Y602977D01*
X412149Y602996D01*
X412062Y603023D01*
X411977Y603057D01*
X411936Y603061D01*
X411914Y603068D01*
X411882Y603067D01*
X411810Y603075D01*
X408768Y603075D01*
X407875Y603968D01*
X407875Y615232D01*
X408768Y616125D01*
X409684Y616125D01*
X409755Y616136D01*
X409827Y616138D01*
X409876Y616156D01*
X409927Y616164D01*
X409990Y616198D01*
X410058Y616223D01*
X410098Y616255D01*
X410144Y616280D01*
X410194Y616332D01*
X410250Y616376D01*
X410278Y616420D01*
X410314Y616458D01*
X410344Y616523D01*
X410383Y616583D01*
X410396Y616634D01*
X410417Y616681D01*
X410425Y616752D01*
X410443Y616822D01*
X410439Y616874D01*
X410445Y616925D01*
X410429Y616996D01*
X410424Y617067D01*
X410403Y617115D01*
X410392Y617166D01*
X410355Y617227D01*
X410327Y617293D01*
X410283Y617349D01*
X410266Y617377D01*
X410248Y617392D01*
X410223Y617424D01*
X388619Y639028D01*
X388619Y649114D01*
X388616Y649134D01*
X388618Y649153D01*
X388596Y649255D01*
X388580Y649357D01*
X388570Y649374D01*
X388566Y649394D01*
X388513Y649483D01*
X388464Y649574D01*
X388450Y649588D01*
X388440Y649605D01*
X388361Y649672D01*
X388286Y649744D01*
X388268Y649752D01*
X388253Y649765D01*
X388157Y649804D01*
X388063Y649847D01*
X388043Y649849D01*
X388025Y649857D01*
X387858Y649875D01*
X378768Y649875D01*
X377875Y650768D01*
X377875Y670032D01*
X378768Y670925D01*
X401532Y670925D01*
X402425Y670032D01*
X402425Y650768D01*
X401532Y649875D01*
X394462Y649875D01*
X394442Y649872D01*
X394423Y649874D01*
X394321Y649852D01*
X394219Y649836D01*
X394202Y649826D01*
X394182Y649822D01*
X394093Y649769D01*
X394002Y649720D01*
X393988Y649706D01*
X393971Y649696D01*
X393904Y649617D01*
X393832Y649542D01*
X393824Y649524D01*
X393811Y649509D01*
X393772Y649413D01*
X393729Y649319D01*
X393727Y649299D01*
X393719Y649281D01*
X393701Y649114D01*
X393701Y641448D01*
X393715Y641358D01*
X393723Y641267D01*
X393735Y641237D01*
X393740Y641205D01*
X393783Y641124D01*
X393819Y641040D01*
X393845Y641008D01*
X393856Y640988D01*
X393879Y640965D01*
X393924Y640909D01*
X418485Y616348D01*
X418559Y616295D01*
X418629Y616235D01*
X418659Y616223D01*
X418685Y616204D01*
X418772Y616177D01*
X418857Y616143D01*
X418898Y616139D01*
X418920Y616132D01*
X418952Y616133D01*
X419024Y616125D01*
X421032Y616125D01*
X421925Y615232D01*
X421925Y603968D01*
X421018Y603062D01*
X421007Y603062D01*
X420958Y603044D01*
X420907Y603036D01*
X420844Y603002D01*
X420776Y602977D01*
X420735Y602945D01*
X420690Y602920D01*
X420640Y602869D01*
X420584Y602824D01*
X420556Y602780D01*
X420520Y602742D01*
X420490Y602677D01*
X420451Y602617D01*
X420438Y602566D01*
X420417Y602519D01*
X420409Y602448D01*
X420391Y602378D01*
X420395Y602326D01*
X420389Y602275D01*
X420405Y602204D01*
X420410Y602133D01*
X420431Y602085D01*
X420442Y602034D01*
X420479Y601973D01*
X420507Y601907D01*
X420551Y601851D01*
X420568Y601823D01*
X420586Y601808D01*
X420611Y601776D01*
X427071Y595316D01*
X427087Y595305D01*
X427099Y595289D01*
X427187Y595233D01*
X427270Y595173D01*
X427289Y595167D01*
X427306Y595156D01*
X427407Y595131D01*
X427506Y595101D01*
X427525Y595101D01*
X427545Y595096D01*
X427648Y595104D01*
X427751Y595107D01*
X427770Y595114D01*
X427790Y595115D01*
X427885Y595156D01*
X427982Y595191D01*
X427998Y595204D01*
X428016Y595212D01*
X428147Y595316D01*
X481407Y648576D01*
X481448Y648634D01*
X481498Y648686D01*
X481520Y648733D01*
X481550Y648775D01*
X481571Y648844D01*
X481601Y648909D01*
X481607Y648961D01*
X481623Y649011D01*
X481621Y649082D01*
X481629Y649153D01*
X481617Y649204D01*
X481616Y649256D01*
X481592Y649324D01*
X481576Y649394D01*
X481550Y649439D01*
X481532Y649487D01*
X481487Y649543D01*
X481450Y649605D01*
X481411Y649639D01*
X481378Y649679D01*
X481318Y649718D01*
X481263Y649765D01*
X481215Y649784D01*
X481171Y649812D01*
X481102Y649830D01*
X481035Y649857D01*
X480964Y649865D01*
X480933Y649873D01*
X480909Y649871D01*
X480868Y649875D01*
X480368Y649875D01*
X479475Y650768D01*
X479475Y670032D01*
X480368Y670925D01*
X503132Y670925D01*
X504025Y670032D01*
X504025Y650768D01*
X503132Y649875D01*
X490208Y649875D01*
X490118Y649861D01*
X490027Y649853D01*
X489997Y649841D01*
X489965Y649836D01*
X489884Y649793D01*
X489800Y649757D01*
X489768Y649731D01*
X489748Y649720D01*
X489725Y649697D01*
X489669Y649652D01*
X429484Y589467D01*
X429431Y589393D01*
X429371Y589323D01*
X429359Y589293D01*
X429340Y589267D01*
X429313Y589180D01*
X429279Y589095D01*
X429275Y589054D01*
X429268Y589032D01*
X429269Y589000D01*
X429261Y588928D01*
X429261Y562574D01*
X418816Y552129D01*
X418763Y552055D01*
X418703Y551985D01*
X418691Y551955D01*
X418672Y551929D01*
X418645Y551842D01*
X418611Y551757D01*
X418607Y551716D01*
X418600Y551694D01*
X418601Y551662D01*
X418593Y551590D01*
X418593Y549347D01*
X418607Y549257D01*
X418615Y549166D01*
X418627Y549137D01*
X418632Y549105D01*
X418675Y549024D01*
X418711Y548940D01*
X418737Y548908D01*
X418748Y548887D01*
X418771Y548865D01*
X418816Y548809D01*
X421359Y546266D01*
X421359Y541870D01*
X420713Y541224D01*
X420671Y541166D01*
X420622Y541114D01*
X420600Y541067D01*
X420570Y541025D01*
X420548Y540956D01*
X420518Y540891D01*
X420513Y540839D01*
X420497Y540789D01*
X420499Y540718D01*
X420491Y540647D01*
X420502Y540596D01*
X420504Y540544D01*
X420528Y540476D01*
X420543Y540406D01*
X420570Y540361D01*
X420588Y540313D01*
X420633Y540257D01*
X420670Y540195D01*
X420709Y540161D01*
X420742Y540121D01*
X420802Y540082D01*
X420857Y540035D01*
X420905Y540016D01*
X420949Y539988D01*
X420976Y539981D01*
X421925Y539032D01*
X421925Y527768D01*
X421032Y526875D01*
X408768Y526875D01*
G37*
%LPD*%
%LPC*%
G36*
X230088Y38353D02*
X230088Y38353D01*
X228376Y40064D01*
X228376Y40065D01*
X173481Y94960D01*
X173481Y113066D01*
X181953Y121538D01*
X181964Y121554D01*
X181980Y121567D01*
X182009Y121612D01*
X182032Y121636D01*
X182048Y121671D01*
X182096Y121738D01*
X182102Y121757D01*
X182113Y121774D01*
X182133Y121854D01*
X182136Y121859D01*
X182137Y121868D01*
X182138Y121874D01*
X182169Y121973D01*
X182168Y121993D01*
X182173Y122012D01*
X182165Y122115D01*
X182162Y122219D01*
X182156Y122238D01*
X182154Y122257D01*
X182114Y122352D01*
X182078Y122450D01*
X182065Y122465D01*
X182058Y122484D01*
X181953Y122615D01*
X181355Y123212D01*
X181355Y130788D01*
X186712Y136145D01*
X194288Y136145D01*
X199645Y130788D01*
X199645Y123212D01*
X194288Y117855D01*
X186712Y117855D01*
X186623Y117945D01*
X186606Y117956D01*
X186594Y117972D01*
X186507Y118028D01*
X186423Y118088D01*
X186404Y118094D01*
X186387Y118105D01*
X186287Y118130D01*
X186188Y118161D01*
X186168Y118160D01*
X186149Y118165D01*
X186046Y118157D01*
X185942Y118154D01*
X185923Y118148D01*
X185903Y118146D01*
X185808Y118106D01*
X185711Y118070D01*
X185695Y118057D01*
X185677Y118050D01*
X185546Y117945D01*
X178786Y111185D01*
X178742Y111124D01*
X178694Y111074D01*
X178687Y111057D01*
X178673Y111041D01*
X178661Y111011D01*
X178642Y110985D01*
X178621Y110915D01*
X178591Y110851D01*
X178589Y110832D01*
X178581Y110813D01*
X178577Y110772D01*
X178570Y110750D01*
X178571Y110718D01*
X178563Y110646D01*
X178563Y97380D01*
X178577Y97290D01*
X178585Y97199D01*
X178597Y97169D01*
X178602Y97137D01*
X178645Y97056D01*
X178681Y96972D01*
X178707Y96940D01*
X178718Y96920D01*
X178741Y96897D01*
X178786Y96841D01*
X231969Y43658D01*
X232043Y43605D01*
X232113Y43545D01*
X232143Y43533D01*
X232169Y43514D01*
X232256Y43487D01*
X232341Y43453D01*
X232382Y43449D01*
X232404Y43442D01*
X232436Y43443D01*
X232508Y43435D01*
X459134Y43435D01*
X459224Y43449D01*
X459315Y43457D01*
X459345Y43469D01*
X459377Y43474D01*
X459458Y43517D01*
X459542Y43553D01*
X459574Y43579D01*
X459594Y43590D01*
X459617Y43613D01*
X459673Y43658D01*
X482564Y66549D01*
X485394Y66549D01*
X485414Y66552D01*
X485433Y66550D01*
X485535Y66572D01*
X485637Y66588D01*
X485654Y66598D01*
X485674Y66602D01*
X485763Y66655D01*
X485854Y66704D01*
X485868Y66718D01*
X485885Y66728D01*
X485952Y66807D01*
X486024Y66882D01*
X486032Y66900D01*
X486045Y66915D01*
X486084Y67011D01*
X486127Y67105D01*
X486129Y67125D01*
X486137Y67143D01*
X486153Y67285D01*
X491512Y72645D01*
X499088Y72645D01*
X504445Y67288D01*
X504445Y59712D01*
X499088Y54355D01*
X491512Y54355D01*
X486155Y59712D01*
X486155Y60706D01*
X486152Y60726D01*
X486154Y60745D01*
X486132Y60847D01*
X486116Y60949D01*
X486106Y60966D01*
X486102Y60986D01*
X486049Y61075D01*
X486000Y61166D01*
X485986Y61180D01*
X485976Y61197D01*
X485897Y61264D01*
X485822Y61336D01*
X485804Y61344D01*
X485789Y61357D01*
X485693Y61396D01*
X485599Y61439D01*
X485579Y61441D01*
X485561Y61449D01*
X485394Y61467D01*
X484984Y61467D01*
X484894Y61453D01*
X484803Y61445D01*
X484773Y61433D01*
X484741Y61428D01*
X484660Y61385D01*
X484576Y61349D01*
X484544Y61323D01*
X484524Y61312D01*
X484501Y61289D01*
X484445Y61244D01*
X461554Y38353D01*
X230088Y38353D01*
G37*
%LPD*%
%LPC*%
G36*
X493368Y526875D02*
X493368Y526875D01*
X492475Y527768D01*
X492475Y539032D01*
X493368Y539925D01*
X496316Y539925D01*
X496336Y539928D01*
X496355Y539926D01*
X496457Y539948D01*
X496559Y539964D01*
X496576Y539974D01*
X496596Y539978D01*
X496685Y540031D01*
X496776Y540080D01*
X496790Y540094D01*
X496807Y540104D01*
X496874Y540183D01*
X496946Y540258D01*
X496954Y540276D01*
X496967Y540291D01*
X497006Y540387D01*
X497049Y540481D01*
X497051Y540501D01*
X497059Y540519D01*
X497077Y540686D01*
X497077Y551590D01*
X497063Y551680D01*
X497055Y551771D01*
X497043Y551801D01*
X497038Y551833D01*
X496995Y551914D01*
X496959Y551998D01*
X496933Y552030D01*
X496922Y552050D01*
X496899Y552073D01*
X496854Y552129D01*
X482853Y566130D01*
X482853Y592129D01*
X482839Y592219D01*
X482831Y592310D01*
X482819Y592339D01*
X482814Y592371D01*
X482771Y592452D01*
X482735Y592536D01*
X482709Y592568D01*
X482698Y592589D01*
X482675Y592611D01*
X482630Y592667D01*
X480087Y595210D01*
X480087Y599606D01*
X482630Y602149D01*
X482683Y602223D01*
X482743Y602293D01*
X482755Y602323D01*
X482774Y602349D01*
X482801Y602436D01*
X482835Y602521D01*
X482839Y602562D01*
X482846Y602584D01*
X482845Y602616D01*
X482853Y602687D01*
X482853Y618018D01*
X513411Y648576D01*
X513452Y648634D01*
X513502Y648686D01*
X513524Y648733D01*
X513554Y648775D01*
X513575Y648844D01*
X513605Y648909D01*
X513611Y648961D01*
X513627Y649011D01*
X513625Y649082D01*
X513633Y649153D01*
X513621Y649204D01*
X513620Y649256D01*
X513596Y649324D01*
X513580Y649394D01*
X513554Y649439D01*
X513536Y649487D01*
X513491Y649543D01*
X513454Y649605D01*
X513415Y649639D01*
X513382Y649679D01*
X513322Y649718D01*
X513267Y649765D01*
X513219Y649784D01*
X513175Y649812D01*
X513106Y649830D01*
X513039Y649857D01*
X512968Y649865D01*
X512937Y649873D01*
X512913Y649871D01*
X512872Y649875D01*
X512868Y649875D01*
X511975Y650768D01*
X511975Y670032D01*
X512868Y670925D01*
X535632Y670925D01*
X536525Y670032D01*
X536525Y650768D01*
X535632Y649875D01*
X522212Y649875D01*
X522122Y649861D01*
X522031Y649853D01*
X522001Y649841D01*
X521969Y649836D01*
X521888Y649793D01*
X521804Y649757D01*
X521772Y649731D01*
X521752Y649720D01*
X521729Y649697D01*
X521673Y649652D01*
X488158Y616137D01*
X488105Y616063D01*
X488045Y615993D01*
X488033Y615963D01*
X488014Y615937D01*
X487987Y615850D01*
X487953Y615765D01*
X487949Y615724D01*
X487942Y615702D01*
X487943Y615670D01*
X487935Y615598D01*
X487935Y602687D01*
X487949Y602597D01*
X487957Y602506D01*
X487969Y602477D01*
X487974Y602445D01*
X488017Y602364D01*
X488053Y602280D01*
X488079Y602248D01*
X488090Y602227D01*
X488113Y602205D01*
X488158Y602149D01*
X490701Y599606D01*
X490701Y595210D01*
X488158Y592667D01*
X488105Y592593D01*
X488045Y592523D01*
X488033Y592493D01*
X488014Y592467D01*
X487987Y592380D01*
X487953Y592295D01*
X487949Y592254D01*
X487942Y592232D01*
X487943Y592200D01*
X487935Y592129D01*
X487935Y589733D01*
X487946Y589663D01*
X487948Y589591D01*
X487966Y589542D01*
X487974Y589491D01*
X488008Y589427D01*
X488033Y589360D01*
X488065Y589319D01*
X488090Y589273D01*
X488142Y589224D01*
X488186Y589168D01*
X488230Y589140D01*
X488268Y589104D01*
X488333Y589074D01*
X488393Y589035D01*
X488444Y589022D01*
X488491Y589000D01*
X488562Y588992D01*
X488632Y588975D01*
X488684Y588979D01*
X488735Y588973D01*
X488806Y588988D01*
X488877Y588994D01*
X488925Y589014D01*
X488976Y589025D01*
X489037Y589062D01*
X489103Y589090D01*
X489159Y589135D01*
X489187Y589152D01*
X489202Y589169D01*
X489234Y589195D01*
X490308Y590269D01*
X494704Y590269D01*
X497813Y587160D01*
X497813Y583564D01*
X497827Y583474D01*
X497835Y583383D01*
X497847Y583353D01*
X497852Y583321D01*
X497895Y583240D01*
X497931Y583156D01*
X497957Y583124D01*
X497968Y583104D01*
X497991Y583081D01*
X498036Y583025D01*
X500381Y580680D01*
X500381Y578786D01*
X500382Y578778D01*
X500382Y578775D01*
X500384Y578765D01*
X500382Y578747D01*
X500404Y578645D01*
X500420Y578543D01*
X500430Y578526D01*
X500434Y578506D01*
X500487Y578417D01*
X500536Y578326D01*
X500550Y578312D01*
X500560Y578295D01*
X500639Y578228D01*
X500714Y578156D01*
X500732Y578148D01*
X500747Y578135D01*
X500843Y578096D01*
X500937Y578053D01*
X500957Y578051D01*
X500975Y578043D01*
X501142Y578025D01*
X505632Y578025D01*
X506525Y577132D01*
X506525Y565868D01*
X505632Y564975D01*
X493368Y564975D01*
X492475Y565868D01*
X492475Y577132D01*
X493368Y578025D01*
X494012Y578025D01*
X494083Y578036D01*
X494155Y578038D01*
X494204Y578056D01*
X494255Y578064D01*
X494318Y578098D01*
X494386Y578123D01*
X494427Y578155D01*
X494472Y578180D01*
X494522Y578232D01*
X494578Y578276D01*
X494606Y578320D01*
X494642Y578358D01*
X494672Y578423D01*
X494711Y578483D01*
X494724Y578534D01*
X494745Y578581D01*
X494753Y578652D01*
X494771Y578722D01*
X494767Y578774D01*
X494773Y578825D01*
X494757Y578896D01*
X494752Y578967D01*
X494731Y579015D01*
X494720Y579066D01*
X494683Y579127D01*
X494655Y579193D01*
X494611Y579249D01*
X494594Y579277D01*
X494576Y579292D01*
X494551Y579324D01*
X494442Y579432D01*
X494368Y579486D01*
X494299Y579545D01*
X494269Y579557D01*
X494243Y579576D01*
X494156Y579603D01*
X494071Y579637D01*
X494030Y579641D01*
X494008Y579648D01*
X493976Y579647D01*
X493904Y579655D01*
X490308Y579655D01*
X489234Y580729D01*
X489176Y580771D01*
X489124Y580820D01*
X489077Y580842D01*
X489035Y580872D01*
X488966Y580894D01*
X488901Y580924D01*
X488849Y580929D01*
X488799Y580945D01*
X488728Y580943D01*
X488657Y580951D01*
X488606Y580940D01*
X488554Y580938D01*
X488486Y580914D01*
X488416Y580899D01*
X488371Y580872D01*
X488323Y580854D01*
X488267Y580809D01*
X488205Y580772D01*
X488171Y580733D01*
X488131Y580700D01*
X488092Y580640D01*
X488045Y580585D01*
X488026Y580537D01*
X487998Y580493D01*
X487980Y580424D01*
X487953Y580357D01*
X487945Y580286D01*
X487937Y580255D01*
X487939Y580232D01*
X487935Y580191D01*
X487935Y568550D01*
X487949Y568460D01*
X487957Y568369D01*
X487969Y568339D01*
X487974Y568307D01*
X488017Y568226D01*
X488053Y568142D01*
X488079Y568110D01*
X488090Y568090D01*
X488113Y568067D01*
X488158Y568011D01*
X502159Y554010D01*
X502159Y540686D01*
X502162Y540666D01*
X502160Y540647D01*
X502182Y540545D01*
X502198Y540443D01*
X502208Y540426D01*
X502212Y540406D01*
X502265Y540317D01*
X502314Y540226D01*
X502328Y540212D01*
X502338Y540195D01*
X502417Y540128D01*
X502492Y540056D01*
X502510Y540048D01*
X502525Y540035D01*
X502621Y539996D01*
X502715Y539953D01*
X502735Y539951D01*
X502753Y539943D01*
X502920Y539925D01*
X505632Y539925D01*
X506525Y539032D01*
X506525Y527768D01*
X505632Y526875D01*
X493368Y526875D01*
G37*
%LPD*%
%LPC*%
G36*
X191868Y574675D02*
X191868Y574675D01*
X190975Y575568D01*
X190975Y592832D01*
X191868Y593725D01*
X193477Y593725D01*
X193547Y593736D01*
X193619Y593738D01*
X193668Y593756D01*
X193719Y593764D01*
X193783Y593798D01*
X193850Y593823D01*
X193891Y593855D01*
X193937Y593880D01*
X193986Y593932D01*
X194042Y593976D01*
X194070Y594020D01*
X194106Y594058D01*
X194136Y594123D01*
X194175Y594183D01*
X194188Y594234D01*
X194210Y594281D01*
X194218Y594352D01*
X194235Y594422D01*
X194231Y594474D01*
X194237Y594525D01*
X194222Y594596D01*
X194216Y594667D01*
X194196Y594715D01*
X194185Y594766D01*
X194148Y594827D01*
X194120Y594893D01*
X194075Y594949D01*
X194058Y594977D01*
X194041Y594992D01*
X194015Y595024D01*
X192051Y596988D01*
X192051Y601384D01*
X194594Y603927D01*
X194647Y604001D01*
X194707Y604071D01*
X194719Y604101D01*
X194738Y604127D01*
X194765Y604214D01*
X194799Y604299D01*
X194803Y604340D01*
X194810Y604362D01*
X194809Y604394D01*
X194817Y604465D01*
X194817Y612014D01*
X194814Y612034D01*
X194816Y612053D01*
X194794Y612155D01*
X194778Y612257D01*
X194768Y612274D01*
X194764Y612294D01*
X194711Y612383D01*
X194662Y612474D01*
X194648Y612488D01*
X194638Y612505D01*
X194559Y612572D01*
X194484Y612644D01*
X194466Y612652D01*
X194451Y612665D01*
X194355Y612704D01*
X194261Y612747D01*
X194241Y612749D01*
X194223Y612757D01*
X194056Y612775D01*
X191868Y612775D01*
X190975Y613668D01*
X190975Y630932D01*
X191868Y631825D01*
X201132Y631825D01*
X202025Y630932D01*
X202025Y613668D01*
X201132Y612775D01*
X200660Y612775D01*
X200640Y612772D01*
X200621Y612774D01*
X200519Y612752D01*
X200417Y612736D01*
X200400Y612726D01*
X200380Y612722D01*
X200291Y612669D01*
X200200Y612620D01*
X200186Y612606D01*
X200169Y612596D01*
X200102Y612517D01*
X200030Y612442D01*
X200022Y612424D01*
X200009Y612409D01*
X199970Y612313D01*
X199927Y612219D01*
X199925Y612199D01*
X199917Y612181D01*
X199899Y612014D01*
X199899Y604465D01*
X199913Y604375D01*
X199921Y604284D01*
X199933Y604255D01*
X199938Y604223D01*
X199981Y604142D01*
X200017Y604058D01*
X200043Y604026D01*
X200054Y604005D01*
X200077Y603983D01*
X200122Y603927D01*
X202665Y601384D01*
X202665Y596988D01*
X200701Y595024D01*
X200659Y594966D01*
X200610Y594914D01*
X200588Y594867D01*
X200558Y594825D01*
X200536Y594756D01*
X200506Y594691D01*
X200501Y594639D01*
X200485Y594589D01*
X200487Y594518D01*
X200479Y594447D01*
X200490Y594396D01*
X200492Y594344D01*
X200516Y594276D01*
X200531Y594206D01*
X200558Y594161D01*
X200576Y594113D01*
X200621Y594057D01*
X200658Y593995D01*
X200697Y593961D01*
X200730Y593921D01*
X200790Y593882D01*
X200845Y593835D01*
X200893Y593816D01*
X200937Y593788D01*
X201006Y593770D01*
X201073Y593743D01*
X201118Y593738D01*
X202025Y592832D01*
X202025Y575568D01*
X201132Y574675D01*
X191868Y574675D01*
G37*
%LPD*%
%LPC*%
G36*
X231861Y422655D02*
X231861Y422655D01*
X228500Y424047D01*
X225927Y426620D01*
X224535Y429981D01*
X224535Y433619D01*
X225927Y436980D01*
X228500Y439553D01*
X231861Y440945D01*
X250739Y440945D01*
X254100Y439553D01*
X256673Y436980D01*
X258065Y433619D01*
X258065Y429981D01*
X256673Y426620D01*
X254100Y424047D01*
X250739Y422655D01*
X231861Y422655D01*
G37*
%LPD*%
%LPC*%
G36*
X333461Y422655D02*
X333461Y422655D01*
X330100Y424047D01*
X327527Y426620D01*
X326135Y429981D01*
X326135Y433619D01*
X327527Y436980D01*
X330100Y439553D01*
X333461Y440945D01*
X352339Y440945D01*
X355700Y439553D01*
X358273Y436980D01*
X359665Y433619D01*
X359665Y429981D01*
X358273Y426620D01*
X355700Y424047D01*
X352339Y422655D01*
X333461Y422655D01*
G37*
%LPD*%
%LPC*%
G36*
X333461Y371855D02*
X333461Y371855D01*
X330100Y373247D01*
X327527Y375820D01*
X326135Y379181D01*
X326135Y382819D01*
X327527Y386180D01*
X330100Y388753D01*
X333461Y390145D01*
X352339Y390145D01*
X355700Y388753D01*
X358273Y386180D01*
X359665Y382819D01*
X359665Y379181D01*
X358273Y375820D01*
X355700Y373247D01*
X352339Y371855D01*
X333461Y371855D01*
G37*
%LPD*%
%LPC*%
G36*
X333461Y346455D02*
X333461Y346455D01*
X330100Y347847D01*
X327527Y350420D01*
X326135Y353781D01*
X326135Y357419D01*
X327527Y360780D01*
X330100Y363353D01*
X333461Y364745D01*
X352339Y364745D01*
X355700Y363353D01*
X358273Y360780D01*
X359665Y357419D01*
X359665Y353781D01*
X358273Y350420D01*
X355700Y347847D01*
X352339Y346455D01*
X333461Y346455D01*
G37*
%LPD*%
%LPC*%
G36*
X302981Y46735D02*
X302981Y46735D01*
X299620Y48127D01*
X297047Y50700D01*
X295655Y54061D01*
X295655Y72939D01*
X297047Y76300D01*
X299620Y78873D01*
X302981Y80265D01*
X306619Y80265D01*
X309980Y78873D01*
X312553Y76300D01*
X313945Y72939D01*
X313945Y54061D01*
X312553Y50700D01*
X309980Y48127D01*
X306619Y46735D01*
X302981Y46735D01*
G37*
%LPD*%
%LPC*%
G36*
X231861Y321055D02*
X231861Y321055D01*
X228500Y322447D01*
X225927Y325020D01*
X224535Y328381D01*
X224535Y332019D01*
X225927Y335380D01*
X228500Y337953D01*
X231861Y339345D01*
X250739Y339345D01*
X254100Y337953D01*
X256673Y335380D01*
X258065Y332019D01*
X258065Y328381D01*
X256673Y325020D01*
X254100Y322447D01*
X250739Y321055D01*
X231861Y321055D01*
G37*
%LPD*%
%LPC*%
G36*
X510368Y526875D02*
X510368Y526875D01*
X509475Y527768D01*
X509475Y539032D01*
X510368Y539925D01*
X514096Y539925D01*
X514116Y539928D01*
X514135Y539926D01*
X514237Y539948D01*
X514339Y539964D01*
X514356Y539974D01*
X514376Y539978D01*
X514465Y540031D01*
X514556Y540080D01*
X514570Y540094D01*
X514587Y540104D01*
X514654Y540183D01*
X514726Y540258D01*
X514734Y540276D01*
X514747Y540291D01*
X514786Y540387D01*
X514829Y540481D01*
X514831Y540501D01*
X514839Y540519D01*
X514857Y540686D01*
X514857Y547679D01*
X514843Y547769D01*
X514835Y547860D01*
X514823Y547889D01*
X514818Y547921D01*
X514775Y548002D01*
X514739Y548086D01*
X514713Y548118D01*
X514702Y548139D01*
X514679Y548161D01*
X514634Y548217D01*
X512091Y550760D01*
X512091Y555156D01*
X514634Y557699D01*
X514687Y557773D01*
X514747Y557843D01*
X514759Y557873D01*
X514778Y557899D01*
X514805Y557986D01*
X514839Y558071D01*
X514843Y558112D01*
X514850Y558134D01*
X514849Y558166D01*
X514857Y558237D01*
X514857Y564214D01*
X514854Y564234D01*
X514856Y564253D01*
X514834Y564355D01*
X514818Y564457D01*
X514808Y564474D01*
X514804Y564494D01*
X514751Y564583D01*
X514702Y564674D01*
X514688Y564688D01*
X514678Y564705D01*
X514599Y564772D01*
X514524Y564844D01*
X514506Y564852D01*
X514491Y564865D01*
X514395Y564904D01*
X514301Y564947D01*
X514281Y564949D01*
X514263Y564957D01*
X514096Y564975D01*
X510368Y564975D01*
X509475Y565868D01*
X509475Y577132D01*
X510368Y578025D01*
X522632Y578025D01*
X523525Y577132D01*
X523525Y565868D01*
X522632Y564975D01*
X520700Y564975D01*
X520680Y564972D01*
X520661Y564974D01*
X520559Y564952D01*
X520457Y564936D01*
X520440Y564926D01*
X520420Y564922D01*
X520331Y564869D01*
X520240Y564820D01*
X520226Y564806D01*
X520209Y564796D01*
X520142Y564717D01*
X520070Y564642D01*
X520062Y564624D01*
X520049Y564609D01*
X520010Y564513D01*
X519967Y564419D01*
X519965Y564399D01*
X519957Y564381D01*
X519939Y564214D01*
X519939Y558237D01*
X519940Y558227D01*
X519940Y558221D01*
X519946Y558191D01*
X519953Y558147D01*
X519961Y558056D01*
X519973Y558027D01*
X519978Y557995D01*
X520021Y557914D01*
X520057Y557830D01*
X520083Y557798D01*
X520094Y557777D01*
X520117Y557755D01*
X520162Y557699D01*
X522705Y555156D01*
X522705Y550760D01*
X520162Y548217D01*
X520109Y548143D01*
X520049Y548073D01*
X520037Y548043D01*
X520018Y548017D01*
X519991Y547930D01*
X519957Y547845D01*
X519953Y547804D01*
X519946Y547782D01*
X519947Y547750D01*
X519939Y547679D01*
X519939Y540686D01*
X519942Y540666D01*
X519940Y540647D01*
X519962Y540545D01*
X519978Y540443D01*
X519988Y540426D01*
X519992Y540406D01*
X520045Y540317D01*
X520094Y540226D01*
X520108Y540212D01*
X520118Y540195D01*
X520197Y540128D01*
X520272Y540056D01*
X520290Y540048D01*
X520305Y540035D01*
X520401Y539996D01*
X520495Y539953D01*
X520515Y539951D01*
X520533Y539943D01*
X520700Y539925D01*
X522632Y539925D01*
X523525Y539032D01*
X523525Y527768D01*
X522632Y526875D01*
X510368Y526875D01*
G37*
%LPD*%
%LPC*%
G36*
X173824Y608103D02*
X173824Y608103D01*
X170715Y611212D01*
X170715Y612014D01*
X170712Y612034D01*
X170714Y612053D01*
X170692Y612155D01*
X170676Y612257D01*
X170666Y612274D01*
X170662Y612294D01*
X170609Y612383D01*
X170560Y612474D01*
X170546Y612488D01*
X170536Y612505D01*
X170457Y612572D01*
X170382Y612644D01*
X170364Y612652D01*
X170349Y612665D01*
X170253Y612704D01*
X170159Y612747D01*
X170139Y612749D01*
X170121Y612757D01*
X169954Y612775D01*
X161868Y612775D01*
X160975Y613668D01*
X160975Y630932D01*
X161868Y631825D01*
X171132Y631825D01*
X172025Y630932D01*
X172025Y621316D01*
X172039Y621226D01*
X172047Y621135D01*
X172059Y621105D01*
X172064Y621073D01*
X172107Y620992D01*
X172143Y620908D01*
X172169Y620876D01*
X172180Y620856D01*
X172203Y620833D01*
X172248Y620777D01*
X174085Y618940D01*
X174159Y618887D01*
X174229Y618827D01*
X174259Y618815D01*
X174285Y618796D01*
X174372Y618769D01*
X174457Y618735D01*
X174498Y618731D01*
X174520Y618724D01*
X174552Y618725D01*
X174624Y618717D01*
X178220Y618717D01*
X181329Y615608D01*
X181329Y611212D01*
X178220Y608103D01*
X173824Y608103D01*
G37*
%LPD*%
%LPC*%
G36*
X173824Y533427D02*
X173824Y533427D01*
X170899Y536352D01*
X170825Y536405D01*
X170755Y536465D01*
X170725Y536477D01*
X170699Y536496D01*
X170612Y536523D01*
X170527Y536557D01*
X170486Y536561D01*
X170464Y536568D01*
X170432Y536567D01*
X170361Y536575D01*
X161868Y536575D01*
X160975Y537468D01*
X160975Y554732D01*
X161868Y555625D01*
X171132Y555625D01*
X172025Y554732D01*
X172025Y546640D01*
X172039Y546550D01*
X172047Y546459D01*
X172059Y546429D01*
X172064Y546397D01*
X172107Y546316D01*
X172143Y546232D01*
X172169Y546200D01*
X172180Y546180D01*
X172203Y546157D01*
X172248Y546101D01*
X174085Y544264D01*
X174159Y544211D01*
X174229Y544151D01*
X174259Y544139D01*
X174285Y544120D01*
X174372Y544093D01*
X174457Y544059D01*
X174498Y544055D01*
X174520Y544048D01*
X174552Y544049D01*
X174624Y544041D01*
X178220Y544041D01*
X181329Y540932D01*
X181329Y536536D01*
X178220Y533427D01*
X173824Y533427D01*
G37*
%LPD*%
%LPC*%
G36*
X491512Y130555D02*
X491512Y130555D01*
X486155Y135912D01*
X486155Y143488D01*
X491512Y148845D01*
X499088Y148845D01*
X504445Y143488D01*
X504445Y135912D01*
X499088Y130555D01*
X491512Y130555D01*
G37*
%LPD*%
%LPC*%
G36*
X212112Y117855D02*
X212112Y117855D01*
X206755Y123212D01*
X206755Y130788D01*
X212112Y136145D01*
X219688Y136145D01*
X225045Y130788D01*
X225045Y123212D01*
X219688Y117855D01*
X212112Y117855D01*
G37*
%LPD*%
%LPC*%
G36*
X85112Y105155D02*
X85112Y105155D01*
X79755Y110512D01*
X79755Y118088D01*
X85112Y123445D01*
X92688Y123445D01*
X98045Y118088D01*
X98045Y110512D01*
X92688Y105155D01*
X85112Y105155D01*
G37*
%LPD*%
%LPC*%
G36*
X59712Y105155D02*
X59712Y105155D01*
X54355Y110512D01*
X54355Y118088D01*
X59712Y123445D01*
X67288Y123445D01*
X72645Y118088D01*
X72645Y110512D01*
X67288Y105155D01*
X59712Y105155D01*
G37*
%LPD*%
%LPC*%
G36*
X516912Y105155D02*
X516912Y105155D01*
X511555Y110512D01*
X511555Y118088D01*
X516912Y123445D01*
X524488Y123445D01*
X529845Y118088D01*
X529845Y110512D01*
X524488Y105155D01*
X516912Y105155D01*
G37*
%LPD*%
%LPC*%
G36*
X491512Y105155D02*
X491512Y105155D01*
X486155Y110512D01*
X486155Y118088D01*
X491512Y123445D01*
X499088Y123445D01*
X504445Y118088D01*
X504445Y110512D01*
X499088Y105155D01*
X491512Y105155D01*
G37*
%LPD*%
%LPC*%
G36*
X516912Y79755D02*
X516912Y79755D01*
X511555Y85112D01*
X511555Y92688D01*
X516912Y98045D01*
X524488Y98045D01*
X529845Y92688D01*
X529845Y85112D01*
X524488Y79755D01*
X516912Y79755D01*
G37*
%LPD*%
%LPC*%
G36*
X491512Y79755D02*
X491512Y79755D01*
X486155Y85112D01*
X486155Y92688D01*
X491512Y98045D01*
X499088Y98045D01*
X504445Y92688D01*
X504445Y85112D01*
X499088Y79755D01*
X491512Y79755D01*
G37*
%LPD*%
%LPC*%
G36*
X59712Y79755D02*
X59712Y79755D01*
X54355Y85112D01*
X54355Y92688D01*
X59712Y98045D01*
X67288Y98045D01*
X72645Y92688D01*
X72645Y85112D01*
X67288Y79755D01*
X59712Y79755D01*
G37*
%LPD*%
%LPC*%
G36*
X516912Y54355D02*
X516912Y54355D01*
X511555Y59712D01*
X511555Y67288D01*
X516912Y72645D01*
X524488Y72645D01*
X529845Y67288D01*
X529845Y59712D01*
X524488Y54355D01*
X516912Y54355D01*
G37*
%LPD*%
%LPC*%
G36*
X516912Y28955D02*
X516912Y28955D01*
X511555Y34312D01*
X511555Y41888D01*
X516912Y47245D01*
X524488Y47245D01*
X529845Y41888D01*
X529845Y34312D01*
X524488Y28955D01*
X516912Y28955D01*
G37*
%LPD*%
%LPC*%
G36*
X491512Y28955D02*
X491512Y28955D01*
X486155Y34312D01*
X486155Y41888D01*
X491512Y47245D01*
X499088Y47245D01*
X504445Y41888D01*
X504445Y34312D01*
X499088Y28955D01*
X491512Y28955D01*
G37*
%LPD*%
%LPC*%
G36*
X491512Y257555D02*
X491512Y257555D01*
X486155Y262912D01*
X486155Y270488D01*
X491512Y275845D01*
X499088Y275845D01*
X504445Y270488D01*
X504445Y262912D01*
X499088Y257555D01*
X491512Y257555D01*
G37*
%LPD*%
%LPC*%
G36*
X85112Y257555D02*
X85112Y257555D01*
X79755Y262912D01*
X79755Y270488D01*
X85112Y275845D01*
X92688Y275845D01*
X98045Y270488D01*
X98045Y262912D01*
X92688Y257555D01*
X85112Y257555D01*
G37*
%LPD*%
%LPC*%
G36*
X516912Y257555D02*
X516912Y257555D01*
X511555Y262912D01*
X511555Y270488D01*
X516912Y275845D01*
X524488Y275845D01*
X529845Y270488D01*
X529845Y262912D01*
X524488Y257555D01*
X516912Y257555D01*
G37*
%LPD*%
%LPC*%
G36*
X85112Y28955D02*
X85112Y28955D01*
X79755Y34312D01*
X79755Y41888D01*
X85112Y47245D01*
X92688Y47245D01*
X98045Y41888D01*
X98045Y34312D01*
X92688Y28955D01*
X85112Y28955D01*
G37*
%LPD*%
%LPC*%
G36*
X59712Y28955D02*
X59712Y28955D01*
X54355Y34312D01*
X54355Y41888D01*
X59712Y47245D01*
X67288Y47245D01*
X72645Y41888D01*
X72645Y34312D01*
X67288Y28955D01*
X59712Y28955D01*
G37*
%LPD*%
%LPC*%
G36*
X516912Y206755D02*
X516912Y206755D01*
X511555Y212112D01*
X511555Y219688D01*
X516912Y225045D01*
X524488Y225045D01*
X529845Y219688D01*
X529845Y212112D01*
X524488Y206755D01*
X516912Y206755D01*
G37*
%LPD*%
%LPC*%
G36*
X491512Y232155D02*
X491512Y232155D01*
X486155Y237512D01*
X486155Y245088D01*
X491512Y250445D01*
X499088Y250445D01*
X504445Y245088D01*
X504445Y237512D01*
X499088Y232155D01*
X491512Y232155D01*
G37*
%LPD*%
%LPC*%
G36*
X59712Y232155D02*
X59712Y232155D01*
X54355Y237512D01*
X54355Y245088D01*
X59712Y250445D01*
X67288Y250445D01*
X72645Y245088D01*
X72645Y237512D01*
X67288Y232155D01*
X59712Y232155D01*
G37*
%LPD*%
%LPC*%
G36*
X516912Y232155D02*
X516912Y232155D01*
X511555Y237512D01*
X511555Y245088D01*
X516912Y250445D01*
X524488Y250445D01*
X529845Y245088D01*
X529845Y237512D01*
X524488Y232155D01*
X516912Y232155D01*
G37*
%LPD*%
%LPC*%
G36*
X85112Y232155D02*
X85112Y232155D01*
X79755Y237512D01*
X79755Y245088D01*
X85112Y250445D01*
X92688Y250445D01*
X98045Y245088D01*
X98045Y237512D01*
X92688Y232155D01*
X85112Y232155D01*
G37*
%LPD*%
%LPC*%
G36*
X212112Y219455D02*
X212112Y219455D01*
X206755Y224812D01*
X206755Y232388D01*
X212112Y237745D01*
X219688Y237745D01*
X225045Y232388D01*
X225045Y224812D01*
X219688Y219455D01*
X212112Y219455D01*
G37*
%LPD*%
%LPC*%
G36*
X85112Y206755D02*
X85112Y206755D01*
X79755Y212112D01*
X79755Y219688D01*
X85112Y225045D01*
X92688Y225045D01*
X98045Y219688D01*
X98045Y212112D01*
X92688Y206755D01*
X85112Y206755D01*
G37*
%LPD*%
%LPC*%
G36*
X59712Y206755D02*
X59712Y206755D01*
X54355Y212112D01*
X54355Y219688D01*
X59712Y225045D01*
X67288Y225045D01*
X72645Y219688D01*
X72645Y212112D01*
X67288Y206755D01*
X59712Y206755D01*
G37*
%LPD*%
%LPC*%
G36*
X516912Y155955D02*
X516912Y155955D01*
X511555Y161312D01*
X511555Y168888D01*
X516912Y174245D01*
X524488Y174245D01*
X529845Y168888D01*
X529845Y161312D01*
X524488Y155955D01*
X516912Y155955D01*
G37*
%LPD*%
%LPC*%
G36*
X491512Y206755D02*
X491512Y206755D01*
X486155Y212112D01*
X486155Y219688D01*
X491512Y225045D01*
X499088Y225045D01*
X504445Y219688D01*
X504445Y212112D01*
X499088Y206755D01*
X491512Y206755D01*
G37*
%LPD*%
%LPC*%
G36*
X212112Y194055D02*
X212112Y194055D01*
X206755Y199412D01*
X206755Y206988D01*
X212112Y212345D01*
X219688Y212345D01*
X225045Y206988D01*
X225045Y199412D01*
X219688Y194055D01*
X212112Y194055D01*
G37*
%LPD*%
%LPC*%
G36*
X516912Y181355D02*
X516912Y181355D01*
X511555Y186712D01*
X511555Y194288D01*
X516912Y199645D01*
X524488Y199645D01*
X529845Y194288D01*
X529845Y186712D01*
X524488Y181355D01*
X516912Y181355D01*
G37*
%LPD*%
%LPC*%
G36*
X491512Y181355D02*
X491512Y181355D01*
X486155Y186712D01*
X486155Y194288D01*
X491512Y199645D01*
X499088Y199645D01*
X504445Y194288D01*
X504445Y186712D01*
X499088Y181355D01*
X491512Y181355D01*
G37*
%LPD*%
%LPC*%
G36*
X85112Y181355D02*
X85112Y181355D01*
X79755Y186712D01*
X79755Y194288D01*
X85112Y199645D01*
X92688Y199645D01*
X98045Y194288D01*
X98045Y186712D01*
X92688Y181355D01*
X85112Y181355D01*
G37*
%LPD*%
%LPC*%
G36*
X59712Y181355D02*
X59712Y181355D01*
X54355Y186712D01*
X54355Y194288D01*
X59712Y199645D01*
X67288Y199645D01*
X72645Y194288D01*
X72645Y186712D01*
X67288Y181355D01*
X59712Y181355D01*
G37*
%LPD*%
%LPC*%
G36*
X186712Y168655D02*
X186712Y168655D01*
X181355Y174012D01*
X181355Y181588D01*
X186712Y186945D01*
X194288Y186945D01*
X199645Y181588D01*
X199645Y174012D01*
X194288Y168655D01*
X186712Y168655D01*
G37*
%LPD*%
%LPC*%
G36*
X491512Y155955D02*
X491512Y155955D01*
X486155Y161312D01*
X486155Y168888D01*
X491512Y174245D01*
X499088Y174245D01*
X504445Y168888D01*
X504445Y161312D01*
X499088Y155955D01*
X491512Y155955D01*
G37*
%LPD*%
%LPC*%
G36*
X85112Y155955D02*
X85112Y155955D01*
X79755Y161312D01*
X79755Y168888D01*
X85112Y174245D01*
X92688Y174245D01*
X98045Y168888D01*
X98045Y161312D01*
X92688Y155955D01*
X85112Y155955D01*
G37*
%LPD*%
%LPC*%
G36*
X212112Y143255D02*
X212112Y143255D01*
X206755Y148612D01*
X206755Y156188D01*
X212112Y161545D01*
X219688Y161545D01*
X225045Y156188D01*
X225045Y148612D01*
X219688Y143255D01*
X212112Y143255D01*
G37*
%LPD*%
%LPC*%
G36*
X186712Y143255D02*
X186712Y143255D01*
X181355Y148612D01*
X181355Y156188D01*
X186712Y161545D01*
X194288Y161545D01*
X199645Y156188D01*
X199645Y148612D01*
X194288Y143255D01*
X186712Y143255D01*
G37*
%LPD*%
%LPC*%
G36*
X85112Y130555D02*
X85112Y130555D01*
X79755Y135912D01*
X79755Y143488D01*
X85112Y148845D01*
X92688Y148845D01*
X98045Y143488D01*
X98045Y135912D01*
X92688Y130555D01*
X85112Y130555D01*
G37*
%LPD*%
%LPC*%
G36*
X59712Y130555D02*
X59712Y130555D01*
X54355Y135912D01*
X54355Y143488D01*
X59712Y148845D01*
X67288Y148845D01*
X72645Y143488D01*
X72645Y135912D01*
X67288Y130555D01*
X59712Y130555D01*
G37*
%LPD*%
%LPC*%
G36*
X364512Y130555D02*
X364512Y130555D01*
X359155Y135912D01*
X359155Y143488D01*
X364512Y148845D01*
X372088Y148845D01*
X377445Y143488D01*
X377445Y135912D01*
X372088Y130555D01*
X364512Y130555D01*
G37*
%LPD*%
%LPC*%
G36*
X516912Y130555D02*
X516912Y130555D01*
X511555Y135912D01*
X511555Y143488D01*
X516912Y148845D01*
X524488Y148845D01*
X529845Y143488D01*
X529845Y135912D01*
X524488Y130555D01*
X516912Y130555D01*
G37*
%LPD*%
%LPC*%
G36*
X344423Y331723D02*
X344423Y331723D01*
X344423Y340361D01*
X351320Y340361D01*
X352899Y340111D01*
X354420Y339616D01*
X355845Y338890D01*
X357139Y337950D01*
X358270Y336819D01*
X359210Y335525D01*
X359936Y334100D01*
X360431Y332579D01*
X360566Y331723D01*
X344423Y331723D01*
G37*
%LPD*%
%LPC*%
G36*
X344423Y306323D02*
X344423Y306323D01*
X344423Y314961D01*
X351320Y314961D01*
X352899Y314711D01*
X354420Y314216D01*
X355845Y313490D01*
X357139Y312550D01*
X358270Y311419D01*
X359210Y310125D01*
X359936Y308700D01*
X360431Y307179D01*
X360566Y306323D01*
X344423Y306323D01*
G37*
%LPD*%
%LPC*%
G36*
X325234Y331723D02*
X325234Y331723D01*
X325369Y332579D01*
X325864Y334100D01*
X326590Y335525D01*
X327530Y336819D01*
X328661Y337950D01*
X329955Y338890D01*
X331380Y339616D01*
X332901Y340111D01*
X334480Y340361D01*
X341377Y340361D01*
X341377Y331723D01*
X325234Y331723D01*
G37*
%LPD*%
%LPC*%
G36*
X325234Y306323D02*
X325234Y306323D01*
X325369Y307179D01*
X325864Y308700D01*
X326590Y310125D01*
X327530Y311419D01*
X328661Y312550D01*
X329955Y313490D01*
X331380Y314216D01*
X332901Y314711D01*
X334480Y314961D01*
X341377Y314961D01*
X341377Y306323D01*
X325234Y306323D01*
G37*
%LPD*%
%LPC*%
G36*
X344423Y320039D02*
X344423Y320039D01*
X344423Y328677D01*
X360566Y328677D01*
X360431Y327821D01*
X359936Y326300D01*
X359210Y324875D01*
X358270Y323581D01*
X357139Y322450D01*
X355845Y321510D01*
X354420Y320784D01*
X352899Y320289D01*
X351320Y320039D01*
X344423Y320039D01*
G37*
%LPD*%
%LPC*%
G36*
X344423Y294639D02*
X344423Y294639D01*
X344423Y303277D01*
X360566Y303277D01*
X360431Y302421D01*
X359936Y300900D01*
X359210Y299475D01*
X358270Y298181D01*
X357139Y297050D01*
X355845Y296110D01*
X354420Y295384D01*
X352899Y294889D01*
X351320Y294639D01*
X344423Y294639D01*
G37*
%LPD*%
%LPC*%
G36*
X334480Y320039D02*
X334480Y320039D01*
X332901Y320289D01*
X331380Y320784D01*
X329955Y321510D01*
X328661Y322450D01*
X327530Y323581D01*
X326590Y324875D01*
X325864Y326300D01*
X325369Y327821D01*
X325234Y328677D01*
X341377Y328677D01*
X341377Y320039D01*
X334480Y320039D01*
G37*
%LPD*%
%LPC*%
G36*
X334480Y294639D02*
X334480Y294639D01*
X332901Y294889D01*
X331380Y295384D01*
X329955Y296110D01*
X328661Y297050D01*
X327530Y298181D01*
X326590Y299475D01*
X325864Y300900D01*
X325369Y302421D01*
X325234Y303277D01*
X341377Y303277D01*
X341377Y294639D01*
X334480Y294639D01*
G37*
%LPD*%
%LPC*%
G36*
X65023Y268223D02*
X65023Y268223D01*
X65023Y276861D01*
X67709Y276861D01*
X73661Y270909D01*
X73661Y268223D01*
X65023Y268223D01*
G37*
%LPD*%
%LPC*%
G36*
X395223Y141223D02*
X395223Y141223D01*
X395223Y149861D01*
X397909Y149861D01*
X403861Y143909D01*
X403861Y141223D01*
X395223Y141223D01*
G37*
%LPD*%
%LPC*%
G36*
X395223Y166623D02*
X395223Y166623D01*
X395223Y175261D01*
X397909Y175261D01*
X403861Y169309D01*
X403861Y166623D01*
X395223Y166623D01*
G37*
%LPD*%
%LPC*%
G36*
X65023Y265177D02*
X65023Y265177D01*
X73661Y265177D01*
X73661Y262491D01*
X67709Y256539D01*
X65023Y256539D01*
X65023Y265177D01*
G37*
%LPD*%
%LPC*%
G36*
X395223Y163577D02*
X395223Y163577D01*
X403861Y163577D01*
X403861Y160891D01*
X397909Y154939D01*
X395223Y154939D01*
X395223Y163577D01*
G37*
%LPD*%
%LPC*%
G36*
X395223Y138177D02*
X395223Y138177D01*
X403861Y138177D01*
X403861Y135491D01*
X397909Y129539D01*
X395223Y129539D01*
X395223Y138177D01*
G37*
%LPD*%
%LPC*%
G36*
X53339Y268223D02*
X53339Y268223D01*
X53339Y270909D01*
X59291Y276861D01*
X61977Y276861D01*
X61977Y268223D01*
X53339Y268223D01*
G37*
%LPD*%
%LPC*%
G36*
X383539Y141223D02*
X383539Y141223D01*
X383539Y143909D01*
X389491Y149861D01*
X392177Y149861D01*
X392177Y141223D01*
X383539Y141223D01*
G37*
%LPD*%
%LPC*%
G36*
X180339Y230123D02*
X180339Y230123D01*
X180339Y232809D01*
X186291Y238761D01*
X188977Y238761D01*
X188977Y230123D01*
X180339Y230123D01*
G37*
%LPD*%
%LPC*%
G36*
X383539Y166623D02*
X383539Y166623D01*
X383539Y169309D01*
X389491Y175261D01*
X392177Y175261D01*
X392177Y166623D01*
X383539Y166623D01*
G37*
%LPD*%
%LPC*%
G36*
X389491Y154939D02*
X389491Y154939D01*
X383539Y160891D01*
X383539Y163577D01*
X392177Y163577D01*
X392177Y154939D01*
X389491Y154939D01*
G37*
%LPD*%
%LPC*%
G36*
X59291Y256539D02*
X59291Y256539D01*
X53339Y262491D01*
X53339Y265177D01*
X61977Y265177D01*
X61977Y256539D01*
X59291Y256539D01*
G37*
%LPD*%
%LPC*%
G36*
X389491Y129539D02*
X389491Y129539D01*
X383539Y135491D01*
X383539Y138177D01*
X392177Y138177D01*
X392177Y129539D01*
X389491Y129539D01*
G37*
%LPD*%
%LPC*%
G36*
X186291Y218439D02*
X186291Y218439D01*
X180339Y224391D01*
X180339Y227077D01*
X188977Y227077D01*
X188977Y218439D01*
X186291Y218439D01*
G37*
%LPD*%
%LPC*%
G36*
X342899Y330199D02*
X342899Y330199D01*
X342899Y330201D01*
X342901Y330201D01*
X342901Y330199D01*
X342899Y330199D01*
G37*
%LPD*%
%LPC*%
G36*
X342899Y304799D02*
X342899Y304799D01*
X342899Y304801D01*
X342901Y304801D01*
X342901Y304799D01*
X342899Y304799D01*
G37*
%LPD*%
%LPC*%
G36*
X63499Y266699D02*
X63499Y266699D01*
X63499Y266701D01*
X63501Y266701D01*
X63501Y266699D01*
X63499Y266699D01*
G37*
%LPD*%
%LPC*%
G36*
X393699Y165099D02*
X393699Y165099D01*
X393699Y165101D01*
X393701Y165101D01*
X393701Y165099D01*
X393699Y165099D01*
G37*
%LPD*%
%LPC*%
G36*
X393699Y139699D02*
X393699Y139699D01*
X393699Y139701D01*
X393701Y139701D01*
X393701Y139699D01*
X393699Y139699D01*
G37*
%LPD*%
D10*
X0Y0D02*
X584200Y0D01*
X584200Y762000D01*
X0Y762000D01*
X0Y0D01*
D11*
X397900Y609600D03*
X414900Y609600D03*
D12*
X524250Y660400D03*
X491750Y660400D03*
X422650Y660400D03*
X390150Y660400D03*
D11*
X499500Y533400D03*
X516500Y533400D03*
X499500Y571500D03*
X516500Y571500D03*
X397900Y571500D03*
X414900Y571500D03*
X397900Y533400D03*
X414900Y533400D03*
X499500Y609600D03*
X516500Y609600D03*
D13*
X88900Y266700D03*
X88900Y241300D03*
X88900Y215900D03*
X88900Y190500D03*
X88900Y165100D03*
X88900Y139700D03*
X88900Y114300D03*
X88900Y88900D03*
X88900Y63500D03*
X88900Y38100D03*
X63500Y38100D03*
X63500Y63500D03*
X63500Y88900D03*
X63500Y114300D03*
X63500Y139700D03*
X63500Y165100D03*
X63500Y190500D03*
X63500Y215900D03*
X63500Y241300D03*
X63500Y266700D03*
X520700Y266700D03*
X520700Y241300D03*
X520700Y215900D03*
X520700Y190500D03*
X520700Y165100D03*
X520700Y139700D03*
X520700Y114300D03*
X520700Y88900D03*
X520700Y63500D03*
X520700Y38100D03*
X495300Y38100D03*
X495300Y63500D03*
X495300Y88900D03*
X495300Y114300D03*
X495300Y139700D03*
X495300Y165100D03*
X495300Y190500D03*
X495300Y215900D03*
X495300Y241300D03*
X495300Y266700D03*
D14*
X166500Y546100D03*
X196500Y546100D03*
X90300Y660400D03*
X120300Y660400D03*
X90300Y622300D03*
X120300Y622300D03*
X90300Y584200D03*
X120300Y584200D03*
X90300Y546100D03*
X120300Y546100D03*
X166500Y660400D03*
X196500Y660400D03*
X166500Y622300D03*
X196500Y622300D03*
X166500Y584200D03*
X196500Y584200D03*
D15*
X268224Y606400D03*
X268224Y596900D03*
X268224Y587400D03*
X290576Y587400D03*
X290576Y596900D03*
X290576Y606400D03*
D16*
X368300Y190500D03*
D17*
X368300Y165100D03*
X368300Y139700D03*
X393700Y190500D03*
X393700Y165100D03*
X393700Y139700D03*
D18*
X279400Y71120D02*
X279400Y55880D01*
X304800Y55880D02*
X304800Y71120D01*
X248920Y431800D02*
X233680Y431800D01*
X233680Y406400D02*
X248920Y406400D01*
X248920Y381000D02*
X233680Y381000D01*
X233680Y355600D02*
X248920Y355600D01*
X248920Y330200D02*
X233680Y330200D01*
X335280Y457200D02*
X350520Y457200D01*
X350520Y431800D02*
X335280Y431800D01*
X335280Y406400D02*
X350520Y406400D01*
X350520Y381000D02*
X335280Y381000D01*
X335280Y355600D02*
X350520Y355600D01*
X350520Y330200D02*
X335280Y330200D01*
X335280Y304800D02*
X350520Y304800D01*
D13*
X215900Y101600D03*
X215900Y127000D03*
X215900Y152400D03*
X215900Y177800D03*
X215900Y203200D03*
X215900Y228600D03*
X190500Y101600D03*
X190500Y127000D03*
X190500Y152400D03*
X190500Y177800D03*
X190500Y203200D03*
X190500Y228600D03*
D19*
X76454Y76454D02*
X63500Y63500D01*
X76454Y76454D02*
X96012Y76454D01*
X176022Y156464D01*
X176022Y183134D01*
X184912Y192024D01*
X202692Y192024D01*
X202692Y238252D01*
X227584Y263144D01*
X227584Y270256D01*
D20*
X227584Y270256D03*
D19*
X320040Y181356D02*
X218694Y80010D01*
X320040Y181356D02*
X320040Y387604D01*
X337820Y405384D01*
X341376Y405384D01*
X342900Y406400D01*
D20*
X218694Y80010D03*
D19*
X416052Y544068D02*
X416052Y552958D01*
X416052Y544068D02*
X416052Y533400D01*
X416052Y552958D02*
X426720Y563626D01*
X426720Y590296D02*
X426720Y592074D01*
X426720Y590296D02*
X426720Y563626D01*
X426720Y592074D02*
X414274Y604520D01*
X414274Y608076D01*
X414900Y533400D02*
X416052Y533400D01*
X414274Y608076D02*
X414900Y609600D01*
X391160Y640080D02*
X391160Y659638D01*
X391160Y640080D02*
X416052Y615188D01*
X416052Y609854D01*
X391160Y659638D02*
X390150Y660400D01*
X414900Y609600D02*
X416052Y609854D01*
X490728Y654304D02*
X490728Y659638D01*
X490728Y654304D02*
X426720Y590296D01*
X490728Y659638D02*
X491750Y660400D01*
X517398Y570738D02*
X517398Y552958D01*
X517398Y533400D01*
X516500Y533400D01*
X517398Y570738D02*
X516500Y571500D01*
X266700Y597408D02*
X254254Y597408D01*
X266700Y597408D02*
X268224Y596900D01*
X90678Y661416D02*
X90678Y673862D01*
X90678Y661416D02*
X90300Y660400D01*
D20*
X254254Y597408D03*
X90678Y673862D03*
X517398Y552958D03*
X416052Y544068D03*
D19*
X397900Y533400D02*
X330708Y533400D01*
X176022Y538734D02*
X167132Y547624D01*
X166500Y546100D01*
D20*
X330708Y533400D03*
X176022Y538734D03*
D19*
X197358Y599186D02*
X197358Y622300D01*
X197358Y599186D02*
X197358Y584962D01*
X196500Y584200D01*
X196500Y622300D02*
X197358Y622300D01*
X304038Y572516D02*
X396494Y572516D01*
X300482Y576072D02*
X295148Y581406D01*
X300482Y576072D02*
X304038Y572516D01*
X295148Y581406D02*
X295148Y586740D01*
X293370Y588518D01*
X291592Y588518D01*
X396494Y572516D02*
X397900Y571500D01*
X291592Y588518D02*
X290576Y587400D01*
X304038Y584962D02*
X304038Y579628D01*
X300482Y576072D01*
D20*
X197358Y599186D03*
X304038Y584962D03*
D19*
X90678Y563626D02*
X90678Y547624D01*
X90678Y563626D02*
X76454Y577850D01*
X76454Y670306D01*
X87122Y680974D01*
X172466Y680974D01*
X192024Y661416D01*
X195580Y661416D01*
X90678Y547624D02*
X90300Y546100D01*
X196500Y660400D02*
X195580Y661416D01*
X421386Y661416D02*
X421386Y666750D01*
X412496Y675640D01*
X215138Y675640D01*
X200914Y661416D01*
X197358Y661416D01*
X421386Y661416D02*
X422650Y660400D01*
X197358Y661416D02*
X196500Y660400D01*
X305816Y609854D02*
X396494Y609854D01*
X305816Y609854D02*
X300482Y615188D01*
X248920Y615188D01*
X202692Y568960D01*
X138684Y568960D01*
X124460Y583184D01*
X120904Y583184D01*
X396494Y609854D02*
X397900Y609600D01*
X120904Y583184D02*
X120300Y584200D01*
X94234Y622300D02*
X90300Y622300D01*
X94234Y622300D02*
X120904Y595630D01*
X120904Y584962D01*
X120300Y584200D01*
X120904Y636524D02*
X120904Y659638D01*
X120904Y636524D02*
X120904Y622300D01*
X120300Y622300D01*
X120904Y659638D02*
X120300Y660400D01*
X517398Y608076D02*
X517398Y590296D01*
X528066Y579628D01*
X528066Y526288D01*
X524510Y522732D01*
X330708Y522732D01*
X272034Y581406D01*
X272034Y586740D01*
X270256Y588518D01*
X268478Y588518D01*
X516500Y609600D02*
X517398Y608076D01*
X268478Y588518D02*
X268224Y587400D01*
X120904Y636524D02*
X88900Y636524D01*
X83566Y631190D01*
X83566Y611632D01*
X110236Y584962D01*
X110236Y574294D01*
X124460Y560070D01*
X172466Y560070D01*
X186690Y545846D01*
X186690Y535178D01*
X190246Y531622D01*
X204470Y531622D01*
X261366Y588518D01*
X266700Y588518D01*
X268224Y587400D01*
X499618Y609854D02*
X499618Y616966D01*
X503174Y620522D01*
X524510Y620522D01*
X531622Y613410D01*
X531622Y519176D02*
X531622Y328930D01*
X531622Y519176D02*
X531622Y613410D01*
X531622Y328930D02*
X394716Y192024D01*
X499500Y609600D02*
X499618Y609854D01*
X394716Y192024D02*
X393700Y190500D01*
X145796Y545846D02*
X120904Y545846D01*
X145796Y545846D02*
X172466Y519176D01*
X531622Y519176D01*
X120904Y545846D02*
X120300Y546100D01*
X280924Y74676D02*
X280924Y64008D01*
X280924Y74676D02*
X353822Y147574D01*
X353822Y170688D01*
X360934Y177800D01*
X380492Y177800D01*
X392938Y190246D01*
X280924Y64008D02*
X279400Y63500D01*
X392938Y190246D02*
X393700Y190500D01*
X499618Y533400D02*
X499618Y552958D01*
X485394Y567182D01*
X485394Y597408D02*
X485394Y616966D01*
X485394Y597408D02*
X485394Y567182D01*
X485394Y616966D02*
X522732Y654304D01*
X522732Y659638D01*
X499618Y533400D02*
X499500Y533400D01*
X522732Y659638D02*
X524250Y660400D01*
X291592Y606298D02*
X291592Y597408D01*
X291592Y606298D02*
X290576Y606400D01*
X90678Y599186D02*
X90678Y584962D01*
X90678Y599186D02*
X80010Y609854D01*
X80010Y632968D01*
X92456Y645414D01*
X108712Y645414D01*
X110236Y646938D01*
X110236Y670306D01*
X115570Y675640D01*
X147574Y675640D01*
X161798Y661416D01*
X165354Y661416D01*
X90678Y584962D02*
X90300Y584200D01*
X165354Y661416D02*
X166500Y660400D01*
X291592Y597408D02*
X304038Y597408D01*
X176022Y654304D02*
X170688Y659638D01*
X167132Y659638D01*
X290576Y596900D02*
X291592Y597408D01*
X167132Y659638D02*
X166500Y660400D01*
X48006Y179578D02*
X62230Y165354D01*
X48006Y179578D02*
X48006Y483616D01*
X101346Y536956D01*
X101346Y561848D01*
X90678Y572516D01*
X90678Y583184D01*
X62230Y165354D02*
X63500Y165100D01*
X90678Y583184D02*
X90300Y584200D01*
D20*
X304038Y597408D03*
X176022Y654304D03*
X485394Y597408D03*
D19*
X497840Y579628D02*
X497840Y572516D01*
X497840Y579628D02*
X492506Y584962D01*
X176022Y577850D02*
X170688Y583184D01*
X167132Y583184D01*
X497840Y572516D02*
X499500Y571500D01*
X167132Y583184D02*
X166500Y584200D01*
D20*
X492506Y584962D03*
X176022Y577850D03*
D19*
X414274Y570738D02*
X414274Y563626D01*
X410718Y560070D01*
X304038Y560070D01*
X279146Y584962D01*
X279146Y600964D01*
X273812Y606298D01*
X268478Y606298D01*
X414274Y570738D02*
X414900Y571500D01*
X268478Y606298D02*
X268224Y606400D01*
X200914Y547624D02*
X197358Y547624D01*
X231140Y577850D02*
X247142Y593852D01*
X231140Y577850D02*
X200914Y547624D01*
X247142Y593852D02*
X247142Y600964D01*
X252476Y606298D01*
X266700Y606298D01*
X197358Y547624D02*
X196500Y546100D01*
X266700Y606298D02*
X268224Y606400D01*
X176022Y613410D02*
X167132Y622300D01*
X227584Y581406D02*
X231140Y577850D01*
X167132Y622300D02*
X166500Y622300D01*
D20*
X176022Y613410D03*
X227584Y581406D03*
D19*
X234696Y195580D02*
X216916Y177800D01*
X234696Y195580D02*
X234696Y309372D01*
X218694Y325374D01*
X218694Y387604D01*
X236474Y405384D01*
X240030Y405384D01*
X216916Y177800D02*
X215900Y177800D01*
X240030Y405384D02*
X241300Y406400D01*
X190246Y126238D02*
X176022Y112014D01*
X176022Y96012D01*
X231140Y40894D01*
X460502Y40894D01*
X483616Y64008D01*
X494284Y64008D01*
X190500Y127000D02*
X190246Y126238D01*
X494284Y64008D02*
X495300Y63500D01*
X190246Y204470D02*
X176022Y218694D01*
X176022Y394716D01*
X236474Y455168D01*
X327152Y455168D01*
X328930Y456946D01*
X341376Y456946D01*
X190246Y204470D02*
X190500Y203200D01*
X341376Y456946D02*
X342900Y457200D01*
X192024Y101346D02*
X195580Y97790D01*
X195580Y96012D01*
X204470Y87122D01*
X220472Y87122D01*
X266700Y133350D01*
X266700Y360934D01*
X247142Y380492D01*
X241808Y380492D01*
X192024Y101346D02*
X190500Y101600D01*
X241808Y380492D02*
X241300Y381000D01*
X263144Y149352D02*
X216916Y103124D01*
X263144Y149352D02*
X263144Y339598D01*
X247142Y355600D01*
X241300Y355600D01*
X216916Y103124D02*
X215900Y101600D01*
M02*
